<?xml version="1.0" encoding="utf-8"?>
<!-- Generator: Adobe Illustrator 24.1.3, SVG Export Plug-In . SVG Version: 6.00 Build 0)  -->
<svg version="1.1" id="Laag_1" xmlns="http://www.w3.org/2000/svg" xmlns:xlink="http://www.w3.org/1999/xlink" x="0px" y="0px"
	 viewBox="0 0 122.6 113.6" style="enable-background:new 0 0 122.6 113.6;" xml:space="preserve">
<style type="text/css">
	.st0{fill:#FFFFFF;}
</style>
<g id="Stroke_1_37_">
	<g>
		<rect x="36" y="8.9" transform="matrix(0.8664 -0.4993 0.4993 0.8664 -6.1546 21.5565)" class="st0" width="2.5" height="26.8"/>
		<path class="st0" d="M42.8,34.7L29.3,11.3l2.4-1.4l13.5,23.4L42.8,34.7z M29.6,11.4l13.2,23l1.9-1.1l-13.2-23L29.6,11.4z"/>
	</g>
</g>
<g id="Stroke_1_36_">
	<g>
		<rect x="71.2" y="21" transform="matrix(0.4992 -0.8665 0.8665 0.4992 23.068 84.479)" class="st0" width="26.8" height="2.5"/>
		<path class="st0" d="M79.1,34.7l-2.4-1.4L90.2,9.9l2.4,1.4L79.1,34.7z M77,33.2l1.9,1.1l13.2-23l-1.9-1.1L77,33.2z"/>
	</g>
</g>
<g id="Stroke_3_31_">
	<g>
		
			<rect x="105.4" y="49.7" transform="matrix(0.2472 -0.969 0.969 0.2472 19.1028 150.8375)" class="st0" width="2.5" height="26.8"/>
		<path class="st0" d="M119.4,67.8l-0.1,0l-26-6.6l0.7-2.7l0.1,0l26,6.6L119.4,67.8z M93.5,60.9l25.7,6.6l0.6-2.2l-25.7-6.6
			L93.5,60.9z"/>
	</g>
</g>
<g id="Stroke_7_31_">
	<g>
		<polygon class="st0" points="105.9,44.8 90.1,41.9 90.6,39.4 103,41.7 100.9,25.2 115.4,27.8 115,30.2 103.8,28.3 		"/>
		<path class="st0" d="M106.1,44.9l-0.2,0L90,42l0.5-2.7l0.1,0l12.3,2.2l-2.2-16.5l14.8,2.6l-0.5,2.7l-11.1-1.9L106.1,44.9z
			 M90.3,41.8l15.5,2.8l-2.2-16.5l11.2,2l0.4-2.2L101,25.4l2.2,16.5l-0.2,0l-12.3-2.2L90.3,41.8z"/>
	</g>
</g>
<g id="Stroke_9_31_">
	<g>
		<polygon class="st0" points="60.5,28.6 51.5,1.3 53.8,0.5 60.6,21 68,0.5 70.4,1.3 		"/>
		<path class="st0" d="M60.5,29L51.3,1.2l2.6-0.9l0,0.1l6.6,20.1l7.3-20.3l2.6,0.9l0,0.1L60.5,29z M51.6,1.4l8.9,26.8l9.7-26.8
			l-2.1-0.8l-7.5,20.7L53.8,0.7L51.6,1.4z"/>
	</g>
</g>
<g id="Stroke_11_31_">
	<g>
		<polygon class="st0" points="31.3,108.5 34.1,79.6 36.6,79.8 34.5,101.9 50.5,86.2 52.2,88 		"/>
		<path class="st0" d="M31.1,108.8L34,79.4l2.7,0.3l-2.1,21.8L50.5,86l1.9,2L52.3,88L31.1,108.8z M34.2,79.7l-2.8,28.4L52,88
			l-1.6-1.6l-16.2,15.9l2.2-22.3L34.2,79.7z"/>
	</g>
</g>
<g id="Stroke_13_31_">
	<g>
		<polygon class="st0" points="13.9,87.3 12.2,85.5 26.8,71.5 6.7,73.9 20.1,59.8 1.1,65.2 0.4,62.7 28.2,55 13.3,70.6 34,68.1 		
			"/>
		<path class="st0" d="M13.9,87.5l-1.9-2l14.5-13.8l-20,2.4l13.3-14L1,65.3l-0.7-2.6l0.1,0l28.2-7.9L13.7,70.5L34.3,68L13.9,87.5z
			 M12.3,85.5l1.6,1.6l19.7-18.9L13,70.8l14.8-15.6L0.6,62.8L1.2,65l19.4-5.4L7.1,73.8l20.1-2.4L12.3,85.5z"/>
	</g>
</g>
<g id="Stroke_15_31_">
	<g>
		<polygon class="st0" points="66,113.5 61.2,86.1 80.2,104.1 76.7,84.3 79.1,83.9 84,111.1 65,93.2 68.5,113 		"/>
		<path class="st0" d="M65.9,113.6l0-0.1L61,85.8l19,18l-3.5-19.5l2.7-0.5l0,0.1l4.9,27.6l-19-18l3.5,19.6L65.9,113.6z M61.4,86.5
			l4.8,26.8l2.2-0.4l-3.6-20.1l19,18L79,84.1l-2.2,0.4l3.6,20L61.4,86.5z"/>
	</g>
</g>
<g id="Stroke_17_31_">
	<g>
		<polygon class="st0" points="30.1,43.3 8.9,41.6 13.8,21.2 16.3,21.7 12.1,39.3 30.3,40.8 		"/>
		<path class="st0" d="M30.3,43.4L8.8,41.7l5-20.7l2.7,0.6l0,0.1l-4.2,17.4l18.3,1.5L30.3,43.4z M9.1,41.4L30,43.2l0.2-2.2
			l-18.3-1.5l4.2-17.6l-2.2-0.5L9.1,41.4z"/>
	</g>
</g>
<g id="Stroke_19_30_">
	<g>
		<path class="st0" d="M101.8,98.5l-16-22.8l24.5-0.2L101.8,98.5z M90.6,78.2l10.5,15l5.6-15.1L90.6,78.2z"/>
		<path class="st0" d="M101.8,98.8l-0.1-0.2l-16.2-23l24.9-0.2L101.8,98.8z M86,75.8l15.8,22.4l8.3-22.6L86,75.8z M101.1,93.4
			l-0.1-0.2L90.3,78l16.5-0.1L101.1,93.4z M90.8,78.3l10.3,14.6l5.4-14.7L90.8,78.3z"/>
	</g>
</g>
</svg>
