{"accessors" : [{"bufferView" : 0, "byteOffset" : 0, "componentType" : 5123, "count" : 61440, "type" : "SCALAR", "max" : [10344], "min" : [0]}, {"bufferView" : 1, "byteOffset" : 0, "componentType" : 5126, "count" : 10345, "type" : "VEC3", "max" : [0.9989820122718811, 0.9990000128746033, 0.9989809989929199], "min" : [-0.9989809989929199, -0.9990000128746033, -0.9989809989929199]}, {"bufferView" : 1, "byteOffset" : 12, "componentType" : 5126, "count" : 10345, "type" : "VEC2", "max" : [0.99692302942276, -0], "min" : [-0.20000000298023224, -1]}, {"bufferView" : 1, "byteOffset" : 20, "componentType" : 5126, "count" : 10345, "type" : "VEC3", "max" : [0.9999857544898987, 1.0000044107437134, 0.9999851584434509], "min" : [-0.9999857544898987, -1.0000044107437134, -0.9999851584434509]}, {"bufferView" : 0, "byteOffset" : 122880, "componentType" : 5123, "count" : 122103, "type" : "SCALAR", "max" : [25119], "min" : [0]}, {"bufferView" : 2, "byteOffset" : 0, "componentType" : 5126, "count" : 25120, "type" : "VEC3", "max" : [0.6012610197067261, 0.9880179762840271, 0.9426000118255615], "min" : [-0.9997959733009338, -0.64752197265625, -0.9053030014038086]}, {"bufferView" : 2, "byteOffset" : 12, "componentType" : 5126, "count" : 25120, "type" : "VEC2", "max" : [0.999638020992279, -0.00036199999158270657], "min" : [0.00036199999158270657, -0.9872909784317017]}, {"bufferView" : 2, "byteOffset" : 20, "componentType" : 5126, "count" : 25120, "type" : "VEC3", "max" : [0.624011218547821, 0.9970740079879761, 0.9605565071105957], "min" : [-1.0000001192092896, -0.9991729259490967, -0.9666193127632141]}, {"bufferView" : 0, "byteOffset" : 367088, "componentType" : 5123, "count" : 33216, "type" : "SCALAR", "max" : [6503], "min" : [0]}, {"bufferView" : 3, "byteOffset" : 0, "componentType" : 5126, "count" : 6504, "type" : "VEC3", "max" : [0.9997959733009338, 0.21546000242233276, 0.5637649893760681], "min" : [0.5638909935951233, -0.8253690004348755, -0.5744529962539673]}, {"bufferView" : 3, "byteOffset" : 12, "componentType" : 5126, "count" : 6504, "type" : "VEC2", "max" : [0.9303449988365173, -0.009759999811649323], "min" : [0.07350800186395645, -0.9857620000839233]}, {"bufferView" : 3, "byteOffset" : 20, "componentType" : 5126, "count" : 6504, "type" : "VEC3", "max" : [1.0000008344650269, 0.9267696738243103, 0.9450202584266663], "min" : [-0.6994136571884155, -0.9215770959854126, -0.6715279817581177]}, {"bufferView" : 0, "byteOffset" : 433520, "componentType" : 5123, "count" : 32940, "type" : "SCALAR", "max" : [7766], "min" : [0]}, {"bufferView" : 4, "byteOffset" : 0, "componentType" : 5126, "count" : 7767, "type" : "VEC3", "max" : [0.3832550048828125, 0.9890580177307129, -0.1068509966135025], "min" : [-0.36139199137687683, 0.5728530287742615, -0.8162990212440491]}, {"bufferView" : 4, "byteOffset" : 12, "componentType" : 5126, "count" : 7767, "type" : "VEC2", "max" : [1.0638220310211182, 0.023934999480843544], "min" : [-0.019527999684214592, -0.9860479831695557]}, {"bufferView" : 4, "byteOffset" : 20, "componentType" : 5126, "count" : 7767, "type" : "VEC3", "max" : [0.9184023141860962, 0.9973862171173096, 0.9328184723854065], "min" : [-0.995987594127655, -0.9759608507156372, -0.8874321579933167]}, {"bufferView" : 0, "byteOffset" : 499400, "componentType" : 5123, "count" : 16950, "type" : "SCALAR", "max" : [3608], "min" : [0]}, {"bufferView" : 5, "byteOffset" : 0, "componentType" : 5126, "count" : 3609, "type" : "VEC3", "max" : [-0.2302040010690689, -0.1890300065279007, 0.7368450164794922], "min" : [-0.9335790276527405, -0.7937920093536377, 0.05226999893784523]}, {"bufferView" : 5, "byteOffset" : 12, "componentType" : 5126, "count" : 3609, "type" : "VEC2", "max" : [0.9197030067443848, -0.041940998286008835], "min" : [0.04123400151729584, -0.960893988609314]}, {"bufferView" : 5, "byteOffset" : 20, "componentType" : 5126, "count" : 3609, "type" : "VEC3", "max" : [-0.16049990057945251, 0.019600149244070053, 0.9592294692993164], "min" : [-0.9699074029922485, -0.7946406602859497, -0.20610198378562927]}, {"bufferView" : 0, "byteOffset" : 533300, "componentType" : 5123, "count" : 51384, "type" : "SCALAR", "max" : [9382], "min" : [0]}, {"bufferView" : 6, "byteOffset" : 0, "componentType" : 5126, "count" : 9383, "type" : "VEC3", "max" : [0.6763030290603638, 0.6043369770050049, -0.6751739978790283], "min" : [-0.6511150002479553, -0.573108971118927, -0.9997959733009338]}, {"bufferView" : 6, "byteOffset" : 12, "componentType" : 5126, "count" : 9383, "type" : "VEC2", "max" : [0.9389380216598511, -0.025834999978542328], "min" : [-0.005499000195413828, -0.9708759784698486]}, {"bufferView" : 6, "byteOffset" : 20, "componentType" : 5126, "count" : 9383, "type" : "VEC3", "max" : [0.8118728399276733, 0.9967764019966125, 0.8312696218490601], "min" : [-0.9665825366973877, -0.957892119884491, -1.0000008344650269]}, {"bufferView" : 0, "byteOffset" : 636068, "componentType" : 5123, "count" : 34377, "type" : "SCALAR", "max" : [7134], "min" : [0]}, {"bufferView" : 7, "byteOffset" : 0, "componentType" : 5126, "count" : 7135, "type" : "VEC3", "max" : [0.49377700686454773, -0.7237169742584229, 0.277305006980896], "min" : [-0.5060150027275085, -0.9998000264167786, -0.6505770087242126]}, {"bufferView" : 7, "byteOffset" : 12, "componentType" : 5126, "count" : 7135, "type" : "VEC2", "max" : [0.9798880219459534, -0.00015500000154133886], "min" : [0.00015500000154133886, -0.999845027923584]}, {"bufferView" : 7, "byteOffset" : 20, "componentType" : 5126, "count" : 7135, "type" : "VEC3", "max" : [0.7531735897064209, 0.9974984526634216, 0.7703801393508911], "min" : [-0.5032131671905518, -1.0000044107437134, -0.6498807072639465]}, {"bufferView" : 0, "byteOffset" : 704824, "componentType" : 5123, "count" : 77559, "type" : "SCALAR", "max" : [17588], "min" : [0]}, {"bufferView" : 8, "byteOffset" : 0, "componentType" : 5126, "count" : 17589, "type" : "VEC3", "max" : [0.9771729707717896, 0.9935610294342041, 0.6336709856987], "min" : [-0.6693500280380249, -0.6147890090942383, -0.4197410047054291]}, {"bufferView" : 8, "byteOffset" : 12, "componentType" : 5126, "count" : 17589, "type" : "VEC2", "max" : [1.0073339939117432, -0.010906999930739403], "min" : [0.02076300047338009, -1.0295230150222778]}, {"bufferView" : 8, "byteOffset" : 20, "componentType" : 5126, "count" : 17589, "type" : "VEC3", "max" : [0.978325366973877, 0.9967861175537109, 0.8781983256340027], "min" : [-0.6693934798240662, -0.9998071193695068, -0.9221131801605225]}], "asset" : {"generator" : "Aspose.3D 21.1", "version" : "2.0"}, "buffers" : [{"uri" : "buffer.bin", "byteLength" : 14618988}], "bufferViews" : [{"buffer" : 0, "byteOffset" : 0, "byteLength" : 859944, "target" : 34963}, {"buffer" : 0, "byteOffset" : 859948, "byteLength" : 1966080, "byteStride" : 32, "target" : 34962}, {"buffer" : 0, "byteOffset" : 2826032, "byteLength" : 3907296, "byteStride" : 32, "target" : 34962}, {"buffer" : 0, "byteOffset" : 6733332, "byteLength" : 1062912, "byteStride" : 32, "target" : 34962}, {"buffer" : 0, "byteOffset" : 7796248, "byteLength" : 1054080, "byteStride" : 32, "target" : 34962}, {"buffer" : 0, "byteOffset" : 8850332, "byteLength" : 542400, "byteStride" : 32, "target" : 34962}, {"buffer" : 0, "byteOffset" : 9392736, "byteLength" : 1644288, "byteStride" : 32, "target" : 34962}, {"buffer" : 0, "byteOffset" : 11037028, "byteLength" : 1100064, "byteStride" : 32, "target" : 34962}, {"buffer" : 0, "byteOffset" : 12137096, "byteLength" : 2481888, "byteStride" : 32, "target" : 34962}], "meshes" : [{"primitives" : [{"attributes" : {"POSITION" : 1, "TEXCOORD_0" : 2, "NORMAL" : 3}, "indices" : 0, "mode" : 4}]}, {"primitives" : [{"attributes" : {"POSITION" : 5, "TEXCOORD_0" : 6, "NORMAL" : 7}, "indices" : 4, "mode" : 4}]}, {"primitives" : [{"attributes" : {"POSITION" : 9, "TEXCOORD_0" : 10, "NORMAL" : 11}, "indices" : 8, "mode" : 4}]}, {"primitives" : [{"attributes" : {"POSITION" : 13, "TEXCOORD_0" : 14, "NORMAL" : 15}, "indices" : 12, "mode" : 4}]}, {"primitives" : [{"attributes" : {"POSITION" : 17, "TEXCOORD_0" : 18, "NORMAL" : 19}, "indices" : 16, "mode" : 4}]}, {"primitives" : [{"attributes" : {"POSITION" : 21, "TEXCOORD_0" : 22, "NORMAL" : 23}, "indices" : 20, "mode" : 4}]}, {"primitives" : [{"attributes" : {"POSITION" : 25, "TEXCOORD_0" : 26, "NORMAL" : 27}, "indices" : 24, "mode" : 4}]}, {"primitives" : [{"attributes" : {"POSITION" : 29, "TEXCOORD_0" : 30, "NORMAL" : 31}, "indices" : 28, "mode" : 4}]}], "nodes" : [{"mesh" : 0, "name" : "Globe_Mesh.001"}, {"mesh" : 1, "name" : "Land_Mesh.002"}, {"mesh" : 2, "name" : "Land.001_Mesh.001"}, {"mesh" : 3, "name" : "Land.002_Mesh.001"}, {"mesh" : 4, "name" : "Land.003_Mesh.001"}, {"mesh" : 5, "name" : "Land.004_Mesh.001"}, {"mesh" : 6, "name" : "Land.005_Mesh.001"}, {"mesh" : 7, "name" : "Land.006_Mesh.001"}], "scene" : 0, "scenes" : [{"nodes" : [0, 1, 2, 3, 4, 5, 6, 7]}]}