<svg xmlns="http://www.w3.org/2000/svg" width="19.12" height="19.12" viewBox="0 0 19.12 19.12"><defs><style>.a{fill:#fff;}</style></defs><path class="a" d="M9.56,8a9.56,9.56,0,1,0,9.56,9.56A9.558,9.558,0,0,0,9.56,8Zm7.448,5.859h-3.18a11.218,11.218,0,0,0-1.665-4.206A8.363,8.363,0,0,1,17.008,13.859Zm-4.055,3.7a18.22,18.22,0,0,1-.166,2.467H6.333a18.443,18.443,0,0,1,0-4.934h6.453A18.219,18.219,0,0,1,12.952,17.56ZM9.56,9.234c1.037,0,2.367,1.7,3.011,4.626H6.549C7.193,10.934,8.523,9.234,9.56,9.234Zm-2.6.42a11.229,11.229,0,0,0-1.665,4.206H2.112A8.363,8.363,0,0,1,6.958,9.654ZM1.234,17.56a8.274,8.274,0,0,1,.374-2.467H5.1a19.549,19.549,0,0,0-.162,2.467A18.855,18.855,0,0,0,5.1,20.027H1.607A8.274,8.274,0,0,1,1.234,17.56Zm.879,3.7h3.18a11.218,11.218,0,0,0,1.665,4.206,8.363,8.363,0,0,1-4.846-4.206ZM9.56,25.886c-1.037,0-2.367-1.7-3.011-4.626h6.021c-.644,2.926-1.974,4.626-3.011,4.626Zm2.6-.42a11.229,11.229,0,0,0,1.665-4.206h3.18A8.363,8.363,0,0,1,12.162,25.466Zm1.862-5.439a19.548,19.548,0,0,0,.162-2.467,18.855,18.855,0,0,0-.162-2.467h3.489a8.326,8.326,0,0,1,0,4.934Z" transform="translate(0 -8)"/></svg>