<svg xmlns="http://www.w3.org/2000/svg" width="30.934" height="30.934" viewBox="0 0 30.934 30.934"><defs><style>.a{fill:#fff;}</style></defs><path class="a" d="M15.467,8A15.467,15.467,0,1,0,30.934,23.467,15.465,15.465,0,0,0,15.467,8Zm12.049,9.48H22.371a18.15,18.15,0,0,0-2.694-6.8A13.53,13.53,0,0,1,27.517,17.48Zm-6.561,5.987a29.478,29.478,0,0,1-.268,3.992H10.247a29.839,29.839,0,0,1,0-7.983h10.44A29.477,29.477,0,0,1,20.956,23.467ZM15.467,10c1.678,0,3.829,2.75,4.871,7.484H10.6C11.638,12.746,13.79,10,15.467,10Zm-4.21.68a18.168,18.168,0,0,0-2.694,6.8H3.418A13.53,13.53,0,0,1,11.257,10.676ZM2,23.467a13.386,13.386,0,0,1,.6-3.992H8.245a31.628,31.628,0,0,0-.262,3.992,30.506,30.506,0,0,0,.262,3.992H2.6A13.386,13.386,0,0,1,2,23.467Zm1.422,5.987H8.563a18.15,18.15,0,0,0,2.694,6.8,13.53,13.53,0,0,1-7.84-6.8Zm12.049,7.484c-1.678,0-3.829-2.75-4.871-7.484h9.742c-1.042,4.734-3.193,7.484-4.871,7.484Zm4.21-.68a18.168,18.168,0,0,0,2.694-6.8h5.145A13.53,13.53,0,0,1,19.677,36.259Zm3.012-8.8a31.629,31.629,0,0,0,.262-3.992,30.506,30.506,0,0,0-.262-3.992h5.644a13.47,13.47,0,0,1,0,7.983Z" transform="translate(0 -8)"/></svg>