<svg xmlns="http://www.w3.org/2000/svg" width="58.871" height="36.803" viewBox="0 0 58.871 36.803">
  <g id="Group_156" data-name="Group 156" transform="translate(-701.463 -896.031)">
    <g id="Group_143" data-name="Group 143" transform="translate(703 908.479)">
      <path id="Stroke_5" data-name="Stroke 5" d="M294.309-332.554h-4.992" transform="translate(-282.425 338.54)" fill="none" stroke="#fff" stroke-miterlimit="10" stroke-width="2"/>
      <path id="Stroke_5-2" data-name="Stroke 5" d="M341.835-332.554h-4.992" transform="translate(-292.605 338.54)" fill="none" stroke="#fff" stroke-miterlimit="10" stroke-width="2"/>
      <path id="Stroke_17" data-name="Stroke 17" d="M342.666-328.2l6.984-6.094-6.984-5.879" transform="translate(-293.852 340.172)" fill="none" stroke="#fff" stroke-miterlimit="10" stroke-width="2"/>
      <path id="Stroke_17-2" data-name="Stroke 17" d="M287.531-340.172l-6.984,5.879,6.984,6.094" transform="translate(-280.547 340.172)" fill="none" stroke="#fff" stroke-miterlimit="10" stroke-width="2"/>
    </g>
    <path id="Path_134" data-name="Path 134" d="M322.355-322.765c.858-.93,1.755-1.825,2.6-2.661a1.382,1.382,0,0,0,.424-1.065q-.009-6.011-.006-12.023v-4.809c0-1.017-.229-1.252-1.228-1.256-.706,0-1.415,0-2.142,0h-1.271l0-1.353c0-.8,0-1.575,0-2.353a.859.859,0,0,0-.945-.965c-.189-.006-.379,0-.567,0l-3.157,0v-.853c0-.365,0-.707,0-1.049-.009-.7-.327-1.029-1-1.033q-2.194-.015-4.388,0c-.7,0-1,.307-1.022,1.011-.01.359-.008.717-.006,1.095l0,.829h-3.55c-.414,0-1.138.013-1.138.013s.015.671.015,1.1l0,10.553h-2.346c-.419,0-1.918,0-2.333,0l.008,4.562q0,3.3-.008,6.6a1.235,1.235,0,0,0,.517,1.085c.78.611,1.553,1.231,2.325,1.851.829.665,1.658,1.329,2.494,1.984a1.24,1.24,0,0,1,.515,1.1c-.019,1.348-.014,2.7,0,4.045a.994.994,0,0,0,.308.791,1,1,0,0,0,.838.154q.833-.156,1.665-.315l3.5-.667q4.246-.811,8.49-1.625c.761-.147.949-.373.952-1.153,0-.256,0-.513,0-.769-.005-.575-.012-1.168.024-1.756A1.81,1.81,0,0,1,322.355-322.765Zm-1.792-.7a1.268,1.268,0,0,0-.409,1c.015.587.012,1.174.009,1.778l0,1.022-12.288,2.354,0-2.533c0-.138,0-.275,0-.412,0-.278,0-.511,0-.71,0-.983,0-.983-.794-1.613-.153-.121-.332-.262-.54-.431-.644-.524-1.293-1.041-1.942-1.559-.7-.561-1.407-1.122-2.105-1.692a1.194,1.194,0,0,1-.446-.81c-.018-2.357-.015-4.715-.012-7.072l0-1.548c0-.075.339-.091.339-.091h2.6v3.744c0,.91,0,2.729,0,2.729l1.73.007,0-18.184h2.875l.034.421c.012.129.024.263.025.4v3.913c0,3.26.1,10.194.1,10.194l1.64-.093s0-2.319,0-3.48l0-14.268h2.936v2.592q0,7.445,0,14.89c0,.188,1.737.051,1.737.051.009-1.194.007-2.171.005-3.366l0-11.247h2.873l.029.429c.01.123.019.244.019.366v14.032a13.405,13.405,0,0,0,1.749-.038c.009-1.215.006-2.43,0-3.645l0-6.482h2.84l.023.453c.006.124.013.249.014.375v2.416q0,6.211-.013,12.421a1.647,1.647,0,0,1-.435,1.025C322.3-325.194,321.4-324.3,320.563-323.463Z" transform="translate(418.224 1248.226)" fill="#fff"/>
  </g>
</svg>
