<svg xmlns="http://www.w3.org/2000/svg" width="473.163" height="384.896" viewBox="0 0 473.163 384.896">
  <g id="Group_116" data-name="Group 116" transform="translate(1.186 1.898)" opacity="0.224">
    <path id="Stroke_1" d="M4.466,0V68.219H0V0Z" transform="matrix(0.94, -0.342, 0.342, 0.94, 27.248, 228.512)" fill="#fff" stroke="#000" stroke-width="2"/>
    <path id="Stroke_3" d="M4.466,0V68.219H0V0Z" transform="translate(91.986 191.763) rotate(-13)" fill="#fff" stroke="#000" stroke-width="2"/>
    <path id="Stroke_5_Copy_2" data-name="Stroke_5 Copy 2" d="M4.466,0l.011,68.219H.011L0,0Z" transform="translate(442.386 123.669)" fill="#fff" stroke="#000" stroke-width="2"/>
    <path id="Stroke_7" d="M31.768,0l2.445,3.737L7.53,21.193,0,21.183Z" transform="translate(160.92 40.346)" fill="#fff" stroke="#000" stroke-width="2"/>
    <path id="Stroke_7_Copy" data-name="Stroke_7 Copy" d="M7.53.408,41.914,28.687l-7.564-.438L0,0Z" transform="translate(140.244 174.395)" fill="#fff" stroke="#000" stroke-width="2"/>
    <path id="Stroke_7_Copy_2" data-name="Stroke_7 Copy 2" d="M37.3.438,2.42,22.925,0,19.172,29.731,0Z" transform="translate(155.454 264.422)" fill="#fff" stroke="#000" stroke-width="2"/>
    <path id="Stroke_9" d="M20.412,0l4.2,1.507L0,70.172.191,56.4Z" transform="translate(94.638 39.589)" fill="#fff" stroke="#000" stroke-width="2"/>
    <path id="Stroke_9_Copy" data-name="Stroke_9 Copy" d="M22.5,70.114,0,1.39,4.244,0l18.45,56.345Z" transform="translate(43.166 98.936) rotate(38)" fill="#fff" stroke="#000" stroke-width="2"/>
    <path id="Stroke_11" d="M23.727,69.8,0,1.465,4.219,0l19.7,56.731Z" transform="translate(232.945 156.115)" fill="#fff" stroke="#000" stroke-width="2"/>
    <path id="Stroke_11_Copy" data-name="Stroke_11 Copy" d="M21.774,0l4.175,1.587L0,69.863.188,56.792Z" transform="translate(297.272 82.603)" fill="#fff" stroke="#000" stroke-width="2"/>
    <path id="Stroke_13" d="M.44,0,18.384,70.134l-4.327,1.107L0,16.3Z" transform="translate(311.657 284.319)" fill="#fff" stroke="#000" stroke-width="2"/>
    <path id="Stroke_13_Copy" data-name="Stroke_13 Copy" d="M.138,55.058,17.425,0l-.44,16.3L0,70.405Z" transform="translate(245.186 257.361)" fill="#fff" stroke="#000" stroke-width="2"/>
    <path id="Stroke_13_Copy_2" data-name="Stroke_13 Copy 2" d="M0,0,16.271,55.286l-.138,15.348L.276,16.76Z" transform="translate(110.842 312.083)" fill="#fff" stroke="#000" stroke-width="2"/>
    <path id="Stroke_13_Copy_3" data-name="Stroke_13 Copy 3" d="M0,70.356,18.2,0l.276,16.76L4.324,71.474Z" transform="translate(226.799 57.89)" fill="#fff" stroke="#000" stroke-width="2"/>
    <path id="Stroke_15" d="M0,70.088V0L4.464,13.783l0,56.306Z" transform="translate(330.017 174.395)" fill="#fff" stroke="#000" stroke-width="2"/>
    <path id="Stroke_15_Copy" data-name="Stroke_15 Copy" d="M0,0,39.793,54.974l4.468,14.807-39.8-56Z" transform="translate(375.913 306.787)" fill="#fff" stroke="#000" stroke-width="2"/>
    <path id="Stroke_15_Copy_2" data-name="Stroke_15 Copy 2" d="M0,54.229,0,0H4.468V68.016Z" transform="translate(360.166 37.085) rotate(-30)" fill="#fff" stroke="#000" stroke-width="2"/>
    <path id="Stroke_17" d="M41.789,0l2.876,3.417L6.861,35.232,0,35.171Z" transform="translate(32.564 5.094)" fill="#fff" stroke="#000" stroke-width="2"/>
    <path id="Stroke_17_Copy" data-name="Stroke_17 Copy" d="M6.861.061,44.695,33.074l-2.936,3.365L0,0Z" transform="translate(155.964 329.128)" fill="#fff" stroke="#000" stroke-width="2"/>
    <path id="Path_2" data-name="Path 2" d="M.023,0,0,59.3l5.273-4.041V3.39Z" transform="translate(375.16 163.395) rotate(-21)" fill="#fff" stroke="#000" stroke-miterlimit="10" stroke-width="2"/>
    <path id="Path_3" data-name="Path 3" d="M0,0V5.141L41.382,34.213l8.381-.1Z" transform="translate(270.871)" fill="#fff" stroke="#000" stroke-miterlimit="10" stroke-width="2"/>
    <path id="Path_3_Copy" data-name="Path 3 Copy" d="M0,15.611V9.021L41.975-20.4h7.765Z" transform="translate(419.15 239.861)" fill="#fff" stroke="#000" stroke-miterlimit="10" stroke-width="2"/>
  </g>
</svg>
