<svg xmlns="http://www.w3.org/2000/svg" width="19.503" height="19.503" viewBox="0 0 19.503 19.503">
  <g id="Group_158" data-name="Group 158" transform="translate(-192 -353.897)">
    <g id="Path_135" data-name="Path 135" transform="translate(192 353.897)">
      <path d="M 9.751678466796875 19.00335884094238 C 4.650288581848145 19.00335884094238 0.4999984800815582 14.85306835174561 0.4999984800815582 9.751678466796875 C 0.4999984800815582 4.650288581848145 4.650288581848145 0.4999984800815582 9.751678466796875 0.4999984800815582 C 14.85306835174561 0.4999984800815582 19.00335884094238 4.650288581848145 19.00335884094238 9.751678466796875 C 19.00335884094238 14.85306835174561 14.85306835174561 19.00335884094238 9.751678466796875 19.00335884094238 Z" stroke="none"/>
      <path d="M 9.751678466796875 0.9999980926513672 C 4.92598819732666 0.9999980926513672 0.9999980926513672 4.92598819732666 0.9999980926513672 9.751678466796875 C 0.9999980926513672 14.57736778259277 4.92598819732666 18.50335884094238 9.751678466796875 18.50335884094238 C 14.57736778259277 18.50335884094238 18.50335884094238 14.57736778259277 18.50335884094238 9.751678466796875 C 18.50335884094238 4.92598819732666 14.57736778259277 0.9999980926513672 9.751678466796875 0.9999980926513672 M 9.751678466796875 -1.9073486328125e-06 C 15.13737869262695 -1.9073486328125e-06 19.50335884094238 4.365978240966797 19.50335884094238 9.751678466796875 C 19.50335884094238 15.13737869262695 15.13737869262695 19.50335884094238 9.751678466796875 19.50335884094238 C 4.365978240966797 19.50335884094238 -1.9073486328125e-06 15.13737869262695 -1.9073486328125e-06 9.751678466796875 C -1.9073486328125e-06 4.365978240966797 4.365978240966797 -1.9073486328125e-06 9.751678466796875 -1.9073486328125e-06 Z" stroke="none" fill="#fff"/>
    </g>
    <circle id="Ellipse_9" data-name="Ellipse 9" cx="3.5" cy="3.5" r="3.5" transform="translate(198 359.897)" fill="#fff"/>
  </g>
</svg>
