<?xml version="1.0" standalone="no"?>
<!DOCTYPE svg PUBLIC "-//W3C//DTD SVG 1.1//EN" "http://www.w3.org/Graphics/SVG/1.1/DTD/svg11.dtd" >
<svg xmlns="http://www.w3.org/2000/svg" xmlns:xlink="http://www.w3.org/1999/xlink" version="1.1">
<metadata>
Created by FontForge 20190801 at Sun Feb 25 04:42:47 2018
 By Jimmy Wärting
Copyright (c) 2003 by Murasu Systems Sdn. Bhd. Malaysia. All rights reserved.
</metadata>
<defs>
<font id="OriyaMN-Bold" horiz-adv-x="0" >
  <font-face 
    font-family="Oriya MN"
    font-weight="400"
    font-stretch="normal"
    units-per-em="2048"
    panose-1="0 0 5 0 0 0 0 0 0 0"
    ascent="1546"
    descent="-502"
    x-height="1024"
    cap-height="1356"
    bbox="-1286 -731 2518 1820"
    underline-thickness="50"
    underline-position="-100"
    unicode-range="U+000D-FB01"
  />
    <missing-glyph />
    <glyph glyph-name="fi" unicode="fi" horiz-adv-x="1376" 
d="M732 1312q-7 23 -19.5 44.5t-28.5 38.5t-35 27t-39 10q-42 0 -65 -41.5t-23 -125.5v-241h703v-1024h-311v899h-392v-899h-310v899h-200v125h200v114q0 79 31.5 152.5t88 130.5t134 91t170.5 34q36 0 66 -2t57.5 -8.5t55.5 -19t60 -33.5zM914 1381q0 31 13 59t36 48t53 32
t65 12t65.5 -12t53 -32t35.5 -48t13 -59t-13 -58.5t-35.5 -47.5t-53 -32t-65.5 -12t-65 12t-53 32t-36 47.5t-13 58.5z" />
    <glyph glyph-name="exclam" unicode="!" horiz-adv-x="567" 
d="M251 359q-15 130 -29 221.5t-26.5 158.5t-23.5 115t-18.5 90.5t-12 86.5t-4.5 103q0 53 14 95t37.5 71.5t53 45t59.5 15.5q31 0 60.5 -15.5t52.5 -45t37 -71.5t14 -95q0 -59 -4.5 -103t-12 -86.5t-18 -90.5t-23 -115t-26.5 -158.5t-28 -221.5h-102zM164 116
q0 28 10.5 53.5t29.5 44t43.5 29.5t53.5 11t54.5 -11t44 -29.5t29.5 -44t11 -53.5q0 -29 -11 -54t-29.5 -43t-44 -28.5t-54.5 -10.5t-53.5 10.5t-43.5 28.5t-29.5 43t-10.5 54z" />
    <glyph glyph-name="quotedbl" unicode="&#x22;" horiz-adv-x="752" 
d="M177 762q-7 58 -26 113t-39.5 109.5t-36.5 110t-16 114.5q0 29 12 56.5t32.5 48.5t48 34t58.5 13t58 -13t47.5 -34t32 -48.5t11.5 -56.5q0 -59 -15.5 -114.5t-36 -110t-39 -109.5t-24.5 -113h-67zM531 762q-7 58 -26 113t-39.5 109.5t-36 110t-15.5 114.5q0 29 11.5 56.5
t32 48.5t47.5 34t58 13t58.5 -13t47.5 -34t32 -48.5t12 -56.5q0 -59 -16 -114.5t-36 -110t-39 -109.5t-26 -113h-65z" />
    <glyph glyph-name="numbersign" unicode="#" horiz-adv-x="1108" 
d="M914 884h165v-122h-189l-57 -268h246v-124h-272l-85 -390h-198l83 390h-219l-84 -390h-198l86 390h-163v124h188l55 268h-243v122h271l72 324h195l-69 -324h219l72 324h193zM415 494h220l59 268h-220z" />
    <glyph glyph-name="dollar" unicode="$" horiz-adv-x="1047" 
d="M498 -20h-49q-47 3 -96.5 14t-98 30t-94.5 44.5t-86 57.5v241h170q7 -61 30.5 -107.5t57.5 -79.5t76.5 -51.5t89.5 -23.5v461q-11 6 -23 14t-26 16q-67 44 -130 87.5t-111.5 94t-77.5 110t-29 135.5q0 61 26 117t72.5 100.5t110 75t139.5 41.5h49v234h114v-234h13
q49 -5 92 -15.5t82.5 -24t77.5 -30t77 -32.5v-317h-136q-9 65 -28.5 114.5t-47 85t-61 57.5t-69.5 32v-433l23 -15q62 -42 127 -89t117.5 -99.5t86 -112.5t33.5 -128q0 -69 -27.5 -131t-77.5 -110.5t-120.5 -82t-155.5 -46.5h-6v-202h-114v202zM366 1080q0 -35 12.5 -65
t32 -55.5t43 -46.5t44.5 -37v352q-39 -7 -64.5 -23.5t-40.5 -37.5t-21 -44t-6 -43zM733 287q0 31 -9.5 59.5t-26 53.5t-38.5 47t-47 41v-368q54 26 87.5 72.5t33.5 94.5z" />
    <glyph glyph-name="percent" unicode="%" horiz-adv-x="1800" 
d="M478 -20h-210l1058 1381h212zM72 989q0 77 28.5 144.5t78 118t115.5 80t141 29.5t141 -29.5t115 -80t77.5 -118t28.5 -144.5t-28.5 -144t-77.5 -117.5t-115 -79.5t-141 -29t-141 29t-115.5 79.5t-78 117.5t-28.5 144zM289 989q0 -54 11.5 -101t31.5 -82t46.5 -55.5
t56.5 -20.5t56.5 20.5t46 55.5t31 82t11.5 101t-11.5 101t-31 82t-46 55.5t-56.5 20.5t-56.5 -20.5t-46.5 -55.5t-31.5 -82t-11.5 -101zM1024 351q0 76 28.5 144t77.5 118t114.5 79.5t140.5 29.5t141 -29.5t115 -79.5t77.5 -118t28.5 -144q0 -78 -28.5 -145.5t-77.5 -117.5
t-115 -79t-141 -29t-140.5 29t-114.5 79t-77.5 117.5t-28.5 145.5zM1240 351q0 -54 11.5 -101.5t31 -82.5t46 -55.5t56.5 -20.5t57 20.5t46.5 55.5t31 82.5t11.5 101.5t-11.5 101t-31 82t-46.5 55t-57 20t-56.5 -20t-46 -55t-31 -82t-11.5 -101z" />
    <glyph glyph-name="ampersand" unicode="&#x26;" horiz-adv-x="1624" 
d="M1229 -20q-76 0 -155.5 29.5t-158.5 82.5q-85 -54 -185.5 -83t-228.5 -29q-102 0 -182 23t-135 63.5t-83.5 97t-28.5 122.5q0 73 29.5 133t78.5 110.5t112.5 94t132.5 83.5q-30 76 -47 150t-17 143q0 68 28.5 133t81 115.5t126 81.5t164.5 31q62 0 124.5 -16t112 -49.5
t80.5 -87t31 -128.5q0 -67 -32.5 -122.5t-85.5 -104t-120.5 -91t-137.5 -82.5q41 -91 95 -177t117 -159q45 46 85.5 95.5t74.5 99t61 95.5t45 85l153 -102q-70 -109 -140.5 -210t-152.5 -185q51 -39 102.5 -61t100.5 -22q43 0 75.5 13.5t57 37t43.5 56.5t36 72l120 -53
q-46 -151 -139 -218t-238 -67zM557 139q56 0 109.5 18t106.5 50q-77 72 -144.5 157t-121.5 177q-65 -48 -105.5 -101t-40.5 -118q0 -36 11 -69t34.5 -58.5t60.5 -40.5t90 -15zM642 1025q0 -40 7 -84t21 -92q44 27 81.5 56t65 61t43 67t15.5 75q0 36 -7.5 60t-21 39t-32.5 21
t-41 6q-27 0 -51 -16t-42 -43.5t-28 -66t-10 -83.5z" />
    <glyph glyph-name="quotesingle" unicode="'" horiz-adv-x="379" 
d="M161 762q-7 58 -26.5 113t-39.5 109.5t-36 110t-16 114.5q0 29 11.5 56.5t32 48.5t47.5 34t58 13q32 0 59.5 -13t48 -34t32 -48.5t11.5 -56.5q0 -59 -16 -114.5t-36 -110t-39.5 -109.5t-25.5 -113h-65z" />
    <glyph glyph-name="parenleft" unicode="(" horiz-adv-x="733" 
d="M734 -420q-146 52 -267 145.5t-208 213t-135 258t-48 279.5q0 93 22 187t62.5 183t99 171t131.5 151.5t159.5 124.5t183.5 90v-87q-105 -69 -174 -161.5t-110 -200t-58 -224.5t-17 -234t14 -232t53.5 -220t109.5 -196.5t182 -160.5v-87z" />
    <glyph glyph-name="parenright" unicode=")" horiz-adv-x="733" 
d="M14 -333q112 69 182.5 160.5t110 196.5t53.5 220t14 232t-17 234t-58.5 224.5t-111 200t-173.5 161.5v87q96 -35 182.5 -90t159.5 -124.5t131 -151.5t98.5 -171t62.5 -183t22 -187q0 -94 -21.5 -187.5t-62 -181.5t-98.5 -168.5t-130.5 -148.5t-159.5 -121.5t-184 -88.5
v87z" />
    <glyph glyph-name="asterisk" unicode="*" horiz-adv-x="846" 
d="M529 955q22 -6 52 -11t62 -12.5t62.5 -18t54.5 -27t39 -40t15 -56.5q0 -23 -9.5 -39.5t-25 -27t-35.5 -15.5t-40 -5q-29 0 -62.5 20.5t-66 49t-61.5 60t-48 54.5q7 -23 19 -53.5t24 -62.5t20.5 -62t8.5 -51q0 -48 -28.5 -79t-82.5 -31q-51 0 -79 31t-28 79q0 21 8 51
t19.5 62t23 62.5t18.5 53.5q-19 -23 -47.5 -54.5t-61 -60t-66 -49t-61.5 -20.5q-21 0 -40.5 5t-35 15.5t-25 27t-9.5 39.5q0 49 31.5 78t76.5 45.5t93.5 24.5t82.5 17q-34 9 -82.5 17t-93.5 24t-76.5 44.5t-31.5 78.5q0 22 9.5 39t25 28t35 16.5t40.5 5.5q28 0 61.5 -20.5
t66 -49.5t61 -61t47.5 -54q-7 23 -18.5 53.5t-23 62t-19.5 61.5t-8 51q0 48 28 79t79 31q54 0 82.5 -31t28.5 -79q0 -21 -8.5 -51t-20.5 -61.5t-24 -62t-19 -53.5q19 22 48 54t61.5 61t66 49.5t62.5 20.5q20 0 40 -5.5t35.5 -16.5t25 -28t9.5 -39q0 -33 -15 -56.5t-39 -40
t-54.5 -27t-62.5 -17.5t-62 -12t-52 -11z" />
    <glyph glyph-name="plus" unicode="+" horiz-adv-x="1135" 
d="M437 988h185v-379h381v-170h-381v-382h-185v382h-380v170h380v379z" />
    <glyph glyph-name="comma" unicode="," horiz-adv-x="508" 
d="M86 -227q44 12 82 33t66.5 47.5t45 57.5t16.5 62q0 12 -0.5 19.5t-1.5 7.5q-9 0 -18 -4.5t-19.5 -10.5t-23.5 -10.5t-29 -4.5q-24 0 -45 10.5t-37.5 28.5t-26 42.5t-9.5 53.5q0 30 12.5 56t33.5 45t49.5 29.5t61.5 10.5q41 0 76.5 -17.5t62 -48t42 -71.5t15.5 -87
q0 -71 -28.5 -131t-77 -104.5t-112.5 -72t-135 -31.5v90z" />
    <glyph glyph-name="hyphen" unicode="-" horiz-adv-x="655" 
d="M618 605v-160h-569v160h569z" />
    <glyph glyph-name="period" unicode="." horiz-adv-x="436" 
d="M109 116q0 28 10.5 53.5t29.5 44t43.5 29.5t53.5 11t54.5 -11t44 -29.5t29.5 -44t11 -53.5q0 -29 -11 -54t-29.5 -43t-44 -28.5t-54.5 -10.5t-53.5 10.5t-43.5 28.5t-29.5 43t-10.5 54z" />
    <glyph glyph-name="slash" unicode="/" horiz-adv-x="614" 
d="M433 1361h192l-443 -1391h-192z" />
    <glyph glyph-name="zero" unicode="0" horiz-adv-x="1143" 
d="M498 -26q-100 0 -182.5 44.5t-142 124t-92 189.5t-32.5 242q0 119 32.5 225t92 185.5t142 126t182.5 46.5q101 0 184 -46.5t142 -126t91 -185.5t32 -225q0 -132 -32 -242t-91 -189.5t-142 -124t-184 -44.5zM498 71q44 0 76.5 41t53.5 110.5t31.5 160.5t10.5 191
q0 99 -10.5 187t-31.5 154.5t-53.5 105.5t-76.5 39t-76 -39t-53 -105.5t-31.5 -154.5t-10.5 -187q0 -100 10.5 -191t31.5 -160.5t53 -110.5t76 -41z" />
    <glyph glyph-name="one" unicode="1" horiz-adv-x="1143" 
d="M416 0v870h-273v56q85 6 143.5 23.5t98.5 46t65.5 67.5t45.5 90h170v-1153h-250z" />
    <glyph glyph-name="two" unicode="2" horiz-adv-x="1143" 
d="M66 0v54q123 115 212 203t151 155.5t100.5 117t59.5 89t28.5 72t7.5 65.5q0 45 -12 86.5t-36 73.5t-59 51t-81 19q-38 0 -74 -15.5t-66 -42.5t-51 -62.5t-29 -75.5h-123q6 76 40.5 143t88.5 117t124 78.5t146 28.5q96 0 168.5 -26t121.5 -70t73.5 -102t24.5 -122
q0 -61 -29 -127.5t-90 -146t-155.5 -176.5t-224.5 -220h562l-102 -167h-776z" />
    <glyph glyph-name="three" unicode="3" horiz-adv-x="1143" 
d="M294 606q62 6 113.5 26t88.5 51.5t57.5 73t20.5 90.5q0 32 -11 59.5t-30.5 48t-46.5 32.5t-60 12q-24 0 -52.5 -12t-56.5 -32.5t-54 -48.5t-45 -59l-101 45q20 55 53.5 103.5t79.5 84.5t105.5 56.5t132.5 20.5q70 0 131 -19t106 -52.5t71 -80t26 -100.5
q0 -24 -11.5 -53.5t-32.5 -60.5t-49.5 -61.5t-62.5 -56.5q46 -20 85.5 -52.5t69 -71.5t46 -82.5t16.5 -86.5q0 -102 -41.5 -178t-114.5 -126.5t-172 -76t-213 -25.5q-113 0 -176.5 31t-63.5 81q0 24 13.5 39.5t33.5 25.5t43.5 14t44.5 4q43 0 75.5 -12.5t58.5 -27t48.5 -27
t45.5 -12.5q46 0 81.5 17t59.5 45.5t36.5 65.5t12.5 77q0 52 -21.5 96t-66 76.5t-112.5 51t-161 18.5v69z" />
    <glyph glyph-name="four" unicode="4" horiz-adv-x="1143" 
d="M550 282h-519v122l589 753h180v-713h154v-162h-154v-282h-250v282zM252 444h298v388z" />
    <glyph glyph-name="five" unicode="5" horiz-adv-x="1143" 
d="M810 954h-354l-58 -107q96 -9 184 -45t156 -94t108.5 -136t40.5 -172q0 -88 -41.5 -165.5t-113 -135.5t-168.5 -91.5t-208 -33.5q-56 0 -102.5 10.5t-79.5 28.5t-51.5 41.5t-18.5 49.5q0 20 10.5 35t28 25t39.5 15t46 5q37 0 65.5 -12.5t54 -27.5t52.5 -27.5t61 -12.5
q44 0 82.5 19.5t67 52.5t45 77.5t16.5 95.5q0 72 -39 129.5t-111 98.5t-174 63t-227 22l256 469h523z" />
    <glyph glyph-name="six" unicode="6" horiz-adv-x="1143" 
d="M896 1091q-90 -8 -171.5 -42t-149 -87t-118 -121.5t-78.5 -146.5q39 17 85 26t105 9q74 0 140 -27t115.5 -74t78.5 -110.5t29 -135.5q0 -84 -34 -158.5t-93 -130t-138 -87.5t-169 -32q-96 0 -176 36t-137.5 97.5t-89.5 144.5t-32 178q0 98 26.5 190t77.5 172.5t123.5 148
t165.5 115.5t203.5 74.5t236.5 26.5v-66zM483 617q-24 0 -60 -14.5t-71 -34.5q-6 -37 -9 -74t-3 -71q0 -70 10.5 -133.5t33 -112t56 -77.5t80.5 -29q30 0 57 18.5t47.5 51t32 75.5t11.5 92q0 64 -14.5 120.5t-39.5 98.5t-58.5 66t-72.5 24z" />
    <glyph glyph-name="seven" unicode="7" horiz-adv-x="1143" 
d="M895 1083l-405 -1109h-198l359 980h-536l63 177h717v-48z" />
    <glyph glyph-name="eight" unicode="8" horiz-adv-x="1143" 
d="M488 1157q84 0 154.5 -20t121.5 -55t80 -84t29 -106q0 -32 -19 -69t-51.5 -73.5t-76 -69t-92.5 -56.5q68 -44 118 -90t83 -91t49.5 -86t16.5 -74q0 -63 -31.5 -119t-85.5 -98.5t-125.5 -67t-152.5 -24.5q-86 0 -158.5 22t-125.5 61t-83 91.5t-30 114.5q0 50 17 92
t47.5 79.5t73.5 71.5t95 68q-61 44 -102.5 79.5t-67 70t-36.5 71t-11 81.5q0 58 28.5 109t78 89t115.5 60.5t141 22.5zM352 922q0 -35 15.5 -66t40 -59.5t56.5 -54t65 -48.5q55 48 86.5 103.5t31.5 130.5q0 28 -11 52t-31 42t-48.5 28t-64.5 10q-31 0 -57 -11.5t-44.5 -31
t-28.5 -44t-10 -51.5zM436 501q-51 -54 -72.5 -115t-21.5 -110q0 -42 13 -79.5t35.5 -65.5t53 -44t65.5 -16t66.5 11t55 29.5t37.5 43t14 52.5q0 23 -10.5 50.5t-38 62.5t-75.5 79.5t-122 101.5z" />
    <glyph glyph-name="nine" unicode="9" horiz-adv-x="1143" 
d="M91 41q83 7 163 41.5t148.5 87.5t121.5 121t83 142q-38 -17 -84 -26t-103 -9q-83 0 -149 30t-112.5 79.5t-71 114.5t-24.5 134q0 83 34 156t93 127.5t138.5 86t169.5 31.5t168.5 -35.5t137 -97t92.5 -144.5t34 -177q0 -101 -30 -194t-84.5 -174t-131 -147.5t-170 -114
t-200.5 -73.5t-223 -26v67zM505 512q31 0 68.5 15t66.5 37q5 34 9 76t4 83q0 69 -14 130t-38.5 107t-58 73t-71.5 27t-65 -20.5t-44.5 -53.5t-25.5 -75.5t-8 -86.5q0 -68 10 -125t31.5 -98.5t55 -65t80.5 -23.5z" />
    <glyph glyph-name="colon" unicode=":" horiz-adv-x="471" 
d="M109 116q0 28 10.5 53.5t29.5 44t44 29.5t54 11q28 0 53.5 -11t45 -29.5t30.5 -44t11 -53.5q0 -29 -11 -54t-30.5 -43t-45 -28.5t-53.5 -10.5q-29 0 -54 10.5t-44 28.5t-29.5 43t-10.5 54zM109 794q0 28 10.5 53.5t29.5 44t44 29.5t54 11q28 0 53.5 -11t45 -29.5
t30.5 -44t11 -53.5q0 -29 -11 -54t-30.5 -43.5t-45 -29t-53.5 -10.5q-29 0 -54 10.5t-44 29t-29.5 43.5t-10.5 54z" />
    <glyph glyph-name="semicolon" unicode=";" horiz-adv-x="532" 
d="M135 794q0 28 10.5 53.5t29.5 44t43.5 29.5t53.5 11q28 0 53.5 -11t44.5 -29.5t30 -44t11 -53.5q0 -29 -11 -54t-30 -43.5t-44.5 -29t-53.5 -10.5q-29 0 -53.5 10.5t-43.5 29t-29.5 43.5t-10.5 54zM109 -222q44 12 82 33.5t66.5 48t45 57t16.5 61.5q0 26 -2 26
q-9 0 -18 -4.5t-19.5 -9.5t-23.5 -9.5t-29 -4.5q-24 0 -45 10t-37.5 28t-26 42.5t-9.5 53.5q0 31 12.5 57t33.5 45t49.5 29.5t61.5 10.5q41 0 76.5 -17.5t62 -48.5t42 -72t15.5 -87q0 -70 -28.5 -130.5t-77 -105.5t-112.5 -72.5t-135 -31.5v91z" />
    <glyph glyph-name="less" unicode="&#x3c;" horiz-adv-x="1184" 
d="M1137 1021v-152l-793 -345q96 -41 196.5 -83.5t201.5 -85t200.5 -85t194.5 -81.5v-151l-1071 446v74z" />
    <glyph glyph-name="equal" unicode="=" horiz-adv-x="1229" 
d="M90 737h1073v-128h-1073v128zM90 439h1073v-129h-1073v129z" />
    <glyph glyph-name="greater" unicode="&#x3e;" horiz-adv-x="1184" 
d="M1134 485l-1071 -446v151l794 335l-794 345v152l1071 -463v-74z" />
    <glyph glyph-name="question" unicode="?" horiz-adv-x="983" 
d="M417 322q-1 22 -2 40.5t-1 37.5q0 88 15.5 148t39 104.5t51 80t51 75t39 89t15.5 122.5q0 56 -13 97.5t-36 68.5t-55 40.5t-70 13.5q-63 0 -103.5 -27.5t-40.5 -69.5q0 -22 10 -39t22.5 -33.5t22.5 -33.5t10 -39q0 -26 -10.5 -46.5t-29.5 -35.5t-44 -23t-55 -8
q-35 0 -65 12.5t-53 34t-36 52t-13 66.5q0 84 40 143.5t103 97t139.5 54.5t150.5 17q98 0 181.5 -22.5t144 -65.5t94.5 -104t34 -138q0 -53 -17.5 -95.5t-45.5 -78t-64.5 -67.5t-74 -64t-74 -67t-64.5 -77.5t-45.5 -94.5t-17.5 -118v-23.5t2 -23.5h-135zM334 116
q0 28 12 53.5t32.5 44t48 29.5t59.5 11q31 0 58.5 -11t48 -29.5t32.5 -44t12 -53.5q0 -29 -12 -54t-32.5 -43t-48 -28.5t-58.5 -10.5q-32 0 -59.5 10.5t-48 28.5t-32.5 43t-12 54z" />
    <glyph glyph-name="at" unicode="@" horiz-adv-x="1892" 
d="M1162 932h251q-60 -206 -107 -372q-20 -71 -39 -140.5t-34 -126t-24 -94.5t-9 -47q0 -20 5 -32t12.5 -18.5t15.5 -8.5t13 -2q28 0 64.5 22.5t74.5 62t74.5 94.5t65.5 120t46.5 138t17.5 148q0 83 -22 158.5t-61.5 140.5t-92.5 117.5t-115.5 89.5t-131 57t-138.5 20
q-115 0 -217 -29t-187 -81.5t-152.5 -126.5t-114.5 -163.5t-72 -192.5t-25 -214q0 -146 50 -280t142 -237t220.5 -164.5t286.5 -61.5q139 0 254 41.5t206 112.5t158.5 165t111.5 200h158q-64 -145 -149 -261t-195 -197.5t-248 -125.5t-307 -44q-200 0 -359.5 68
t-271.5 185.5t-171.5 275t-59.5 336.5q0 123 31.5 237t90 213.5t141.5 181.5t187.5 140.5t227 91t259.5 32.5q101 0 194.5 -22.5t175 -65t148 -103t114.5 -137.5t74 -169t26 -196q0 -93 -22.5 -179.5t-62 -163t-93.5 -140t-116 -109t-129.5 -71t-134.5 -25.5q-51 0 -95 6
t-76.5 23t-51 47t-19.5 77q-32 -33 -66 -61t-71 -48.5t-76.5 -32t-81.5 -11.5q-58 0 -100.5 19t-70 52t-41 76.5t-13.5 92.5q0 98 22.5 188.5t62 170t94 144.5t119 112t136.5 72.5t147 25.5q41 0 74 -15.5t58 -40.5zM733 139q41 0 82 28.5t77.5 75.5t68 107.5t54.5 125
t36 128t13 115.5q0 22 -6.5 39.5t-17 29.5t-23 18.5t-24.5 6.5q-45 0 -87.5 -23t-81 -62.5t-70.5 -94t-55.5 -117t-36.5 -130.5t-13 -136q0 -16 4.5 -35.5t15 -36t26 -28t38.5 -11.5z" />
    <glyph glyph-name="A" unicode="A" horiz-adv-x="1475" 
d="M819 1384l636 -1384h-340l-170 370h-527l-178 -370h-226l661 1384h144zM481 496h408l-201 438z" />
    <glyph glyph-name="B" unicode="B" horiz-adv-x="1456" 
d="M170 1356h582q117 0 214.5 -25t167.5 -70.5t109 -109.5t39 -142q0 -48 -10.5 -89t-34.5 -77t-63.5 -69t-97.5 -67q60 -19 110 -50.5t86.5 -74t57 -94t20.5 -109.5q0 -80 -36.5 -149t-104 -120t-162 -80.5t-209.5 -29.5h-668v1356zM503 768h219q53 0 94.5 16.5t70 46
t43.5 70.5t15 89q0 53 -19 97t-58 75.5t-99 49t-142 17.5h-124v-461zM503 139h184q81 0 140 17.5t97.5 48t57 73t18.5 92.5q0 57 -17 105.5t-55.5 84.5t-101 56t-152.5 20h-171v-497z" />
    <glyph glyph-name="C" unicode="C" horiz-adv-x="1677" 
d="M509 679q0 -132 40 -233t106 -169.5t152 -104t179 -35.5q71 0 132.5 24.5t115 66.5t100.5 97t90 116l139 -102q-45 -72 -108.5 -139t-142.5 -118t-172 -81.5t-197 -30.5q-175 0 -322.5 51t-254.5 144t-167 223.5t-60 290.5q0 155 57 285t160.5 224.5t248 147.5t319.5 53
q117 0 214 -27.5t176.5 -76t142 -116t110.5 -148.5l-140 -98q-43 61 -93.5 115t-107.5 94.5t-120 64t-131 23.5q-93 0 -177.5 -35t-148.5 -103.5t-102 -169.5t-38 -233z" />
    <glyph glyph-name="D" unicode="D" horiz-adv-x="1659" 
d="M170 1356h492q190 0 349 -44.5t274 -129.5t178.5 -209t63.5 -283q0 -143 -54 -268.5t-157.5 -219.5t-254.5 -148t-346 -54h-545v1356zM503 139h177q98 0 184.5 36t151.5 106t102.5 172t37.5 234q0 114 -35.5 211.5t-98.5 168.5t-150.5 111.5t-191.5 40.5h-177v-1080z" />
    <glyph glyph-name="E" unicode="E" horiz-adv-x="1225" 
d="M1183 1356v-116h-680v-447h565v-116h-565v-538h680v-139h-1013v1356h1013z" />
    <glyph glyph-name="F" unicode="F" horiz-adv-x="1184" 
d="M1144 1356v-116h-641v-447h565v-116h-565v-677h-333v1356h974z" />
    <glyph glyph-name="G" unicode="G" horiz-adv-x="1724" 
d="M1000 661h563v-522q-65 -35 -130 -64t-139 -50t-161.5 -33t-196.5 -12q-175 0 -322.5 49t-255 138t-167.5 215t-60 279q0 162 60 296t167 230t254.5 149t322.5 53q103 0 198.5 -28t176.5 -74t146 -105.5t107 -122.5l-137 -125q-43 61 -90 113t-100 90.5t-113.5 60.5
t-129.5 22q-105 0 -195.5 -38t-157 -109.5t-104 -175.5t-37.5 -236t40 -233t109 -170t161.5 -104.5t198.5 -35.5q63 0 119 16.5t103 50.5v360h-230v116z" />
    <glyph glyph-name="H" unicode="H" horiz-adv-x="1548" 
d="M503 646v-646h-333v1356h333v-594h545v594h330v-1356h-330v646h-545z" />
    <glyph glyph-name="I" unicode="I" horiz-adv-x="672" 
d="M170 1356h332v-1356h-332v1356z" />
    <glyph glyph-name="J" unicode="J" horiz-adv-x="1067" 
d="M563 1356h333v-997q0 -83 -30.5 -152.5t-91.5 -119.5t-152.5 -78.5t-213.5 -28.5q-68 0 -126 12t-108 31.5t-94 44t-84 50.5l94 119q21 -21 51 -42t66.5 -38t78.5 -28t87 -11q88 0 139 46t51 124v1068z" />
    <glyph glyph-name="K" unicode="K" horiz-adv-x="1530" 
d="M170 1356h334v-510l602 510h258l-679 -574l860 -782h-403l-638 581v-581h-334v1356z" />
    <glyph glyph-name="L" unicode="L" horiz-adv-x="1239" 
d="M170 1356h333v-1217h692v-139h-1025v1356z" />
    <glyph glyph-name="M" unicode="M" horiz-adv-x="1913" 
d="M170 1356h324l469 -926l462 926h317v-1356h-332v884l-443 -884h-128l-458 894v-894h-211v1356z" />
    <glyph glyph-name="N" unicode="N" horiz-adv-x="1534" 
d="M170 1356h213l773 -862v862h208v-1376h-143l-840 952v-932h-211v1356z" />
    <glyph glyph-name="O" unicode="O" horiz-adv-x="1810" 
d="M906 -30q-164 0 -306 53t-246 148.5t-163.5 227t-59.5 288.5q0 154 59.5 282.5t163.5 220.5t246 143t306 51t305.5 -51.5t246 -143.5t164.5 -219.5t60 -279.5q0 -108 -27 -203.5t-77 -175.5t-120 -143t-156.5 -107t-186.5 -67.5t-209 -23.5zM906 84q99 0 175 45.5
t127 125.5t77.5 190.5t26.5 241.5q0 129 -26.5 236t-77.5 184t-127 120t-175 43q-100 0 -176 -43t-127 -120t-77 -184t-26 -236q0 -131 26 -241.5t77 -190.5t127 -125.5t176 -45.5z" />
    <glyph glyph-name="P" unicode="P" horiz-adv-x="1294" 
d="M170 1356h473q114 0 213.5 -24t173 -72t115.5 -119.5t42 -166.5q0 -96 -41.5 -167.5t-110 -119.5t-156 -71.5t-179.5 -23.5h-196v-592h-334v1356zM504 715h109q57 0 99 20.5t70 56t42 81.5t14 97q0 61 -18.5 108t-50 79.5t-74 49.5t-91.5 17h-100v-509z" />
    <glyph glyph-name="Q" unicode="Q" horiz-adv-x="1796" 
d="M1658 -408q-111 0 -218 18.5t-206.5 50t-189.5 73t-165.5 87.5t-134 94t-96.5 92q-115 34 -210 98t-163.5 152.5t-106 197.5t-37.5 232q0 157 58 285.5t161 220t243 141.5t304 50q109 0 208.5 -23.5t184.5 -67.5t154.5 -106.5t118.5 -140t75.5 -168t26.5 -191.5
q0 -129 -38.5 -240.5t-109 -200t-169.5 -152t-219 -94.5q26 -59 78 -117t121.5 -103.5t154 -73.5t175.5 -28v-86zM492 687q0 -130 25.5 -240t76 -190t125.5 -126t174 -47q98 11 174.5 57.5t129 124.5t80 184t27.5 237q0 129 -27 236t-78.5 184t-127.5 120t-174 43
q-99 0 -174.5 -43t-127 -120t-77.5 -184t-26 -236z" />
    <glyph glyph-name="R" unicode="R" horiz-adv-x="1335" 
d="M170 1356h510q132 0 230.5 -27.5t164 -77t98.5 -117.5t33 -148q0 -58 -22.5 -109.5t-63 -95t-98 -77t-126.5 -55.5l483 -649h-362l-455 613h-59v-613h-333v1356zM503 732h72q61 0 113 17t90 48.5t59.5 77.5t21.5 104q0 54 -16.5 99t-45.5 77.5t-70 50.5t-89 18h-135v-492
z" />
    <glyph glyph-name="S" unicode="S" horiz-adv-x="1315" 
d="M652 -20q-122 0 -213.5 28.5t-155.5 78.5t-102 119.5t-52 152.5h231q12 -51 35 -95t58.5 -76.5t84 -51t112.5 -18.5q42 0 83.5 9t74.5 29.5t53 53t20 80.5q0 60 -31 107t-82 85.5t-116 71.5t-133 66.5t-133 70.5t-116 82.5t-82 103t-31 131.5q0 81 35.5 149.5t102.5 119
t164 79t221 28.5q102 0 185 -28t146.5 -77.5t106.5 -116t66 -142.5h-209q-18 48 -42 92t-59 77t-85 52.5t-119 19.5q-65 0 -109.5 -17t-71.5 -43.5t-39 -59t-12 -63.5q0 -54 32 -98t84.5 -82t119.5 -72.5t136.5 -69.5t136.5 -73.5t119.5 -84.5t84.5 -102t32 -126
q0 -83 -34 -154t-101 -123.5t-166.5 -82.5t-229.5 -30z" />
    <glyph glyph-name="T" unicode="T" horiz-adv-x="1368" 
d="M1320 1356v-116h-469v-1240h-332v1240h-470v116h1271z" />
    <glyph glyph-name="U" unicode="U" horiz-adv-x="1579" 
d="M170 1356h333v-872q0 -78 24.5 -147t70 -120.5t110 -81.5t145.5 -30q79 0 143 30t109 81.5t69.5 120.5t24.5 147v872h210v-872q0 -105 -35.5 -198.5t-111.5 -163.5t-195 -111t-286 -41q-149 0 -263.5 41t-191.5 111.5t-116.5 164.5t-39.5 200v869z" />
    <glyph glyph-name="V" unicode="V" horiz-adv-x="1448" 
d="M358 1356l448 -937l416 937h213l-610 -1376h-155l-656 1376h344z" />
    <glyph glyph-name="W" unicode="W" horiz-adv-x="1950" 
d="M345 1356l344 -876l345 891l348 -887l336 872h222l-533 -1376h-151l-278 707l-273 -707h-151l-544 1376h335z" />
    <glyph glyph-name="X" unicode="X" horiz-adv-x="1442" 
d="M243 0h-233l575 669l-518 687h367l344 -458l396 458h234l-518 -605l564 -751h-367l-394 524z" />
    <glyph glyph-name="Y" unicode="Y" horiz-adv-x="1470" 
d="M360 1356l446 -611l419 611h225l-530 -770v-586h-333v566l-575 790h348z" />
    <glyph glyph-name="Z" unicode="Z" horiz-adv-x="1413" 
d="M1405 1356l-940 -1217h890v-139h-1326v63l903 1166h-838v127h1311z" />
    <glyph glyph-name="bracketleft" unicode="[" horiz-adv-x="612" 
d="M166 1361h524v-137h-272v-1452h272v-138h-524v1727z" />
    <glyph glyph-name="backslash" unicode="\" horiz-adv-x="516" 
d="M436 -200l-446 1391h191l444 -1391h-189z" />
    <glyph glyph-name="bracketright" unicode="]" horiz-adv-x="612" 
d="M10 -366v138h271v1452h-271v137h522v-1727h-522z" />
    <glyph glyph-name="asciicircum" unicode="^" horiz-adv-x="934" 
d="M8 620l446 741h133l446 -741h-224l-291 488l-292 -488h-218z" />
    <glyph glyph-name="underscore" unicode="_" horiz-adv-x="1065" 
d="M1137 -137v-138h-1137v138h1137z" />
    <glyph glyph-name="grave" unicode="`" horiz-adv-x="610" 
d="M451 1361l111 -385h-140l-328 385h357z" />
    <glyph glyph-name="a" unicode="a" horiz-adv-x="1096" 
d="M624 528q-45 -19 -91 -46t-82.5 -60.5t-60 -74t-23.5 -86.5q0 -51 26.5 -80t71.5 -29q38 0 75 22.5t84 58.5v295zM56 764q16 64 56 116.5t99.5 89t136 56.5t165.5 20q110 0 190 -20t131.5 -56.5t76 -88t24.5 -115.5v-586q0 -63 39 -107t110 -73h-368q-16 0 -31 9
t-27 23.5t-21 31.5t-13 33q-28 -26 -53 -47.5t-55 -36.5t-67 -23.5t-89 -8.5q-71 0 -127.5 20t-96 55.5t-60.5 84t-21 105.5q0 88 49 151t129.5 110t182.5 82t208 67v100q0 49 -10 83.5t-28 56t-43.5 31t-56.5 9.5q-37 0 -66 -14t-50 -38t-34 -55t-19 -65h-261z" />
    <glyph glyph-name="b" unicode="b" horiz-adv-x="1274" 
d="M180 1432l219 114h93v-593q60 39 131 64t137 25q96 0 177 -36.5t140 -99t92 -145.5t33 -176q0 -82 -21 -158.5t-59.5 -143.5t-92.5 -123t-120 -95.5t-141.5 -61.5t-157.5 -22q-121 0 -231.5 32.5t-198.5 103.5v1315zM492 185q16 -14 33 -27t36 -23t41 -16t48 -6
q52 0 94.5 31.5t73 87t47 131t16.5 162.5q0 65 -17 122.5t-46.5 101t-69.5 68.5t-85 25q-43 0 -90 -25.5t-81 -64.5v-567z" />
    <glyph glyph-name="c" unicode="c" horiz-adv-x="1192" 
d="M856 722q-4 13 -17 45t-39.5 65.5t-70 59.5t-108.5 26q-50 0 -90 -25t-68 -67t-43.5 -98t-15.5 -117q0 -86 19.5 -164t54.5 -137.5t85 -94.5t111 -35q52 0 93.5 20.5t75.5 56t61 83t51 101.5l148 -40q-26 -100 -72 -178t-109.5 -132t-143.5 -82t-174 -28
q-106 0 -199 40.5t-162 110t-109 162t-40 196.5q0 75 19.5 145.5t55 132t85 112t110 86.5t129.5 56t143 20q79 0 138 -10t104.5 -32t83 -57.5t74.5 -86.5z" />
    <glyph glyph-name="d" unicode="d" horiz-adv-x="1262" 
d="M793 60q-57 -39 -124 -61t-132 -22q-96 0 -180.5 43t-147.5 115.5t-99 167t-36 197.5t44 200.5t120.5 173.5t179 122t219.5 46q45 0 84.5 -7t71.5 -19v416l216 114h93v-1546h-309v60zM793 696q0 49 -15.5 90t-41 70.5t-57.5 45.5t-64 16q-42 0 -80 -27.5t-66.5 -76
t-45.5 -115t-17 -144.5q0 -85 19.5 -162t52.5 -135.5t77 -93.5t94 -35q17 0 37 5.5t39.5 15.5t37 23.5t30.5 30.5v492z" />
    <glyph glyph-name="e" unicode="e" horiz-adv-x="1208" 
d="M610 -23q-109 0 -205 40.5t-167 109t-112.5 159t-41.5 191.5q0 121 38 224.5t108 179.5t167.5 118.5t217.5 42.5q107 0 196 -34t152.5 -93t98.5 -139t35 -171h-709q4 -85 25.5 -162t57.5 -135.5t84.5 -93t107.5 -34.5q51 0 100.5 17.5t91.5 48t73 71t45 87.5l158 -25
q-24 -83 -76.5 -156t-123 -128t-153.5 -86.5t-168 -31.5zM741 711q-4 45 -19.5 82.5t-39.5 64.5t-56 41.5t-69 14.5q-29 0 -57 -14.5t-50.5 -41t-38 -64t-20.5 -83.5h350z" />
    <glyph glyph-name="f" unicode="f" horiz-adv-x="754" 
d="M788 1248q-7 23 -17.5 54.5t-29.5 60.5t-48 49t-72 20q-42 0 -65 -41.5t-23 -125.5v-241h255v-125h-255v-899h-310v899h-200v125h200v114q0 79 31.5 152.5t88 130.5t134 91t170.5 34q76 0 131 -20.5t94 -50t64.5 -62t40.5 -57.5z" />
    <glyph glyph-name="g" unicode="g" horiz-adv-x="1202" 
d="M1232 953v-107h-187q24 -38 40 -82t16 -95q0 -85 -38.5 -151.5t-108 -112.5t-166.5 -70t-214 -24q-34 0 -69.5 4.5t-64.5 9.5q-21 -15 -33 -42.5t-12 -53.5q0 -8 4.5 -14.5t20.5 -12.5t46.5 -11t83.5 -10t131.5 -9.5t189.5 -8.5q102 -4 171 -23t111.5 -49.5t60.5 -71.5
t18 -89q0 -86 -45.5 -158.5t-131.5 -125.5t-209 -82.5t-279 -29.5q-140 0 -244.5 18t-174.5 48.5t-105 72t-35 88.5q0 34 20 69t52.5 69.5t73 68t82.5 64.5q-60 20 -95.5 50t-35.5 68q0 27 16.5 57t44 59.5t65 55.5t79.5 45q-50 23 -90.5 50.5t-68.5 62.5t-43 79t-15 99
q0 87 38.5 158.5t106.5 122t159.5 78t198.5 27.5q51 0 100 -7.5t91.5 -20.5t76.5 -29t54 -34h314zM833 -22q-69 0 -138.5 2t-131.5 5.5t-113 8t-82 8.5q-17 -13 -29.5 -31.5t-21 -38.5t-13 -41t-4.5 -40q0 -29 21.5 -58t65 -52.5t109 -38.5t152.5 -15q94 0 168.5 17
t126 42.5t79 56t27.5 57.5q0 57 -58 87.5t-158 30.5zM610 392q34 0 66 19t57 51.5t40 74t15 86.5q0 66 -17 123.5t-46.5 101t-68.5 68.5t-83 25q-42 0 -72 -20t-49.5 -53.5t-28.5 -78.5t-9 -95q0 -61 14 -115.5t40 -96t62 -66t80 -24.5z" />
    <glyph glyph-name="h" unicode="h" horiz-adv-x="1237" 
d="M778 699q0 79 -25.5 120.5t-66.5 41.5q-18 0 -45.5 -8t-58.5 -23t-62.5 -35t-58.5 -44v-751h-314v1432l221 114h93v-605q71 52 158.5 77.5t171.5 25.5q62 0 116.5 -24.5t95 -67t64 -99.5t23.5 -121v-732h-312v699z" />
    <glyph glyph-name="i" unicode="i" horiz-adv-x="623" 
d="M163 931l218 114h93v-1045h-311v931zM150 1381q0 31 13 59t36 48t53 32t65 12t65.5 -12t53 -32t35.5 -48t13 -59t-13 -58.5t-35.5 -47.5t-53 -32t-65.5 -12t-65 12t-53 32t-36 47.5t-13 58.5z" />
    <glyph glyph-name="j" unicode="j" horiz-adv-x="635" 
d="M-79 -220q47 -72 93 -99.5t97 -27.5q13 0 23 6.5t17 23.5t10 46t3 74v1128l219 114h93v-1090q0 -136 -34.5 -219.5t-93 -129.5t-136.5 -62t-165 -16q-60 0 -105.5 13.5t-80 33.5t-59.5 43.5t-44 43.5zM152 1381q0 31 13 59t35.5 48t52.5 32t65 12q34 0 64.5 -12t53.5 -32
t36 -48t13 -59t-13 -58.5t-36 -47.5t-53.5 -32t-64.5 -12q-35 0 -65 12t-52.5 32t-35.5 47.5t-13 58.5z" />
    <glyph glyph-name="k" unicode="k" horiz-adv-x="1135" 
d="M439 673l402 351h224l-448 -392l544 -632h-367l-355 411v-411h-312v1432l219 114h93v-873z" />
    <glyph glyph-name="l" unicode="l" horiz-adv-x="604" 
d="M456 0h-309v1432l216 114h93v-1546z" />
    <glyph glyph-name="m" unicode="m" horiz-adv-x="1937" 
d="M1443 694q0 34 -8.5 64.5t-23.5 53t-35 36t-43 13.5q-27 0 -56 -9t-57.5 -24t-53.5 -35t-44 -42v-751h-307v694q0 34 -9 64.5t-24.5 53t-35.5 36t-41 13.5q-25 0 -53.5 -9t-57 -24t-55 -35t-47.5 -42v-751h-310v931l217 114h93v-111q73 50 151.5 79t150.5 29
q40 0 80.5 -9t78 -25.5t69.5 -40t55 -53.5q35 28 77 52t88.5 40.5t95 26t96.5 9.5q65 0 123.5 -25t102.5 -69t70 -103t26 -127v-718h-313v694z" />
    <glyph glyph-name="n" unicode="n" horiz-adv-x="1237" 
d="M781 699q0 39 -8.5 69.5t-23 51t-33 31t-38.5 10.5t-46 -8t-54.5 -22.5t-58.5 -35.5t-57 -47v-748h-312v931l219 114h93v-104q72 52 154 76.5t163 24.5q63 0 119.5 -24.5t99 -66.5t67.5 -98.5t25 -120.5v-732h-309v699z" />
    <glyph glyph-name="o" unicode="o" horiz-adv-x="1294" 
d="M649 -19q-122 0 -225.5 40t-179 110t-118 164.5t-42.5 204.5q0 118 42.5 217.5t117.5 171.5t178.5 112.5t225.5 40.5t226 -39.5t179.5 -108.5t118.5 -162.5t43 -201.5q0 -113 -42.5 -213t-118 -174.5t-179.5 -118t-226 -43.5zM685 106q42 0 78 27.5t62.5 74t41 107.5
t14.5 127q0 98 -14.5 184.5t-47.5 151.5t-85.5 103t-128.5 38q-37 0 -71 -27t-60 -72.5t-41.5 -105t-15.5 -125.5q0 -99 18.5 -187t53 -153.5t84 -104t112.5 -38.5z" />
    <glyph glyph-name="p" unicode="p" horiz-adv-x="1268" 
d="M150 931l219 114h93v-104q53 45 122.5 73t161.5 28q98 0 178 -38.5t137 -104t88 -152.5t31 -185q0 -126 -37 -232.5t-105 -184t-165 -121t-218 -43.5q-62 0 -106.5 5t-86.5 22v-439h-312v1362zM462 284q0 -37 14 -69.5t39 -56.5t60.5 -38t79.5 -14q39 0 74.5 26.5t62 74
t42 112.5t15.5 142q0 99 -14 174t-39 125t-59.5 75.5t-74.5 25.5q-29 0 -57 -10t-53.5 -27.5t-48 -40.5t-41.5 -49v-450z" />
    <glyph glyph-name="q" unicode="q" horiz-adv-x="1266" 
d="M825 60q-50 -35 -116 -57t-161 -22q-61 0 -117.5 17.5t-105.5 49.5t-89.5 76.5t-69 98.5t-44.5 115.5t-16 126.5q0 79 21 152.5t58.5 138t90.5 117t117.5 90.5t138.5 58.5t154 20.5q62 0 121 -22t114 -74l89 78h125v-1455h-310v491zM644 180q28 0 55.5 8t51.5 20.5
t43 28.5t31 31v499q0 36 -11.5 60t-26.5 41q-12 10 -28 19.5t-32.5 16.5t-33 11t-31.5 4q-49 0 -92 -28.5t-74.5 -77t-50 -112.5t-18.5 -135q0 -79 17.5 -149t47 -122.5t69 -83.5t83.5 -31z" />
    <glyph glyph-name="r" unicode="r" horiz-adv-x="911" 
d="M823 809q-21 18 -38.5 31t-34.5 21t-35.5 11.5t-41.5 3.5q-32 0 -63 -10.5t-58 -29t-48.5 -43t-33.5 -52.5v-741h-310v931l217 114l93 -100q51 53 113.5 85t131.5 32q67 0 121 -27.5t94 -60.5z" />
    <glyph glyph-name="s" unicode="s" horiz-adv-x="967" 
d="M253 286q27 -84 77.5 -130.5t126.5 -46.5q32 0 58.5 8t46 22.5t30 33.5t10.5 41q0 36 -13.5 64.5t-37.5 51.5t-57 42.5t-71 36.5q-61 27 -121 58.5t-108 72t-77.5 92.5t-29.5 120q0 65 27 118.5t76 91.5t117 59t150 21q75 0 133 -14t102 -40t78 -63.5t61 -84.5l-180 -62
q-14 49 -34 76t-42 40.5t-43 16.5t-37 3q-29 0 -55 -6.5t-46 -18.5t-32 -29.5t-12 -40.5q0 -29 15 -55t42 -48.5t63.5 -42.5t79.5 -38q65 -27 126.5 -60t109.5 -74.5t77 -92t29 -112.5q0 -67 -22 -125t-71.5 -101t-128 -68t-190.5 -25q-96 0 -162.5 22t-112.5 56.5t-76 77.5
t-53 85z" />
    <glyph glyph-name="t" unicode="t" horiz-adv-x="827" 
d="M43 896v73l165 55v208l217 114h93v-322h251v-128h-251v-659q0 -31 16 -54t42 -23q16 0 35.5 11t37 25.5t31 29.5t19.5 23l106 -84q-26 -40 -57 -74.5t-71 -59.5t-92 -39.5t-120 -14.5q-65 0 -113 18.5t-80 51.5t-48 79t-16 102v668h-165z" />
    <glyph glyph-name="u" unicode="u" horiz-adv-x="1253" 
d="M470 1024v-722q0 -30 12 -56.5t32.5 -46t47.5 -30.5t58 -11q17 0 38.5 9.5t44 26.5t44.5 40t39 50v740h310v-1024h-310v95q-62 -52 -130.5 -83t-134.5 -31q-76 0 -142 25.5t-114.5 69t-76.5 102t-28 124.5v722h310z" />
    <glyph glyph-name="v" unicode="v" horiz-adv-x="1182" 
d="M348 1024l300 -624l304 624h212l-504 -1047h-141l-496 1047h325z" />
    <glyph glyph-name="w" unicode="w" horiz-adv-x="1702" 
d="M350 1024l272 -601l264 608h61l274 -600l259 593h201l-453 -1047h-143l-223 513l-221 -513h-152l-464 1047h325z" />
    <glyph glyph-name="x" unicode="x" horiz-adv-x="1116" 
d="M241 0h-221l394 471l-392 553h347l233 -328l274 328h221l-394 -471l393 -553h-348l-233 328z" />
    <glyph glyph-name="y" unicode="y" horiz-adv-x="1200" 
d="M172 -242q10 -5 26.5 -13t36 -15t41.5 -12t44 -5q18 0 36 21t34 49t28.5 56t18.5 41l89 193l-499 951h328l323 -613l286 613h219l-566 -1233q-28 -60 -71 -109t-94 -83.5t-106.5 -53.5t-109.5 -19q-45 0 -83 10.5t-66 31.5z" />
    <glyph glyph-name="z" unicode="z" horiz-adv-x="1128" 
d="M31 80l665 819h-579v125h990v-66l-672 -833h653v-125h-1057v80z" />
    <glyph glyph-name="braceleft" unicode="{" horiz-adv-x="639" 
d="M698 1281q-51 -5 -95 -27.5t-76.5 -57t-51 -79t-18.5 -93.5q0 -35 4.5 -65t10.5 -57t10.5 -53.5t4.5 -55.5q0 -42 -17 -85.5t-48 -84t-73 -75t-91 -58.5q49 -22 90.5 -56.5t72.5 -76.5t48.5 -89t17.5 -93q0 -27 -4.5 -54.5t-10.5 -56t-10.5 -57.5t-4.5 -60
q0 -53 18.5 -99t51 -81.5t76.5 -58.5t95 -28v-80q-99 0 -186 32t-152.5 87t-103 128.5t-37.5 156.5q0 28 4.5 56t10.5 56.5t10.5 58.5t4.5 62q0 41 -17 77.5t-46.5 64t-69.5 43.5t-85 16v96q45 0 85 15.5t69.5 42.5t46.5 63.5t17 77.5q0 39 -4.5 68.5t-10.5 55.5t-10.5 52
t-4.5 58q0 81 37.5 152.5t103 125.5t152.5 85t186 31v-80z" />
    <glyph glyph-name="bar" unicode="|" horiz-adv-x="332" 
d="M311 1371v-1768h-192v1768h192z" />
    <glyph glyph-name="braceright" unicode="}" horiz-adv-x="637" 
d="M23 1361q98 0 185 -31t151.5 -85t102 -125.5t37.5 -152.5q0 -29 -4.5 -57t-10 -56.5t-10 -58t-4.5 -62.5q0 -41 17 -77.5t47 -63.5t70 -42.5t85 -15.5v-96q-45 0 -85 -16t-70 -43.5t-47 -64t-17 -77.5q0 -30 4.5 -59.5t10 -58t10 -57.5t4.5 -58q0 -83 -37.5 -156.5
t-102 -128.5t-151.5 -87t-185 -32v80q50 5 93.5 28t76 58.5t51.5 81.5t19 99q0 28 -4.5 56.5t-10.5 57t-10.5 57t-4.5 57.5q0 46 17.5 93t48.5 89t72.5 76.5t89.5 56.5q-49 24 -90.5 58.5t-72 75t-48 84t-17.5 85.5q0 28 4.5 56t10.5 56.5t10.5 57.5t4.5 61q0 49 -19 93.5
t-51.5 79t-76 57t-93.5 27.5v80z" />
    <glyph glyph-name="asciitilde" unicode="~" horiz-adv-x="1069" 
d="M1115 701q0 -87 -22 -153.5t-63 -111t-99 -67t-129 -22.5q-53 0 -98 13t-85 32t-77.5 42t-74.5 42t-75 32t-80 13q-25 0 -48.5 -14.5t-43 -38.5t-33.5 -55.5t-20 -65.5h-142q0 171 88 262.5t247 91.5q62 0 125 -27t124 -59.5t119.5 -59.5t112.5 -27q27 0 47 14t36 38
t29.5 55t25.5 66h136z" />
    <glyph glyph-name="space" unicode=" " horiz-adv-x="500" 
 />
    <glyph glyph-name="uni0000" 
 />
    <glyph glyph-name="uni0000" 
 />
    <glyph glyph-name="copyright" unicode="&#xa9;" horiz-adv-x="1311" 
d="M658 1139q80 0 154.5 -21.5t139.5 -60t118.5 -92t92 -118t60 -138.5t21.5 -152q0 -79 -21.5 -151.5t-60.5 -136t-93 -115.5t-118.5 -89t-138 -57.5t-151.5 -20.5q-121 0 -228 46t-187.5 124.5t-127 184.5t-46.5 226q0 80 22 153.5t61 137t93.5 115t119.5 88.5t138.5 57
t151.5 20zM655 1028q-99 -7 -181.5 -46t-142.5 -101t-93 -144t-33 -176q0 -93 35.5 -176.5t97.5 -147.5t144.5 -101.5t177.5 -37.5q98 0 181 39t143.5 104.5t94.5 150t34 175.5q0 61 -17 119t-47.5 109t-73 93.5t-93.5 73.5t-108.5 48t-118.5 18zM952 447q-12 -54 -39 -94.5
t-65.5 -68.5t-85.5 -42t-100 -14q-77 0 -136.5 27t-100 72.5t-61.5 106t-21 128.5q0 75 22.5 136t64.5 103.5t101.5 65.5t133.5 23q215 0 278 -192l-124 -29q-25 58 -63 87.5t-93 29.5q-50 0 -84 -20.5t-55 -53.5t-30 -74.5t-9 -83.5t9 -81.5t28.5 -69.5t51.5 -48.5
t79 -18.5q69 0 111 37.5t60 112.5z" />
    <glyph glyph-name="endash" unicode="&#x2013;" horiz-adv-x="676" 
d="M661 358h-647v86h647v-86z" />
    <glyph glyph-name="emdash" unicode="&#x2014;" horiz-adv-x="1118" 
d="M1104 358h-1086v86h1086v-86z" />
    <glyph glyph-name="quoteleft" unicode="&#x2018;" horiz-adv-x="444" 
d="M403 1272q-44 -12 -82 -33t-66 -47.5t-44.5 -57t-16.5 -61.5q0 -11 1 -20t4 -9q6 0 14.5 4.5t19.5 10.5t24.5 10.5t28.5 4.5q24 0 45.5 -10t37 -27.5t25 -42t9.5 -54.5t-12 -55.5t-33 -45t-49.5 -30.5t-61.5 -11q-41 0 -76.5 17.5t-62 48.5t-42 72.5t-15.5 88.5
q0 70 28.5 130t76.5 104.5t112 71.5t135 32v-91z" />
    <glyph glyph-name="quoteright" unicode="&#x2019;" horiz-adv-x="444" 
d="M51 887q44 12 83 33t67.5 48t45 57.5t16.5 61.5q0 12 -1.5 19.5t-2.5 7.5q-8 0 -17 -4.5t-19.5 -10.5t-23.5 -10.5t-29 -4.5q-24 0 -46 10.5t-38 28.5t-25.5 42.5t-9.5 53.5q0 30 12.5 56t34.5 45t50.5 30t61.5 11q40 0 75 -18t61.5 -48.5t41.5 -71.5t15 -87
q0 -71 -28.5 -131t-76.5 -104.5t-112 -72t-135 -31.5v90z" />
    <glyph glyph-name="quotedblleft" unicode="&#x201c;" horiz-adv-x="862" 
d="M829 1272q-44 -12 -82.5 -33t-67 -47.5t-45 -57t-16.5 -61.5q0 -11 1 -20t3 -9q9 0 18 4.5t19 10.5t22.5 10.5t28.5 4.5q24 0 45.5 -10t38 -27.5t26 -42t9.5 -54.5t-12.5 -55.5t-33.5 -45t-50 -30.5t-62 -11q-40 0 -75 17.5t-61.5 48.5t-41.5 72.5t-15 88.5q0 70 28 130
t76 104.5t111.5 71.5t135.5 32v-91zM403 1272q-44 -12 -82.5 -33t-67 -47.5t-45 -57t-16.5 -61.5q0 -11 1.5 -20t4.5 -9q8 0 16.5 4.5t18.5 10.5t22.5 10.5t27.5 4.5q25 0 46.5 -10t38 -27.5t26 -42t9.5 -54.5t-12 -55.5t-33.5 -45t-50.5 -30.5t-62 -11q-40 0 -75.5 17.5
t-61.5 48.5t-41.5 72.5t-15.5 88.5q0 70 28.5 130t76.5 104.5t112 71.5t135 32v-91z" />
    <glyph glyph-name="quotedblright" unicode="&#x201d;" horiz-adv-x="862" 
d="M43 887q44 12 83 33t67.5 48t45 57.5t16.5 61.5q0 12 -1 19.5t-5 7.5q-11 0 -20.5 -4.5t-19.5 -10.5t-21.5 -10.5t-25.5 -4.5q-23 0 -44.5 10.5t-38 28.5t-26.5 42.5t-10 53.5q0 30 12.5 56t34 45t50.5 30t62 11q40 0 75 -18t61 -48.5t41.5 -71.5t15.5 -87
q0 -71 -28.5 -131t-76.5 -104.5t-112 -72t-135 -31.5v90zM470 887q44 12 82.5 33t67 48t45 57.5t16.5 61.5q0 12 -2 19.5t-4 7.5q-10 0 -19.5 -4.5t-19.5 -10.5t-21.5 -10.5t-25.5 -4.5q-24 0 -46 10.5t-38 28.5t-25.5 42.5t-9.5 53.5q0 30 12.5 56t33.5 45t50 30t62 11
q40 0 75 -18t61.5 -48.5t41.5 -71.5t15 -87q0 -71 -28.5 -131t-76.5 -104.5t-111.5 -72t-134.5 -31.5v90z" />
    <glyph glyph-name="bullet" unicode="&#x2022;" horiz-adv-x="530" 
d="M72 525q0 38 15.5 72t41.5 59.5t61.5 40t76.5 14.5q40 0 75 -14.5t61 -40t41 -59.5t15 -72q0 -39 -15 -73t-41 -58.5t-61 -39t-75 -14.5q-41 0 -76.5 14.5t-61.5 39t-41.5 58.5t-15.5 73z" />
    <glyph glyph-name="uni000D" unicode="&#xd;" horiz-adv-x="624" 
 />
    <glyph glyph-name="onequarter" unicode="&#xbc;" horiz-adv-x="1489" 
d="M1111 0v169h-333v100l378 446h121v-429h106v-117h-106v-169h-166zM1108 496q-24 -27 -45.5 -52l-43 -50t-44 -51.5t-47.5 -56.5h183zM114 1251l102 83h65v-717h-167v634zM244 -46h-140l931 1380h140z" />
    <glyph glyph-name="onehalf" unicode="&#xbd;" horiz-adv-x="1448" 
d="M246 -46h-142l931 1380h140zM803 67q39 29 81 61t83 66.5t78 70.5t65 71.5t44.5 70.5t16.5 68q0 23 -9.5 42.5t-25.5 34t-38 22.5t-47 8q-48 0 -81 -27.5t-51 -79.5h-87q7 50 30.5 93.5t58 76t77 51.5t87.5 19q58 0 104.5 -14.5t79 -41.5t49.5 -66t17 -87
q0 -53 -28.5 -104.5t-71.5 -99.5t-94.5 -91t-96.5 -79h310v-132h-551v67zM126 1251l102 83h65v-717h-167v634z" />
    <glyph glyph-name="threequarters" unicode="&#xbe;" horiz-adv-x="1659" 
d="M229 1013q33 0 64 8t55 23t38.5 37t14.5 51q0 40 -24 58t-66 18q-37 0 -72 -24.5t-61 -62.5l-71 35q36 82 99.5 130t150.5 48q36 0 72 -9.5t64.5 -29.5t46 -50.5t17.5 -72.5q0 -38 -18 -74.5t-47 -63.5q51 -26 78.5 -68.5t27.5 -105.5q0 -69 -29 -118.5t-76 -81t-106 -46
t-119 -14.5q-15 0 -42.5 3.5t-54.5 13.5t-47 27t-20 43q0 17 7 28.5t17.5 18.5t24 10t26.5 3q20 0 39.5 -7.5t39.5 -15.5l4 -2q20 -9 40.5 -16t43.5 -7q21 0 40 8.5t33.5 22.5t23 32.5t8.5 38.5q0 37 -17.5 62.5t-47.5 41t-70.5 22.5t-86.5 7v79zM431 -46h-140l929 1380h140
zM1294 0v169h-329v100l377 446h121v-429h105v-117h-105v-169h-169zM1293 498l-178 -212h179z" />
    <glyph glyph-name="uni200B" unicode="&#x200b;" 
 />
    <glyph glyph-name="ZWNJ" unicode="&#x200c;" 
 />
    <glyph glyph-name="ZWJ" unicode="&#x200d;" 
 />
    <glyph glyph-name="uni20B9.rupee" unicode="&#x20b9;" horiz-adv-x="1034" 
d="M874 -11l-243 -91l-549 587l88 123q50 0 101 9t95.5 29.5t78.5 54.5t50 84h-432l62 141h374q-23 84 -109 126t-216 42h-111l62 135h821l-54 -135h-268q54 -26 90.5 -67t52.5 -101h173l-48 -141h-121q-11 -72 -49 -124t-96.5 -87.5t-135 -57t-166.5 -33.5z" />
    <glyph glyph-name="uni2219" unicode="&#x2219;" horiz-adv-x="326" 
d="M171 554q33 0 56.5 -23t23.5 -55t-23.5 -55t-56.5 -23q-34 0 -57.5 23t-23.5 55t23.5 55t57.5 23z" />
    <glyph glyph-name="uni25CC" unicode="&#x25cc;" horiz-adv-x="1219" 
d="M257 899q0 29 20 51t53 22q30 0 49.5 -22t19.5 -51q0 -34 -19.5 -52.5t-49.5 -18.5q-33 0 -53 18.5t-20 52.5zM109 690q0 34 19 52.5t52 18.5q27 0 48 -18.5t21 -52.5q0 -33 -21 -52t-48 -19q-33 0 -52 19t-19 52zM80 450q0 34 20 52.5t51 18.5t52 -18.5t21 -52.5
q0 -29 -21 -49t-52 -20t-51 20t-20 49zM180 231q0 33 20 52t49 19t50 -19t21 -52q0 -31 -21 -51t-50 -20t-49 20t-20 51zM368 89q0 32 21 50.5t54 18.5q27 0 47 -18.5t20 -50.5q0 -33 -20 -52t-47 -19q-33 0 -54 19t-21 52zM612 60q0 29 19 50t50 21q33 0 52 -21t19 -50
q0 -33 -19 -53t-52 -20q-31 0 -50 20t-19 53zM839 158q0 33 19 53t50 20q34 0 52.5 -20t18.5 -53q0 -29 -18.5 -49t-52.5 -20q-31 0 -50 20t-19 49zM975 344q0 33 21 52t50 19q31 0 51 -19t20 -52q0 -29 -20 -50t-51 -21q-29 0 -50 21t-21 50zM996 598q0 34 20 52.5t49 18.5
q33 0 53 -18.5t20 -52.5q0 -33 -20 -52t-53 -19q-29 0 -49 19t-20 52zM902 826q0 12 5.5 25t15 23t22.5 16.5t28 6.5q26 0 49 -23q22 -22 22 -48q0 -34 -22 -54.5t-49 -20.5q-31 0 -51 20.5t-20 54.5zM721 951q0 29 20.5 50t54.5 21q29 0 47.5 -21t18.5 -50q0 -31 -18.5 -51
t-47.5 -20q-34 0 -54.5 20t-20.5 51zM485 978q0 31 18.5 51t52.5 20q31 0 50 -20t19 -51t-19 -52t-50 -21q-34 0 -52.5 21t-18.5 52z" />
    <glyph glyph-name="ori_chandra" unicode="&#xb01;" 
d="M-208 1138q-32 0 -72.5 6t-88 29t-101.5 70t-112 129l84 49q54 -47 100.5 -72t83.5 -36.5t64 -13.5t42 -2t42 2t64 13.5t83.5 36.5t100.5 72l84 -49q-59 -82 -112.5 -129t-101 -70t-88 -29t-72.5 -6zM-310 1500q0 21 8 39.5t22 32.5t32.5 22t39.5 8t39.5 -8t32.5 -22
t22 -32.5t8 -39.5t-8 -39.5t-22 -32.5t-32.5 -22t-39.5 -8t-39.5 8t-32.5 22t-22 32.5t-8 39.5z" />
    <glyph glyph-name="ori_anuswara" unicode="&#xb02;" horiz-adv-x="371" 
d="M-41 913q0 47 18.5 88t50 71.5t74.5 48t91 17.5t90.5 -17.5t74 -48t50 -71.5t18.5 -88t-18.5 -87.5t-50 -70.5t-74 -47.5t-90.5 -17.5t-91 17.5t-74.5 47.5t-50 70.5t-18.5 87.5zM72 913q0 -21 9.5 -39.5t26 -32t38.5 -21.5t47 -8t47.5 8t39 21.5t26 32t9.5 39.5
t-9.5 39.5t-26 32t-39 21.5t-47.5 8t-47 -8t-38.5 -21.5t-26 -32t-9.5 -39.5z" />
    <glyph glyph-name="ori_visarga" unicode="&#xb03;" horiz-adv-x="800" 
d="M390 984q-35 0 -60.5 -13t-41.5 -33.5t-23.5 -45t-7.5 -48.5q0 -45 38 -96t95 -101q57 50 95 101t38 96q0 24 -7.5 48.5t-23.5 45t-41.5 33.5t-60.5 13zM696 862q0 -26 -7.5 -54.5t-29.5 -64t-62 -79.5t-105 -101q65 -57 105 -101.5t62 -80t29.5 -64t7.5 -54.5
q0 -63 -23.5 -113.5t-65 -86.5t-97.5 -55.5t-120 -19.5q-65 0 -121 19.5t-97 55.5t-65 86.5t-24 113.5q0 26 7.5 54.5t29.5 64t62 80t106 101.5q-66 57 -106 101.5t-62 80t-29.5 63.5t-7.5 54q0 63 24 114t65 87t97 55.5t121 19.5q64 0 120 -19.5t97.5 -55.5t65 -87
t23.5 -114zM390 140q35 0 60.5 13t41.5 33.5t23.5 45.5t7.5 49q0 45 -38 96t-95 100q-57 -49 -95 -100t-38 -96q0 -24 7.5 -49t23.5 -45.5t41.5 -33.5t60.5 -13z" />
    <glyph glyph-name="ori_a" unicode="&#xb05;" horiz-adv-x="1385" 
d="M1073 1117h208v-1117h-208v266q-42 -54 -104 -105.5t-140 -92t-169.5 -65t-192.5 -24.5q-59 0 -126 17.5t-124.5 55.5t-95.5 98t-38 145q0 79 36 131.5t94 88.5t130.5 59.5t145.5 44.5q33 9 68 17.5t68 19t62 24.5t50.5 35t34 51t12.5 71q0 75 -24.5 111t-60.5 36
q-24 0 -42.5 -13.5t-31 -37.5t-19 -55.5t-6.5 -67.5v-97h-184v97q0 35 -5.5 66.5t-16 55.5t-25 38t-32.5 14q-28 0 -51.5 -31t-23.5 -83q0 -31 6 -56t15 -44t18.5 -32.5t15.5 -21.5l-131 -103q-19 23 -37.5 51t-33 60t-23.5 69t-9 79q0 45 15 92t46 85.5t79.5 63.5t114.5 25
q32 0 61 -12t52 -30t39 -39.5t21 -40.5q9 20 25.5 41.5t40.5 39.5t54.5 29.5t67.5 11.5q76 0 126 -29.5t80 -73.5t42.5 -94.5t12.5 -92.5q0 -73 -22.5 -126t-60.5 -91.5t-87 -65.5t-103 -46.5t-108 -34.5t-101 -30q-41 -13 -79.5 -27t-69 -32t-49 -42.5t-18.5 -58.5
q0 -44 19.5 -74.5t52 -50t74.5 -28t86 -8.5q63 0 127.5 21t125 54t115 74.5t97.5 83.5t73 80t41 63v608z" />
    <glyph glyph-name="ori_aa" unicode="&#xb06;" horiz-adv-x="1750" 
d="M1438 1117h208v-1117h-208v1117zM1073 1117h208v-1117h-208v266q-42 -54 -104 -105.5t-140 -92t-169.5 -65t-192.5 -24.5q-59 0 -126 17.5t-124.5 55.5t-95.5 98t-38 145q0 79 36 131.5t94 88.5t130.5 59.5t145.5 44.5q33 9 68 17.5t68 19t62 24.5t50.5 35t34 51t12.5 71
q0 75 -24.5 111t-60.5 36q-24 0 -42.5 -13.5t-31 -37.5t-19 -55.5t-6.5 -67.5v-97h-184v97q0 35 -5.5 66.5t-16 55.5t-25 38t-32.5 14q-28 0 -51.5 -31t-23.5 -83q0 -31 6 -56t15 -44t18.5 -32.5t15.5 -21.5l-131 -103q-19 23 -37.5 51t-33 60t-23.5 69t-9 79q0 45 15 92
t46 85.5t79.5 63.5t114.5 25q32 0 61 -12t52 -30t39 -39.5t21 -40.5q9 20 25.5 41.5t40.5 39.5t54.5 29.5t67.5 11.5q76 0 126 -29.5t80 -73.5t42.5 -94.5t12.5 -92.5q0 -73 -22.5 -126t-60.5 -91.5t-87 -65.5t-103 -46.5t-108 -34.5t-101 -30q-41 -13 -79.5 -27t-69 -32
t-49 -42.5t-18.5 -58.5q0 -44 19.5 -74.5t52 -50t74.5 -28t86 -8.5q63 0 127.5 21t125 54t115 74.5t97.5 83.5t73 80t41 63v608z" />
    <glyph glyph-name="ori_i" unicode="&#xb07;" horiz-adv-x="1720" 
d="M83 618q0 101 52 195t150.5 166t240.5 115.5t323 43.5q117 0 217.5 -25.5t182.5 -69t146 -101.5t107 -123.5t65.5 -134.5t22.5 -134q0 -62 -10.5 -114t-31.5 -97.5t-51.5 -87t-70.5 -83.5l190 -209l-153 -121l-241 377q49 38 84.5 80t57.5 85t32.5 86t10.5 84
q0 49 -18.5 100t-53.5 99.5t-84.5 91t-111.5 74.5t-135.5 50.5t-154.5 18.5q-125 0 -232 -31t-185 -82t-122.5 -117.5t-44.5 -137.5q0 -56 22 -105.5t67 -87.5q31 59 84.5 93t123.5 34q21 0 44 -3.5t46 -15t45 -32t42 -53.5q17 33 37.5 53.5t42 31.5t45 15t46.5 4
q55 0 101 -20.5t79.5 -57.5t52 -88t18.5 -112q0 -60 -18.5 -111t-52 -87.5t-79.5 -57.5t-101 -21q-23 0 -46.5 3.5t-45.5 14.5t-42.5 31.5t-36.5 54.5q-20 -33 -42 -53.5t-45 -32t-46 -15t-44 -3.5q-51 0 -93.5 17.5t-74 49.5t-51 77t-23.5 100q-109 60 -173 155.5
t-64 223.5zM493 272q0 -81 22.5 -120.5t56.5 -39.5q21 0 35.5 16t23.5 40t13 52t4 52q0 25 -3.5 53.5t-12.5 52.5t-23.5 40t-36.5 16q-21 0 -36 -16.5t-24.5 -41t-14 -53t-4.5 -51.5zM832 272q0 -81 22.5 -120.5t56.5 -39.5q21 0 35.5 16t23.5 40t13 52t4 52q0 25 -3.5 53.5
t-12.5 52.5t-23.5 40t-36.5 16q-21 0 -36 -16.5t-24.5 -41t-14 -53t-4.5 -51.5z" />
    <glyph glyph-name="ori_ii" unicode="&#xb08;" horiz-adv-x="1690" 
d="M818 1138q117 0 217.5 -25.5t183 -69t146 -101.5t107 -123.5t66 -134.5t22.5 -134q0 -62 -10.5 -114t-31.5 -97.5t-51.5 -87t-70.5 -83.5l190 -209l-153 -121l-241 377q49 38 84.5 80t57.5 85t32.5 86t10.5 84q0 49 -18.5 100t-53.5 99.5t-85 91t-112 74.5t-135 50.5
t-155 18.5q-64 0 -138.5 -10t-143.5 -31t-124.5 -54.5t-82.5 -80.5q23 5 45.5 8.5t43.5 3.5q37 0 74.5 -9t67.5 -28t48.5 -49t18.5 -72q0 -38 -19.5 -65t-49.5 -44t-65.5 -25.5t-67.5 -8.5q-50 0 -100 19t-88 55q-6 -26 -6 -54q0 -53 24.5 -90t57.5 -60q37 37 88.5 57.5
t111.5 20.5q46 0 93 -19t75 -47q29 28 76 47t95 19q55 0 102.5 -17t82.5 -48t55.5 -74.5t20.5 -96.5q0 -54 -19 -100t-53.5 -80t-82.5 -53t-107 -19q-25 0 -50 5.5t-47.5 15t-41.5 21.5t-31 26q-32 -32 -76.5 -50t-92.5 -18q-59 0 -107.5 19t-82.5 53t-52.5 80t-18.5 100v10
t1 10q-83 57 -126 125t-43 143q0 66 23.5 116.5t60.5 87.5q-3 18 -3 38q0 79 49.5 147.5t137 119.5t207 80.5t260.5 29.5zM774 231q0 -50 20 -84.5t57 -34.5t57.5 34.5t20.5 84.5q0 49 -20.5 84t-57.5 35q-35 0 -55 -31.5t-22 -78.5v-9zM435 231q0 -50 20 -84.5t57 -34.5
q34 0 55 31.5t23 76.5v11q0 49 -20.5 84t-57.5 35t-57 -35t-20 -84zM428 612q15 0 27.5 5.5t21.5 14t14 18.5t5 20q0 9 -6 19.5t-17.5 19.5t-27.5 15t-36 6q-54 0 -98 -32q6 -25 19 -41.5t29.5 -26.5t35 -14t33.5 -4z" />
    <glyph glyph-name="ori_u" unicode="&#xb09;" horiz-adv-x="1762" 
d="M868 984q-143 0 -254.5 -32.5t-189 -84t-118 -115.5t-40.5 -128q0 -37 9.5 -69t25.5 -59t37 -49t45 -39q12 47 37 90.5t64 79t92 60.5t120 36l37 -142q-90 -28 -133.5 -84.5t-43.5 -125.5q0 -39 15 -73.5t44 -60t73 -40.5t103 -15q53 0 93 16t66.5 40t39.5 52t13 52
q0 37 -18.5 65.5t-42.5 45.5l-61 -86l-141 95l283 388l135 -100l-132 -180q38 -17 68 -42t50.5 -55t31.5 -63.5t11 -67.5q0 -70 -29 -128t-81 -99t-124.5 -64t-158.5 -23q-72 0 -136.5 16.5t-116.5 47t-90 73.5t-58 95q-63 24 -119 63t-98.5 91.5t-67.5 117.5t-25 141
q0 90 47 182t143.5 165.5t244.5 120t350 46.5q117 0 219 -25.5t187 -69t151.5 -101.5t112.5 -123.5t70 -134.5t24 -134q0 -62 -10.5 -114t-31.5 -97.5t-52 -87t-71 -83.5l191 -209l-153 -121l-241 377q49 38 84.5 80t57.5 85t32.5 86t10.5 84q0 49 -20.5 100t-57.5 99.5
t-89.5 91t-117.5 74.5t-139.5 50.5t-156.5 18.5z" />
    <glyph glyph-name="ori_uu" unicode="&#xb0a;" horiz-adv-x="1706" 
d="M857 318l-140 95l282 388l135 -100l-131 -180q37 -17 67 -42t50.5 -55t31.5 -63.5t11 -67.5q0 -70 -29 -128t-81 -99t-124.5 -64t-158.5 -23q-70 0 -132.5 15.5t-113.5 44.5t-89.5 69t-60.5 90q-80 33 -135.5 78.5t-90 98t-50 110.5t-15.5 117q0 63 20 127.5t60.5 124
t100.5 111.5t141 90.5t182.5 60.5t223.5 22q134 0 242 -20.5t191.5 -55.5t143.5 -81t98.5 -97.5t57 -105t18.5 -102.5q0 -42 -10.5 -80t-28.5 -70t-41.5 -59t-50.5 -48q35 -11 65 -27.5t51.5 -39t34 -49.5t12.5 -58q0 -34 -11 -61t-32 -49t-50 -40t-65 -35l166 -188
l-153 -122l-220 383q93 13 137 41t44 69q0 30 -16.5 53.5t-42.5 39.5t-59.5 24t-66.5 8v94q30 6 57.5 23.5t48.5 44.5t33.5 62t12.5 76q0 56 -37 112.5t-106.5 101.5t-170.5 73.5t-230 28.5q-132 0 -237 -32t-178.5 -86t-113 -125t-39.5 -149q0 -51 19.5 -103.5t72.5 -90.5
q10 49 35 94t64.5 81.5t93 63t122.5 37.5l37 -142q-90 -28 -133.5 -84.5t-43.5 -125.5q0 -39 15 -73.5t44.5 -60t73.5 -40.5t103 -15q53 0 92.5 16t66 40t39.5 52t13 52q0 37 -18 65.5t-43 45.5z" />
    <glyph glyph-name="ori_ri" unicode="&#xb0b;" horiz-adv-x="1648" 
d="M776 1138q122 0 223 -21t181.5 -57.5t141 -85t100.5 -103.5t60 -113t20 -113q0 -29 -7.5 -58.5t-23 -58.5t-40.5 -55.5t-60 -48.5q83 -22 124.5 -74t41.5 -114q0 -24 -7.5 -48.5t-24.5 -49t-45.5 -48t-71.5 -44.5l156 -174l-154 -122l-230 365q49 0 85 11.5t60 29t36 39
t12 41.5q0 33 -16.5 57.5t-43 41t-60 25t-66.5 8.5v107q33 8 61 21.5t48.5 35t32 52t11.5 73.5q0 54 -40 111.5t-112 105.5t-172.5 79t-220.5 31q-99 0 -191 -28t-162.5 -77t-112.5 -117t-42 -147q0 -78 34.5 -140.5t94.5 -107.5q16 47 47 86.5t74 68.5t95.5 45t110.5 16
q70 0 132.5 -23.5t108.5 -64.5t73 -96t27 -118t-27 -118t-73 -96t-108.5 -64.5t-132.5 -23.5q-57 0 -109 15.5t-94.5 43.5t-74 66.5t-47.5 83.5q-158 63 -236.5 171.5t-78.5 255.5q0 78 26.5 147.5t73.5 127.5t112 104t142 78t163 49t176 17zM566 281q0 -31 12 -58t33.5 -47
t50 -31.5t61.5 -11.5q32 0 60.5 11.5t50 31.5t34 47t12.5 58t-12.5 58t-34 47t-50 32t-60.5 12q-33 0 -61.5 -12t-50 -32t-33.5 -47t-12 -58z" />
    <glyph glyph-name="ori_li" unicode="&#xb0c;" horiz-adv-x="1151" 
d="M692 283q0 -42 22.5 -76t49.5 -53q44 18 71.5 49t27.5 80q0 43 -21 75t-61 32q-38 0 -63.5 -28.5t-25.5 -78.5zM235 747q-16 32 -25.5 69t-9.5 72q0 52 24.5 98t70 79.5t109.5 53t143 19.5q98 0 168 -26.5t114.5 -68t65 -91t20.5 -94.5q0 -72 -28 -123.5t-73.5 -88
t-104 -61.5t-119 -45t-119 -38.5t-104 -41.5t-73.5 -54t-28 -77q0 -48 32 -84.5t80.5 -61t107 -37.5t111.5 -13q-39 33 -59.5 77.5t-20.5 86.5q0 46 19.5 85.5t54.5 68.5t82.5 45.5t104.5 16.5q62 0 112 -18.5t85 -50t53.5 -73t18.5 -87.5q0 -78 -36 -135.5t-99 -95
t-149 -56t-185 -18.5q-90 0 -179 21.5t-159 64.5t-113.5 107t-43.5 149q0 75 28 126t73.5 86t103.5 57.5t118.5 41t118.5 36t103.5 41.5t73.5 59t28 88q0 27 -15 50.5t-39.5 40.5t-57 27t-68.5 10q-28 0 -57.5 -5.5t-54 -18.5t-40.5 -34t-16 -51q0 -20 4 -36.5t11 -29.5z
" />
    <glyph glyph-name="ori_e" unicode="&#xb0f;" horiz-adv-x="1168" 
d="M1064 0h-208q-140 31 -271.5 104t-237 187t-176 269.5t-88.5 351.5l152 72q15 -137 45.5 -244.5t74 -191t98 -146.5t118.5 -110.5t136 -82.5t149 -63v775q-36 -14 -71 -31.5t-64.5 -38t-52.5 -45t-36 -52.5q60 -3 94.5 -36t34.5 -78q0 -26 -10.5 -49.5t-30.5 -41.5
t-48 -29t-63 -11t-63 13t-47.5 35.5t-30.5 53t-11 65.5q0 67 30.5 126t80.5 108t114.5 87.5t132 65t132.5 40.5t117 14v-1117z" />
    <glyph glyph-name="ori_ai" unicode="&#xb10;" horiz-adv-x="1610" 
d="M1220 1117q29 27 52 57q20 25 36 56t16 60q0 54 -37 86t-94 32q-45 0 -87.5 -12t-84 -30t-84 -39t-86.5 -39t-91 -30t-99 -12q-65 0 -116 15t-91.5 41.5t-72 63t-57.5 78.5l120 91q31 -54 61.5 -89.5t61 -57.5t59.5 -31t57 -9q35 0 72.5 16.5t78.5 41t85.5 53.5t94 53.5
t105 41t117.5 16.5q54 0 102.5 -17.5t86 -49t59.5 -77t22 -100.5q0 -38 -10 -72t-23 -62t-26 -47.5t-19 -27.5v-1117h-208v441q-17 -18 -38.5 -28.5t-44.5 -10.5q-39 0 -73 28v-430h-208q-140 31 -271.5 104t-237 187t-176 269.5t-88.5 351.5l152 72q15 -137 45.5 -244.5
t74 -191t98 -146.5t118.5 -110.5t136 -82.5t149 -63v775q-36 -14 -71 -31.5t-64.5 -38t-52.5 -45t-36 -52.5q60 -3 94.5 -36t34.5 -78q0 -26 -10.5 -49.5t-30.5 -41.5t-48 -29t-63 -11t-63 13t-47.5 35.5t-30.5 53t-11 65.5q0 67 30.5 126t80.5 108t114.5 87.5t132 65
t132.5 40.5t117 14v-561q13 -14 32 -26.5t42 -12.5q19 0 40 12t42 44v544z" />
    <glyph glyph-name="ori_o" unicode="&#xb13;" horiz-adv-x="1271" 
d="M419 995q-49 -42 -81.5 -90t-52 -100t-28 -105t-8.5 -105q0 -87 28 -170.5t84.5 -148t140.5 -104t196 -39.5q49 0 98 11.5t88.5 36t64 63t24.5 92.5q0 36 -14.5 62.5t-39.5 44t-58 26t-69 8.5h-190v144h134q43 0 78 17t60 45t39 62.5t14 70.5q0 43 -14.5 75t-38.5 52.5
t-54 30.5t-61 10q-22 0 -45.5 -6t-42.5 -19.5t-31 -34t-12 -49.5t13 -47.5t21 -29.5l-114 -107q-17 14 -33 35t-29.5 46t-21.5 53.5t-8 57.5q0 67 27 115t70 79t97.5 46t108.5 15q90 0 156 -26.5t109.5 -69.5t64.5 -98t21 -112q0 -34 -9 -70.5t-28 -71t-48.5 -65
t-69.5 -52.5q104 -32 158 -90t54 -156q0 -80 -37 -144.5t-99.5 -110.5t-144 -71t-170.5 -25q-107 0 -195.5 26t-158.5 71t-122.5 106t-87.5 129.5t-52 142t-17 144.5q0 75 13 148t41.5 141.5t74 132t111.5 121.5z" />
    <glyph glyph-name="ori_au" unicode="&#xb14;" horiz-adv-x="1713" 
d="M1323 1117q29 27 52 57q20 25 36 56t16 60q0 54 -37 86t-94 32q-45 0 -87.5 -12t-84 -30t-84 -39t-86.5 -39t-91 -30t-99 -12q-65 0 -116 15t-91.5 41.5t-72 63t-57.5 78.5l120 91q31 -54 61.5 -89.5t61 -57.5t59.5 -31t57 -9q35 0 72.5 16.5t78.5 41t85.5 53.5t94 53.5
t105 41t117.5 16.5q54 0 102.5 -17.5t86 -49t59.5 -77t22 -100.5q0 -38 -10 -72t-23 -62t-26 -47.5t-19 -27.5v-1117h-208v711q-40 -26 -79.5 -36.5t-77.5 -10.5q-54 0 -100 16q-19 -31 -46.5 -59t-64.5 -48q104 -32 158 -90t54 -156q0 -80 -37 -144.5t-99.5 -110.5
t-144 -71t-170.5 -25q-107 0 -195.5 26t-158.5 71t-122.5 106t-87.5 129.5t-52 142t-17 144.5q0 75 13 148t41.5 141.5t74 132t111.5 121.5l96 -143q-49 -42 -81.5 -90t-52 -100t-28 -105t-8.5 -105q0 -87 28 -170.5t84.5 -148t140.5 -104t196 -39.5q49 0 98 11.5t88.5 36
t64 63t24.5 92.5q0 36 -14.5 62.5t-39.5 44t-58 26t-69 8.5h-190v144h134q43 0 78 17t60 45t39 62.5t14 70.5q0 43 -14.5 75t-38.5 52.5t-54 30.5t-61 10q-22 0 -45.5 -6t-42.5 -19.5t-31 -34t-12 -49.5t13 -47.5t21 -29.5l-114 -107q-17 14 -33 35t-29.5 46t-21.5 53.5
t-8 57.5q0 67 27 115t70 79t97.5 46t108.5 15q90 0 156 -26.5t109.5 -69.5t64.5 -98t21 -112q0 -20 -3 -38q28 -9 61 -9q34 0 72 13t83 45v274z" />
    <glyph glyph-name="ori_ka" unicode="&#xb15;" horiz-adv-x="1597" 
d="M1244 440q35 39 55 90t20 112q0 70 -39 132.5t-108.5 109t-166.5 73.5t-213 27q-114 0 -210.5 -24.5t-166 -68t-109 -104t-39.5 -131.5q0 -49 9.5 -85t39.5 -60q32 68 95.5 111.5t148.5 43.5q47 0 94 -21.5t84 -71.5q18 22 41.5 39.5t49.5 29.5t53 18t51 6q54 0 104 -20
t87.5 -55t60 -81.5t22.5 -100.5v-409h-208v407q0 52 -21.5 79t-52.5 27q-14 0 -27.5 -5t-24.5 -17.5t-18 -33.5t-7 -52v-405h-196v172q-9 -9 -23 -16t-29 -12.5t-29.5 -8t-25.5 -2.5q-52 0 -94 17t-72.5 46t-50.5 66.5t-29 78.5q-46 22 -85.5 56t-68.5 75t-45.5 88.5
t-16.5 97.5q0 103 49.5 190.5t141.5 152t222 101t291 36.5q165 0 295.5 -39t222 -106t140 -157t48.5 -193q0 -72 -34 -154.5t-96 -168.5zM476 384q0 -58 26 -93.5t62 -35.5q38 0 63 35t25 94v4q0 24 -6.5 47t-18.5 40t-28 27.5t-35 10.5q-38 0 -63 -33t-25 -96z" />
    <glyph glyph-name="ori_kha" unicode="&#xb16;" horiz-adv-x="1479" 
d="M288 281q-46 33 -84 74t-65 87.5t-41.5 98.5t-14.5 109q0 100 36 189t110.5 155.5t189 105t272.5 38.5q21 0 50.5 -2t61 -6t62 -9.5t53.5 -12.5q-23 -31 -43 -70t-20 -93q0 -70 35.5 -107.5t89.5 -37.5q52 0 85.5 27t53.5 71t30.5 101.5t17.5 117.5h208v-1117h-208v728
q-24 -27 -53 -43t-58.5 -25t-55.5 -12t-44 -3q-56 0 -105.5 18t-87 48t-59 70t-21.5 84q0 23 5 55t22 63q-117 -4 -200.5 -30.5t-137.5 -73t-79 -111t-25 -142.5q0 -51 14.5 -99.5t52.5 -91.5q45 67 121.5 107.5t171.5 40.5q71 0 133 -23.5t108.5 -64.5t73 -96t26.5 -118
t-26.5 -118t-73 -96t-108.5 -64.5t-133 -23.5t-132.5 23.5t-108 64.5t-73 96t-26.5 118zM472 281q0 -31 12.5 -58t33.5 -47t49.5 -31.5t60.5 -11.5q33 0 61.5 11.5t50 31.5t33.5 47t12 58t-12 58t-33.5 47t-50 32t-61.5 12q-32 0 -60.5 -12t-49.5 -32t-33.5 -47t-12.5 -58z
" />
    <glyph glyph-name="ori_ga" unicode="&#xb17;" horiz-adv-x="1479" 
d="M288 281v4q-100 67 -152.5 162t-52.5 210q0 103 46 191t130 152.5t201.5 101t260.5 36.5q131 0 245 -38t201 -105v122h208v-1117h-208v728q-20 55 -61 102t-98.5 81.5t-129.5 53.5t-153 19q-99 0 -183 -23t-145 -67t-95.5 -107.5t-34.5 -143.5q0 -63 19 -112.5t55 -87.5
q45 63 121 101.5t166 38.5q71 0 133 -23.5t108.5 -64.5t73 -96t26.5 -118t-26.5 -118t-73 -96t-108.5 -64.5t-133 -23.5t-132.5 23.5t-108 64.5t-73 96t-26.5 118zM472 281q0 -31 12.5 -58t33.5 -47t49.5 -31.5t60.5 -11.5q33 0 61.5 11.5t50 31.5t33.5 47t12 58t-12 58
t-33.5 47t-50 32t-61.5 12q-32 0 -60.5 -12t-49.5 -32t-33.5 -47t-12.5 -58z" />
    <glyph glyph-name="ori_gha" unicode="&#xb18;" horiz-adv-x="1500" 
d="M1188 1117h208v-1117h-208v85q-49 -49 -107.5 -77.5t-115.5 -28.5q-69 0 -123.5 26.5t-90.5 65.5q-22 -19 -48 -35.5t-54.5 -29t-59 -20t-60.5 -7.5q-58 0 -104.5 22.5t-79.5 59t-50.5 82t-17.5 91.5q0 21 3 44q-98 60 -147.5 154t-49.5 202q0 103 45.5 194.5t129 160.5
t200 109t258.5 40q141 0 261 -39.5t211 -108.5v127zM911 332q-17 -26 -27.5 -51t-10.5 -55q0 -24 9 -41.5t22.5 -29t30 -17t31.5 -5.5q45 0 82.5 27t66 68t47 88.5t26.5 89.5v317q-21 56 -65.5 104t-106 83t-137.5 54.5t-159 19.5q-96 0 -179 -27.5t-144 -76.5t-96 -116.5
t-35 -148.5q0 -48 17 -96t59 -93q36 53 84 95t96 75l85 -101q-74 -66 -110.5 -123t-36.5 -123q0 -58 27.5 -87t60.5 -29q42 0 75 27.5t59 71.5t47.5 99t39.5 110z" />
    <glyph glyph-name="ori_nga" unicode="&#xb19;" horiz-adv-x="1686" 
d="M824 318l-141 95l262 367l135 -100l-113 -158q39 -17 69 -42t50.5 -55t31.5 -64t11 -68q0 -70 -29 -128t-81 -99t-124 -64t-159 -23q-81 0 -151.5 21t-125 58.5t-91 89.5t-48.5 114q-54 29 -98 70t-74.5 89t-47.5 100t-17 104q0 111 46.5 205t134.5 162.5t216 107
t291 38.5q106 0 195 -19t162.5 -54t132.5 -85t106 -112q45 0 84 -14t68 -38t46 -57.5t17 -73.5t-17 -74t-46.5 -58.5t-69.5 -38t-85 -13.5t-84.5 13.5t-68.5 38t-46 58.5t-17 74q0 38 15.5 70.5t41.5 56.5q-81 83 -192.5 127.5t-239.5 44.5q-58 0 -118 -10.5t-116.5 -31.5
t-105.5 -51.5t-86 -70.5t-58.5 -89t-21.5 -106q0 -51 18.5 -93t54.5 -79q33 81 107 141t192 80l37 -142q-91 -28 -134 -84.5t-43 -125.5q0 -39 15 -73.5t44 -60t73 -40.5t103 -15q53 0 92.5 16t66 40t39.5 52t13 52q0 37 -18 65.5t-42 46.5zM1310 685q0 -38 17 -60t37 -22
q19 0 37 22t18 60t-16 59.5t-39 21.5t-38.5 -21.5t-15.5 -59.5z" />
    <glyph glyph-name="ori_ca" unicode="&#xb1a;" horiz-adv-x="1526" 
d="M1172 440q35 39 55 89.5t20 101.5q0 75 -41.5 139.5t-110.5 112t-158 74.5t-185 27q-100 0 -188.5 -25.5t-154.5 -72t-104.5 -111.5t-38.5 -145q0 -72 36 -126.5t102 -92.5q21 38 52 70t71 54.5t86.5 35t97.5 12.5q71 0 133.5 -23.5t108.5 -64.5t72.5 -96t26.5 -118
t-26.5 -118t-72.5 -96t-108.5 -64.5t-133.5 -23.5q-66 0 -124 20.5t-103.5 56.5t-74.5 84.5t-36 104.5q-147 62 -218.5 159t-71.5 237q0 100 46.5 190t133 158.5t210.5 108.5t279 40q166 0 291.5 -43t209.5 -113.5t126.5 -161t42.5 -186.5q0 -86 -35 -165t-95 -149zM555 281
q0 -31 12.5 -58t33.5 -47t49.5 -31.5t60.5 -11.5q33 0 61.5 11.5t49.5 31.5t33.5 47t12.5 58t-12.5 58t-33.5 47t-49.5 32t-61.5 12q-32 0 -60.5 -12t-49.5 -32t-33.5 -47t-12.5 -58z" />
    <glyph glyph-name="ori_cha" unicode="&#xb1b;" horiz-adv-x="1440" 
d="M992 -24q-51 0 -91 11.5t-73 31t-60.5 44t-51.5 51.5q-25 -27 -52.5 -51.5t-60.5 -44t-73 -31t-91 -11.5q-53 0 -94 16t-69.5 45.5t-43.5 70t-15 89.5q0 45 19 86t56 72q-11 7 -22.5 13t-33 11.5t-57.5 10t-96 9.5l35 105q99 -8 183.5 -27.5t155.5 -45.5q-1 6 -2 11.5
t-1 11.5q-119 47 -172 120.5t-53 176.5q0 81 38.5 152t110.5 123t174 82t230 30q123 0 224.5 -30t175 -82t114 -123t40.5 -152q0 -72 -31.5 -135t-88.5 -129l-124 111q32 38 46 73.5t14 73.5q0 49 -29 92.5t-79 76t-117.5 51.5t-144.5 19q-81 0 -149 -18t-117 -49.5t-76 -74
t-27 -92.5q0 -55 24.5 -92.5t59.5 -59.5q35 51 92 83t129 32q57 0 105 -21t83.5 -56t55.5 -80t20 -92q0 -28 -6 -52q56 -1 100 -19t75 -48t47 -68.5t16 -79.5q0 -49 -15 -89.5t-43.5 -70t-69.5 -45.5t-94 -16zM618 436q0 -29 6 -55t18.5 -45.5t31.5 -31.5t44 -12
q24 0 42.5 13t31 34t19.5 47t7 52q0 28 -7.5 54.5t-21 46.5t-32 32t-39.5 12t-39.5 -10.5t-32 -30t-21 -46.5t-7.5 -60zM548 268q-23 11 -48.5 17.5t-56.5 6.5q-16 0 -33 -4.5t-30.5 -14t-22 -25.5t-8.5 -38q0 -15 4.5 -29t15.5 -24.5t29.5 -17t46.5 -6.5q48 0 94.5 20.5
t91.5 52.5l-28 26q-15 7 -28.5 16t-26.5 20zM822 227q-7 -5 -12.5 -10.5l-10.5 -10.5q46 -32 92.5 -52.5t94.5 -20.5q28 0 46.5 6.5t29.5 17t15.5 24.5t4.5 29q0 22 -8.5 38t-22 25.5t-30.5 14t-33 4.5q-54 0 -97 -20q-16 -14 -32.5 -25.5t-36.5 -19.5z" />
    <glyph glyph-name="ori_ja" unicode="&#xb1c;" horiz-adv-x="1660" 
d="M1235 0h-208v499l-164 -73q36 -32 52 -80t16 -98q0 -43 -19.5 -90.5t-61 -87t-105.5 -65.5t-154 -26t-155 30.5t-106 77.5t-60.5 105t-19.5 113q-75 51 -121 133t-46 194q0 110 56 203t154.5 160.5t233 105t291.5 37.5q105 0 200.5 -17.5t177.5 -50t148.5 -77.5
t113.5 -100t72.5 -118t25.5 -132q0 -72 -34.5 -154.5t-95.5 -168.5l-120 120q35 39 55 90t20 112q0 47 -21.5 90.5t-60 81.5t-91 69.5t-114.5 53.5t-130.5 34.5t-139.5 12.5q-119 0 -221 -29t-177 -78t-117.5 -113.5t-42.5 -134.5q0 -41 8 -72t32 -66q42 60 110 103.5
t153 72.5l49 -148q-40 -14 -73.5 -33.5t-58 -45.5t-38.5 -58.5t-14 -72.5q0 -37 11 -69t31.5 -56t50 -37.5t66.5 -13.5q31 0 59 11t49 30.5t33.5 46t12.5 56.5q0 57 -29 99t-78 63l595 282v-721z" />
    <glyph glyph-name="ori_jha" unicode="&#xb1d;" horiz-adv-x="1418" 
d="M1244 7l-90 -158l-266 179q-41 -23 -88 -36t-99 -13q-66 0 -123.5 20.5t-102.5 55.5t-74.5 83t-37.5 104q-70 33 -122.5 78t-87.5 99t-52.5 114.5t-17.5 123.5q0 100 41 181t113.5 138t172 88t216.5 31q37 0 80 -5t86 -15t85 -24t78 -32q-18 -16 -35.5 -43.5t-17.5 -67.5
q0 -23 7 -44t21.5 -37t37 -26t53.5 -10q24 0 44.5 8t36 22t24.5 34t9 43q0 43 -20.5 65.5t-57.5 43.5l93 133q83 -58 123.5 -120t40.5 -140q0 -33 -14.5 -75.5t-48 -80t-88.5 -63.5t-137 -26q-57 0 -109 13.5t-92 39.5t-64 63.5t-24 84.5q0 25 7 50.5t18 41.5q-7 3 -26 5.5
t-40.5 4.5t-41 3t-28.5 1q-70 0 -135 -18.5t-115 -54.5t-80 -89t-30 -123q0 -77 31 -137t96 -109q21 38 52.5 70t71 54.5t86.5 35t98 12.5q70 0 132.5 -23.5t108.5 -64.5t73 -96t27 -118q0 -42 -12.5 -81t-35.5 -73zM545 281q0 -31 12 -58t33 -47t49.5 -31.5t61.5 -11.5
q32 0 60.5 11.5t50 31.5t34 47t12.5 58t-12.5 58t-34 47t-50 32t-60.5 12q-33 0 -61.5 -12t-49.5 -32t-33 -47t-12 -58z" />
    <glyph glyph-name="ori_nya" unicode="&#xb1e;" horiz-adv-x="1435" 
d="M262 905q0 -68 34 -119.5t94 -86.5t142.5 -53t179.5 -18q87 0 166 11.5t139 38.5t95.5 71t35.5 108q0 22 -8.5 44.5t-24.5 41t-39.5 30t-53.5 11.5q-17 0 -34.5 -5.5t-32.5 -16.5t-24.5 -28.5t-9.5 -41.5v-126h-184v141q0 34 -23.5 55.5t-56.5 21.5q-16 0 -30.5 -6.5
t-25.5 -17t-17.5 -24.5t-6.5 -29q0 -20 5.5 -35.5t13 -27.5t16 -20.5t14.5 -15.5l-117 -92q-20 15 -40.5 35t-37 46t-27 57t-10.5 67q0 45 19.5 85t55 69t84.5 46t109 17q53 0 101 -19.5t77 -52.5q20 17 40.5 30.5t43.5 22.5t50.5 14t62.5 5q75 0 130.5 -24t91.5 -63
t54 -87.5t18 -97.5q0 -83 -36.5 -147.5t-100.5 -113.5q69 -38 103 -102t34 -132q0 -97 -50.5 -170.5t-135.5 -122.5t-197 -74t-235 -25q-131 0 -245.5 26.5t-200 80t-135 134.5t-49.5 190q0 135 96 243q-46 50 -71 112t-25 140q0 152 125 273l123 -112q-8 -8 -19.5 -22
t-22.5 -34t-19 -46.5t-8 -58.5zM262 410q0 -68 34 -119.5t94 -86.5t142.5 -53t179.5 -18q87 0 166 11.5t139 38.5t95.5 71t35.5 108q0 22 -8.5 44.5t-24.5 41t-39.5 30t-53.5 11.5q-17 0 -34.5 -5.5t-32.5 -16.5t-24.5 -28.5t-9.5 -41.5v-126h-184v141q0 25 -14 41t-37 21
l-48 2q-26 -5 -43.5 -21.5t-17.5 -42.5q0 -20 5.5 -35.5t13 -27.5t16 -20.5t14.5 -15.5l-117 -93q-20 15 -40.5 35.5t-37 46.5t-27 57t-10.5 67q0 52 23 88q-27 8 -53 18.5t-49 21.5q-17 -21 -35 -57t-18 -87z" />
    <glyph glyph-name="ori_tta" unicode="&#xb1f;" horiz-adv-x="1502" 
d="M1190 1117h208v-487h-208v93q-20 56 -61.5 104t-101 83t-133.5 54.5t-158 19.5q-97 0 -182.5 -25.5t-149 -72t-100 -111.5t-36.5 -143t29.5 -132t77.5 -84q21 37 52.5 68t71 53t85.5 34t96 12q71 0 133 -23.5t108.5 -64.5t73 -96t26.5 -118t-26.5 -118t-73 -96
t-108.5 -64.5t-133 -23.5q-66 0 -123.5 20t-102.5 55.5t-74 83t-37 103.5q-65 28 -113.5 71t-81 95.5t-49 112.5t-16.5 123q0 107 49 197.5t135.5 156.5t205 103.5t258.5 37.5q137 0 254 -38.5t205 -106.5v124zM524 281q0 -31 12.5 -58t33.5 -47t49.5 -31.5t60.5 -11.5
q33 0 61.5 11.5t50 31.5t33.5 47t12 58t-12 58t-33.5 47t-50 32t-61.5 12q-32 0 -60.5 -12t-49.5 -32t-33.5 -47t-12.5 -58z" />
    <glyph glyph-name="ori_ttha" unicode="&#xb20;" horiz-adv-x="1408" 
d="M83 558q0 120 49 225.5t132.5 184.5t194.5 124.5t235 45.5t234.5 -46t194 -125.5t132.5 -185t49 -225.5q0 -80 -22.5 -153.5t-62.5 -137.5t-96 -117t-124 -90.5t-145.5 -58t-159.5 -20.5q-124 0 -235 45.5t-194.5 124.5t-132.5 184t-49 225zM267 558q0 -88 33.5 -165.5
t91.5 -135t136 -91t166 -33.5t166 33.5t136 91t91.5 135t33.5 165.5t-33.5 166t-91.5 135.5t-136 91t-166 33.5t-166 -33.5t-136 -91t-91.5 -135.5t-33.5 -166z" />
    <glyph glyph-name="ori_dda" unicode="&#xb21;" horiz-adv-x="1566" 
d="M842 318l-140 95l262 367l134 -100l-112 -158q39 -17 69 -42t50.5 -55t31.5 -64t11 -68q0 -70 -29 -128t-81 -99t-124 -64t-159 -23q-79 0 -148.5 20t-123.5 56t-91 86.5t-51 111.5q-65 36 -113.5 81t-80.5 95t-48 104.5t-16 109.5q0 103 47.5 193t137 157t217 106
t287.5 39q159 0 286.5 -39t217.5 -106t138 -157t48 -193q0 -72 -34 -154.5t-96 -168.5l-119 120q35 39 55 90t20 112q0 70 -40.5 132.5t-110 109t-162.5 73.5t-198 27q-108 0 -201.5 -27t-162 -73.5t-107.5 -109t-39 -132.5q0 -65 22 -113.5t66 -86.5q15 42 41.5 79.5
t64 68.5t86.5 52.5t110 31.5l38 -142q-91 -28 -134 -84.5t-43 -125.5q0 -39 15 -73.5t44 -60t73 -40.5t103 -15q53 0 92.5 16t66 40t39.5 52t13 52q0 37 -18 65.5t-42 46.5z" />
    <glyph glyph-name="ori_ddha" unicode="&#xb22;" horiz-adv-x="1525" 
d="M1171 440q36 39 55.5 90t19.5 112q0 70 -39 132.5t-106 109t-157.5 73.5t-192.5 27q-99 0 -187 -27t-154 -73.5t-104.5 -109t-38.5 -132.5q0 -57 21 -104t67 -82q32 68 90.5 119.5t125.5 82.5l64 -111q-66 -43 -96.5 -97.5t-30.5 -126.5q0 -31 9 -61.5t27 -57t44.5 -46.5
t62.5 -30q-31 32 -46.5 68t-15.5 72t15.5 72.5t49 66.5t85.5 49t125 19q67 0 118.5 -21t86 -53t52 -72t17.5 -77q0 -61 -27.5 -111.5t-76.5 -86.5t-115.5 -55.5t-145.5 -19.5q-92 0 -168.5 22t-134 61t-93.5 91.5t-48 114.5q-55 26 -100.5 64t-77.5 86t-50 104.5t-18 120.5
q0 103 47 193t134 157t210.5 106t276.5 39q157 0 281.5 -39t210.5 -106t132 -157t46 -193q0 -72 -34 -154.5t-96 -168.5zM773 233q0 -21 7 -39t19.5 -31.5t29 -21.5t34.5 -8t34.5 8t29 21.5t20 31.5t7.5 39t-7 39t-19 31.5t-28.5 21.5t-35.5 8q-40 0 -65.5 -29t-25.5 -71z
" />
    <glyph glyph-name="ori_nna" unicode="&#xb23;" horiz-adv-x="1407" 
d="M852 699l-94 -132q-48 36 -106.5 63t-135.5 27q-50 0 -95 -17.5t-79.5 -50t-55 -79.5t-20.5 -106q0 -31 7.5 -58.5t19.5 -52.5q29 49 69 85t86.5 60t95.5 35.5t96 11.5q65 0 125 -17.5t105.5 -49t72.5 -74t27 -92.5q0 -53 -19.5 -94t-52 -71t-74 -51t-86 -33.5t-87.5 -18
t-78 -5.5q-102 0 -191 30t-155.5 85t-105 133.5t-38.5 176.5q0 67 22.5 127.5t63 111t96.5 87t123 55.5q-19 29 -30 58.5t-11 61.5q0 51 22.5 94t63 74t97.5 48t127 17q66 0 122 -12.5t107.5 -36.5t102.5 -60t106 -84v172h208v-1117h-208v682q-29 58 -72 112.5t-95.5 96.5
t-112.5 67.5t-123 25.5q-35 0 -64.5 -7t-51 -19.5t-33.5 -31t-12 -42.5q0 -23 9.5 -44t24.5 -40q49 -5 95.5 -18.5t84.5 -29t66 -30t41 -23.5zM640 332q-76 0 -131 -42.5t-84 -114.5q29 -17 76 -29.5t99 -12.5q29 0 62 7.5t60.5 21.5t45.5 33.5t18 44.5q0 23 -13 40
t-33.5 28.5t-46.5 17.5t-53 6z" />
    <glyph glyph-name="ori_ta" unicode="&#xb24;" horiz-adv-x="1525" 
d="M1171 440q36 39 55.5 90t19.5 112q0 70 -38 132.5t-104.5 109t-157 73.5t-195.5 27q-107 0 -196 -27t-153 -73.5t-99.5 -109t-35.5 -132.5q0 -64 22 -113t64 -84q30 62 86.5 116.5t131.5 96.5l74 -126q-30 -12 -55.5 -33t-43.5 -48t-28 -59.5t-10 -68.5q0 -44 17 -79.5
t45.5 -60t66 -37.5t79.5 -13q36 0 71 10.5t62.5 31.5t44.5 53t17 75q0 18 -3.5 30.5t-6.5 18.5q-14 -36 -41.5 -52.5t-59.5 -16.5q-21 0 -40 7.5t-33.5 21t-23.5 32.5t-9 41q0 30 12 52.5t33 37.5t48.5 22.5t59.5 7.5q57 0 103 -20.5t78.5 -54t49.5 -75.5t17 -84
q0 -65 -29.5 -119t-81 -92.5t-120.5 -59.5t-148 -21t-145.5 22.5t-117 61.5t-83 92t-42.5 115q-126 72 -185.5 168.5t-59.5 204.5q0 103 49.5 193t138 157t211 106t269.5 39q94 0 180.5 -17.5t161 -50t135 -77.5t103.5 -100t66.5 -118t23.5 -132q0 -72 -34 -154.5
t-96 -168.5z" />
    <glyph glyph-name="ori_tha" unicode="&#xb25;" horiz-adv-x="1376" 
d="M554 1138q108 0 182 -31t119.5 -77t65 -98t19.5 -94q0 -82 -29 -137.5t-76 -93t-107.5 -61t-124 -41t-124 -33.5t-107.5 -38t-76 -54.5t-29 -84.5q0 -39 20 -69t52 -51t71.5 -31.5t79.5 -10.5q67 0 131.5 22.5t124 58.5t111.5 82t93.5 93t71 90.5t42.5 74.5v563h208
v-1117h-208v274q-45 -58 -106 -111t-134.5 -94t-158 -65.5t-175.5 -24.5q-74 0 -147 19.5t-130.5 59t-93.5 99t-36 139.5q0 72 29 120t76.5 80.5t108 53t123.5 38t123.5 35t108 43t76.5 63.5t29 96q0 39 -17.5 68.5t-45.5 50t-62 30.5t-67 10q-32 0 -68 -7.5t-66 -23.5
t-49.5 -40t-19.5 -57q0 -20 5.5 -36t13.5 -28.5t16.5 -21t14.5 -13.5l-133 -100q-14 12 -31.5 30.5t-32.5 43.5t-25.5 57t-10.5 72q0 49 22.5 99t69 89.5t117 64.5t166.5 25z" />
    <glyph glyph-name="ori_da" unicode="&#xb26;" horiz-adv-x="1442" 
d="M1089 440q35 39 55 96t20 118q0 70 -32 130.5t-90 105t-139.5 69.5t-180.5 25q-92 0 -174.5 -25t-145 -69t-99.5 -104t-37 -131q0 -61 23.5 -105t69.5 -66q40 60 113 105.5t169 77.5l49 -153q-40 -9 -74 -23t-59 -33.5t-39 -44.5t-14 -56q0 -38 15 -63.5t37 -40.5
t47 -21.5t46 -6.5q36 0 67 17t53.5 46t35.5 68.5t13 84.5l208 77v-518h-208v133q-32 -24 -77.5 -39t-95.5 -15q-61 0 -116 19t-98.5 52.5t-72.5 78.5t-36 97q-56 21 -100.5 56t-75.5 79t-47 96.5t-16 108.5q0 98 49 184t134.5 150t202.5 101t253 37q133 0 246 -37
t195.5 -101.5t128.5 -153t46 -191.5q0 -72 -34 -160.5t-96 -174.5z" />
    <glyph glyph-name="ori_dha" unicode="&#xb27;" horiz-adv-x="1267" 
d="M771 569l-123 -100l-97 96q-27 8 -46 9t-33 1q-24 0 -59 -10.5t-68 -34t-56 -61.5t-23 -93q0 -59 22.5 -104.5t60 -76.5t85 -46.5t98.5 -15.5q54 0 107.5 14t106 38.5t105 58.5t104.5 74v799h208v-1117h-208v144q-36 -24 -83 -53t-102.5 -54t-118 -41.5t-129.5 -16.5
q-93 0 -173 29t-139 81.5t-93 126.5t-34 164q0 70 26 129t69 104t98.5 73.5t113.5 37.5l-302 298l125 116z" />
    <glyph glyph-name="ori_na" unicode="&#xb28;" horiz-adv-x="1422" 
d="M985 666v-666h-208v510q-66 -7 -119.5 -30.5t-92 -62t-59.5 -91t-21 -118.5q0 -36 4.5 -75t10.5 -73l-198 -92v100q0 63 7.5 121t23.5 109q-60 24 -106.5 60.5t-78.5 81.5t-48.5 97t-16.5 106q0 103 45 193t127 157t195 106t250 39q139 0 253 -39t195 -106t125.5 -157
t44.5 -193q0 -72 -34.5 -154.5t-95.5 -168.5l-120 120q35 39 55 90t20 112q0 70 -32 132.5t-90.5 109t-140.5 73.5t-183 27q-95 0 -174.5 -27t-136.5 -73.5t-88.5 -109t-31.5 -132.5q0 -36 10.5 -66t29 -54.5t43 -43.5t52.5 -31q70 106 183.5 162.5t268.5 56.5h132z" />
    <glyph glyph-name="ori_pa" unicode="&#xb2a;" horiz-adv-x="1268" 
d="M274 757q0 -38 13 -69.5t34.5 -56.5t49 -44.5t56.5 -32.5q60 45 128 76.5t129 54.5l59 -153q-53 -15 -106 -34t-95.5 -47.5t-69.5 -68t-27 -94.5q0 -47 18 -77t44.5 -47.5t57.5 -24t57 -6.5q57 0 109.5 21t96 51.5t76.5 66.5t52 66v471q-104 80 -210 127.5t-209 47.5
q-46 0 -93 -14t-84.5 -42t-61.5 -70.5t-24 -100.5zM262 281q0 57 19.5 104t54.5 87q-54 18 -100 48t-80 69.5t-53.5 88.5t-19.5 106q0 84 31 150t89.5 111t142.5 69t189 24q65 0 125.5 -15t114 -38t99.5 -50t82 -51v133h208v-1117h-208v133q-33 -33 -71 -61t-81 -48.5
t-89.5 -32.5t-95.5 -12q-76 0 -141 20t-113 58t-75.5 94.5t-27.5 129.5z" />
    <glyph glyph-name="ori_pha" unicode="&#xb2b;" horiz-adv-x="1597" 
d="M262 281q0 57 19.5 104t54.5 87q-54 18 -100 48t-80 69.5t-53.5 88.5t-19.5 106q0 84 31 150t89.5 111t142.5 69t189 24q65 0 125.5 -15t114 -38t99.5 -50t82 -51v133h208v-124q20 5 40.5 8.5t42.5 3.5q51 0 96 -15.5t78 -42.5t52.5 -63.5t19.5 -78.5t-19.5 -78.5
t-52.5 -63.5t-78 -43t-96 -16q-44 0 -83 12v-616h-208v133q-33 -33 -71 -61t-81 -48.5t-89.5 -32.5t-95.5 -12q-76 0 -141 20t-113 58t-75.5 94.5t-27.5 129.5zM274 757q0 -38 13 -69.5t34.5 -56.5t49 -44.5t56.5 -32.5q60 45 128 76.5t129 54.5l59 -153q-53 -15 -106 -34
t-95.5 -47.5t-69.5 -68t-27 -94.5q0 -47 18 -77t44.5 -47.5t57.5 -24t57 -6.5q57 0 109.5 21t96 51.5t76.5 66.5t52 66v471q-104 80 -210 127.5t-209 47.5q-46 0 -93 -14t-84.5 -42t-61.5 -70.5t-24 -100.5zM1164 805q0 -20 7 -38t19 -31.5t27 -21.5t31 -8t31 8t26 21.5
t18 31.5t7 38t-6.5 38t-18 31.5t-26.5 21t-31 7.5q-35 0 -59.5 -28.5t-24.5 -69.5z" />
    <glyph glyph-name="ori_ba" unicode="&#xb2c;" horiz-adv-x="1484" 
d="M1064 414v-414h-208v167q-26 -19 -72 -37t-108 -18q-48 0 -94.5 14.5t-86.5 40t-71.5 61t-50.5 78.5q-59 25 -112 60.5t-92.5 82t-62.5 103.5t-23 124q0 105 50 190.5t137 146t205.5 93t255.5 32.5t255.5 -39t206 -106t137.5 -157t50 -193q0 -72 -34 -154.5t-96 -168.5
l-120 120q35 39 55 90t20 112q0 70 -35 132.5t-98 109t-150 73.5t-191 27q-92 0 -176 -21t-148.5 -61t-102.5 -97t-38 -129q0 -65 26 -113.5t68 -78.5q14 50 46 92.5t77 73.5t101 48.5t117 17.5q72 0 137.5 -23.5t115.5 -64.5t80 -96t30 -118zM514 414q0 -31 14.5 -58
t40 -47.5t60 -32t73.5 -11.5t73 11.5t59.5 32t40.5 47.5t15 58t-15 58t-40.5 47t-59.5 32t-73 12t-73.5 -12t-60 -32t-40 -47t-14.5 -58z" />
    <glyph glyph-name="ori_bha" unicode="&#xb2d;" horiz-adv-x="1720" 
d="M840 984q-129 0 -234.5 -30t-181.5 -82t-117.5 -121t-41.5 -147q0 -126 94 -190q10 50 31.5 92t52 76t69 61.5t82.5 48.5l79 -140q-68 -41 -105 -88.5t-37 -120.5q0 -43 19.5 -81t53.5 -66.5t80 -45.5t98 -17q58 0 102.5 15.5t75.5 44.5q-7 -1 -14 -1h-14
q-56 0 -100 15.5t-75 42t-47.5 61t-16.5 72.5q0 34 7 63t21.5 55t36.5 51t52 51l85 -101q-32 -32 -43.5 -54t-11.5 -51q0 -27 10.5 -44.5t26.5 -28t34.5 -15t33.5 -4.5q23 0 46 18.5t28 56.5q-2 21 -6 38.5t-11.5 34.5t-19 34.5t-27.5 39.5l135 105q33 -54 52 -98t28.5 -81
t12 -66.5t2.5 -53.5q0 -70 -29 -134t-82 -113t-128 -78t-166 -29q-74 0 -140 18.5t-120 51.5t-93.5 79t-58.5 100q-146 57 -215.5 156.5t-69.5 233.5q0 60 21 122t63 120t105 108.5t147 88t189 59.5t232 22q117 0 218 -25.5t184.5 -69t148 -101.5t109 -123.5t67.5 -134.5
t23 -134q0 -62 -10.5 -114t-31.5 -97.5t-51.5 -87t-70.5 -83.5l190 -209l-153 -121l-241 377q49 38 84.5 80t57.5 85t32.5 86t10.5 84q0 49 -19.5 100t-55 99.5t-86.5 91t-114 74.5t-136.5 50.5t-155.5 18.5z" />
    <glyph glyph-name="ori_ma" unicode="&#xb2e;" horiz-adv-x="1264" 
d="M743 563q-35 -11 -78.5 -30.5t-89 -46.5t-91.5 -58.5t-86.5 -65.5t-73.5 -69t-52 -68q20 0 41.5 -8t39 -22.5t29 -35t11.5 -46.5q0 -23 -10.5 -43.5t-29.5 -36t-46.5 -24.5t-60.5 -9q-30 0 -59 10.5t-52 31t-37.5 50.5t-14.5 70q0 37 22 79.5t59.5 86t86 86.5t101.5 83
q-53 10 -101.5 38.5t-86 69.5t-59.5 91t-22 104q0 83 35 146.5t95.5 106t141.5 64t172 21.5q64 0 125 -12t115.5 -30.5t101.5 -42.5t83 -48v112h208v-1117h-208v830q-57 36 -105.5 65t-97 48.5t-101.5 30t-120 10.5q-38 0 -83 -10t-83.5 -32.5t-64 -57.5t-25.5 -85
q0 -43 17 -76t43 -55.5t57 -34t60 -11.5q33 0 56.5 2t46.5 8q61 35 101 52z" />
    <glyph glyph-name="ori_ya" unicode="&#xb2f;" horiz-adv-x="1448" 
d="M442 281q0 18 1.5 35t6.5 33q-60 -27 -106 -58.5t-66 -64.5q47 -16 70 -44.5t23 -60.5q0 -26 -11.5 -48t-31 -38t-45.5 -25.5t-56 -9.5q-29 0 -55.5 12.5t-46 33t-31 47t-11.5 55.5q0 60 36.5 112t92 96.5t120.5 80t121 61.5q-42 21 -76.5 50.5t-60 65.5t-39.5 79t-14 91
q0 84 31 150t89.5 111t142 69t188.5 24q65 0 125.5 -15t114.5 -38t100 -50t82 -51v133h208v-1117h-208v133q-33 -33 -71 -61t-81 -48.5t-89.5 -32.5t-95.5 -12q-76 0 -141 20t-113 58t-75.5 94.5t-27.5 129.5zM453 757q0 -38 13 -69.5t34.5 -56.5t49.5 -44.5t57 -32.5
q60 45 128 76.5t129 54.5l58 -153q-52 -15 -105 -34t-95.5 -47.5t-69.5 -68t-27 -94.5q0 -47 18 -77t44.5 -47.5t57.5 -24t57 -6.5q57 0 109.5 21t96 51.5t76.5 66.5t52 66v471q-104 80 -210 127.5t-209 47.5q-46 0 -93 -14t-85 -42t-62 -70.5t-24 -100.5z" />
    <glyph glyph-name="ori_ra" unicode="&#xb30;" horiz-adv-x="1578" 
d="M746 984q-102 0 -189.5 -29t-151.5 -78.5t-100.5 -114.5t-36.5 -136q0 -57 22.5 -108.5t68.5 -90.5q22 35 54.5 63.5t72 49t85 31.5t94.5 11q72 0 136 -23.5t112 -64.5t76 -95.5t28 -117.5t-28 -118t-76 -96t-112 -64.5t-136 -23.5q-66 0 -125 20t-106 55t-77.5 82.5
t-39.5 103.5q-60 37 -104 82t-73 95t-43 102.5t-14 105.5q0 106 45 199.5t130.5 163.5t208.5 110t279 40q117 0 214.5 -25.5t175.5 -69t136.5 -101.5t97.5 -123.5t58.5 -134.5t19.5 -134q0 -62 -10.5 -114t-31.5 -97.5t-52 -87t-71 -83.5l191 -209l-153 -121l-241 377
q49 38 84.5 80t57.5 85t32.5 86t10.5 84q0 49 -16 100t-46.5 99.5t-75 91t-102 74.5t-127.5 50.5t-152 18.5zM477 281q0 -31 15 -58t40.5 -47.5t60 -32t73.5 -11.5t73 11.5t59.5 32t40.5 47.5t15 58t-15 58t-40.5 47t-59.5 32t-73 12t-73.5 -12t-60 -32t-40.5 -47t-15 -58z
" />
    <glyph glyph-name="ori_la" unicode="&#xb32;" horiz-adv-x="1720" 
d="M1195 0h-208v401q0 46 -17.5 79t-52.5 33q-26 0 -48 -28t-22 -90v-395h-208v418q0 46 -17.5 70.5t-53.5 24.5q-32 0 -51 -26t-19 -69v-418h-208v234q-54 31 -93 73.5t-64.5 92.5t-37.5 105.5t-12 114.5q0 98 46 191.5t139.5 166t234.5 116.5t332 44q120 0 223 -25.5
t187 -69t148.5 -101.5t108 -123.5t66 -134.5t22.5 -134q0 -62 -10.5 -114t-31.5 -97.5t-51.5 -87t-70.5 -83.5l190 -209l-153 -121l-241 377q49 38 84.5 80t57.5 85t32.5 86t10.5 84q0 49 -18 100t-52 99.5t-83.5 91t-113 74.5t-140.5 50.5t-165 18.5q-144 0 -253 -30
t-181.5 -80t-109 -116t-36.5 -138q0 -48 7.5 -85.5t30.5 -66.5q7 45 32.5 82t61 62.5t78.5 39.5t87 14q48 0 94 -15.5t96 -65.5q40 47 89.5 64t96.5 17q53 0 101.5 -17t85 -47.5t58.5 -74t22 -97.5v-430z" />
    <glyph glyph-name="ori_lla" unicode="&#xb33;" horiz-adv-x="1597" 
d="M264 633q0 -48 6 -85t29 -80q7 45 32.5 82t61 62.5t78.5 39.5t87 14q48 0 94 -15.5t96 -65.5q40 47 89.5 64t96.5 17q53 0 101.5 -17t85 -47.5t58.5 -74t22 -97.5v-430h-208v401q0 46 -17.5 79t-52.5 33q-26 0 -48 -28t-22 -90v-395h-208v418q0 46 -17.5 70.5t-53.5 24.5
q-32 0 -51 -26t-19 -69v-418h-208v234q-54 31 -93.5 75.5t-65.5 97t-38.5 110t-12.5 116.5q0 103 49.5 194.5t140.5 160.5t220.5 109.5t290.5 40.5q165 0 296 -39t222 -106t139.5 -157t48.5 -193q0 -72 -34 -154.5t-96 -168.5l-119 120q35 39 55 90t20 112q0 70 -37 132.5
t-105 109t-166 73.5t-219 27q-119 0 -216.5 -28.5t-166.5 -76.5t-107 -112t-38 -134z" />
    <glyph glyph-name="ori_va" unicode="&#xb35;" horiz-adv-x="1484" 
d="M1066 414v-414h-208v159q-29 -19 -70.5 -33t-86.5 -14q-55 0 -106 14.5t-94 40t-76 61t-52 78.5q-59 25 -112 60.5t-92.5 82t-62.5 103.5t-23 124q0 105 50 190.5t137 146t205.5 93t255.5 32.5t255.5 -39t206 -106t137.5 -157t50 -193q0 -72 -34 -154.5t-96 -168.5
l-120 120q35 39 55 90t20 112q0 70 -35 132.5t-98 109t-150 73.5t-191 27q-92 0 -176 -21t-148.5 -61t-102.5 -97t-38 -129q0 -65 26 -113.5t68 -78.5q14 50 46 92.5t77 73.5t101 48.5t117 17.5q72 0 138 -23.5t116.5 -64.5t80.5 -96t30 -118zM514 414q0 -31 14.5 -58
t40 -47.5t60 -32t73.5 -11.5t73 11.5t59.5 32t40.5 47.5t15 58t-15 58t-40.5 47t-59.5 32t-73 12t-73.5 -12t-60 -32t-40 -47t-14.5 -58zM633 413q0 24 20 41.5t49 17.5t49.5 -17.5t20.5 -41.5t-20.5 -41.5t-49.5 -17.5t-49 17.5t-20 41.5z" />
    <glyph glyph-name="ori_sha" unicode="&#xb36;" horiz-adv-x="1476" 
d="M1164 1117h208v-1117h-208v700q-30 67 -79 120t-109.5 89.5t-129 55.5t-137.5 19q-35 0 -66 -6t-54.5 -18.5t-37 -32.5t-13.5 -48v-12q41 -4 78 -12.5t73 -24t72.5 -38t75.5 -53.5l-119 -106q-10 10 -30 28t-50.5 35t-72.5 29.5t-97 12.5q-44 0 -81 -12.5t-64 -35.5
t-42 -55t-15 -71q0 -46 19 -78t48 -54q45 68 122 109.5t173 41.5q71 0 133 -23.5t108.5 -64.5t73 -96t26.5 -118t-26.5 -118t-73 -96t-108.5 -64.5t-133 -23.5q-69 0 -130 22.5t-106.5 61.5t-73 92t-30.5 114q-44 20 -81 49t-65 66t-43.5 81.5t-15.5 95.5q0 57 21.5 106.5
t59.5 88t89.5 65.5t112.5 39q-11 27 -11 57q0 43 18 83t58.5 71t105.5 49t158 18q66 0 130 -13.5t124 -37.5t114 -58t101 -75v163zM472 281q0 -31 12.5 -58t33.5 -47t49.5 -31.5t60.5 -11.5q33 0 61.5 11.5t50 31.5t33.5 47t12 58t-12 58t-33.5 47t-50 32t-61.5 12
q-32 0 -60.5 -12t-49.5 -32t-33.5 -47t-12.5 -58z" />
    <glyph glyph-name="ori_ssa" unicode="&#xb37;" horiz-adv-x="1268" 
d="M262 281q0 57 19.5 104t54.5 87q-54 18 -100 48t-80 69.5t-53.5 88.5t-19.5 106q0 84 31 150t89.5 111t142.5 69t189 24q65 0 125.5 -15t114 -38t99.5 -50t82 -51v133h208v-1117h-208v133q-33 -33 -71 -61t-81 -48.5t-89.5 -32.5t-95.5 -12q-76 0 -141 20t-113 58
t-75.5 94.5t-27.5 129.5zM445 288q0 -47 18 -77t44.5 -47.5t57.5 -24t57 -6.5q49 0 94 15.5t84.5 39.5t72 53.5t55.5 58.5l-192 230q-51 -15 -103 -34t-94 -47.5t-68 -67.5t-26 -93zM956 809q-104 80 -210 127.5t-209 47.5h-8l427 -511v336zM274 757q0 -38 13 -69.5
t34.5 -56.5t49 -44.5t56.5 -32.5q47 34 98.5 60.5t101.5 47.5l-236 286q-51 -27 -84 -74t-33 -117z" />
    <glyph glyph-name="ori_sa" unicode="&#xb38;" horiz-adv-x="1268" 
d="M956 0l-868 210l291 243q-62 19 -116 49.5t-94 71.5t-63 91.5t-23 109.5q0 89 35 157t97.5 113.5t147.5 69t184 23.5q64 0 122.5 -15t110 -38t96 -50t80.5 -51v133h208v-1117h-208zM675 701l87 -120l-344 -285l538 -138v651q-52 40 -100.5 72t-97.5 55t-100.5 35.5
t-110.5 12.5q-44 0 -92.5 -13t-89 -40.5t-67 -70.5t-26.5 -104q0 -36 15 -69.5t42.5 -62t66 -50.5t84.5 -36z" />
    <glyph glyph-name="ori_ha" unicode="&#xb39;" horiz-adv-x="1442" 
d="M1089 440q35 39 55 96t20 118q0 70 -32 130.5t-90 105t-139.5 69.5t-180.5 25q-92 0 -174.5 -25t-145 -69t-99.5 -104t-37 -131q0 -61 23.5 -105t69.5 -66q40 60 113 105.5t169 77.5l49 -153q-40 -9 -74 -23t-59 -33.5t-39 -44.5t-14 -56q0 -38 15 -63.5t37 -40.5
t47 -21.5t46 -6.5q36 0 69 17t57.5 46t39.5 68.5t15 84.5l184 95v-536h-184v152q-10 -8 -21.5 -15.5t-25.5 -15.5l-260 -197l483 -151l-112 -79l-622 198l265 204q-42 13 -79 35.5t-65 52t-46.5 65.5t-24.5 77q-56 21 -100.5 56t-75.5 79t-47 96.5t-16 108.5q0 98 49 184
t134.5 150t202.5 101t253 37q133 0 246 -37t195.5 -101.5t128.5 -153t46 -191.5q0 -72 -34 -160.5t-96 -174.5z" />
    <glyph glyph-name="ori_nukta" unicode="&#xb3c;" 
d="M-114 -268q0 24 9 44.5t24.5 36t36 24.5t44.5 9t44.5 -9t36.5 -24.5t25 -36t9 -44.5t-9 -44.5t-25 -36.5t-36.5 -25t-44.5 -9t-44.5 9t-36 25t-24.5 36.5t-9 44.5z" />
    <glyph glyph-name="ori_avagraha" unicode="&#xb3d;" horiz-adv-x="889" 
d="M779 171l-69 -109l-626 351l380 184l-381 215l619 300l83 -136l-397 -182q94 -54 194.5 -111t193.5 -110l-388 -180z" />
    <glyph glyph-name="ori_aa_matra" unicode="&#xb3e;" horiz-adv-x="462" 
d="M358 0h-208v1117h208v-1117z" />
    <glyph glyph-name="ori_i_matra" unicode="&#xb3f;" 
d="M0 1447q-35 0 -81.5 -2.5t-107 -16t-136.5 -43.5t-170 -85l-72 98q32 23 87.5 57.5t129 67t162.5 55.5t188 23t188 -23t162.5 -55.5t129 -67t87.5 -57.5l-72 -98q-94 55 -170 85t-136.5 43.5t-107 16t-81.5 2.5z" />
    <glyph glyph-name="ori_ii_matra" unicode="&#xb40;" horiz-adv-x="577" 
d="M473 0h-208v921l-101 -78l-81 110l390 285v-1238z" />
    <glyph glyph-name="ori_u_matra" unicode="&#xb41;" 
d="M-104 29h208v-255q0 -59 -20 -108q26 -24 53.5 -39t57.5 -15q20 0 39 6.5t36 16.5t32 22t27 23l72 -116q-10 -9 -27 -23t-42 -27t-59 -22.5t-78 -9.5t-86 27.5t-84 66.5q-44 -46 -104.5 -70t-125.5 -24q-53 0 -102 11.5t-86.5 37t-60 66t-22.5 97.5q0 52 22.5 88.5
t55.5 59.5t72 33t72 10q45 0 81.5 -12.5t68.5 -33.5v190zM-238 -226q-42 0 -67 -23t-25 -59q0 -21 9 -36t23 -24.5t30 -14.5t31 -5q28 0 49 8.5t35.5 22t24 31.5t14.5 38q-32 27 -62.5 44.5t-61.5 17.5z" />
    <glyph glyph-name="ori_uu_matra" unicode="&#xb42;" 
d="M200 -282l238 -178l-90 -122l-188 137q-44 -60 -101 -89.5t-137 -29.5q-54 0 -98 16.5t-75 45.5t-48 70t-17 89q0 53 17.5 91t47 64.5t67.5 43.5t80 28v155h208v-233q-45 -6 -92.5 -14t-86.5 -23.5t-64.5 -42.5t-25.5 -70q0 -46 29 -73t71 -27q34 0 62 18t49.5 42.5
t36 50.5t21.5 41z" />
    <glyph glyph-name="ori_ri_matra" unicode="&#xb43;" 
d="M228 -143q33 -11 67 -31t61.5 -48.5t44.5 -64t17 -77.5q0 -50 -21.5 -98.5t-65 -86.5t-109.5 -61.5t-156 -23.5q-57 0 -118.5 14.5t-112 47.5t-83 86t-32.5 130q0 45 13 81t36.5 66t56 53.5t70.5 42.5v152h208v-224q-43 -7 -81 -20t-66 -33.5t-44.5 -50t-16.5 -69.5
q0 -33 14.5 -59t39 -44t58 -27.5t71.5 -9.5q40 0 72.5 10.5t56 28.5t36.5 42.5t13 52.5q0 13 -2.5 26t-11 26.5t-24.5 29t-43 33.5z" />
    <glyph glyph-name="ori_rri_matra" unicode="&#xb44;" 
d="M-224 -318q0 -27 13 -52t36 -42q3 29 18.5 59t41 54t59 39t72.5 15q37 0 67 -11t51 -30t32.5 -45t11.5 -57q0 -53 -28 -88t-68.5 -56t-86 -29.5t-80.5 -8.5q-59 0 -114 15t-98 45t-68.5 75.5t-25.5 106.5q0 83 52.5 139.5t166.5 79.5q-17 12 -28 26.5t-11 31.5
q0 21 12.5 36t33 25t45 15t48.5 5h176v-77h-128q-22 0 -22 -10q0 -7 8.5 -16.5t23 -20.5t34 -22.5t42.5 -21.5l-36 -65q-20 11 -43 15.5t-46 4.5q-30 0 -59 -8t-51.5 -25t-36.5 -42.5t-14 -59.5zM-74 -407q0 -13 5 -31q29 2 48 9t30.5 16t16.5 20t5 20q0 17 -11 31t-34 14
q-29 0 -44.5 -24t-15.5 -55z" />
    <glyph glyph-name="ori_e_matra" unicode="&#xb47;" horiz-adv-x="1075" 
d="M586 984q-70 0 -123.5 -28.5t-92 -75t-63 -105t-35.5 -118.5q28 13 61 24t68.5 19.5t72 13.5t69.5 5q103 0 181.5 -27t131.5 -74t80 -111.5t27 -140.5t-24 -146t-73.5 -123.5t-125.5 -85.5t-179 -32q-96 0 -182.5 37t-152 111t-104.5 185.5t-39 260.5q0 113 32 215.5
t94.5 180t155 123.5t213.5 46q80 0 143 -18.5t110.5 -48.5t82 -67.5t57.5 -75.5l-102 -95q-39 51 -76.5 81t-73 45.5t-69 20t-64.5 4.5zM543 573q-27 0 -61.5 -6.5t-71 -18.5t-72.5 -29.5t-66 -39.5q4 -77 29.5 -140.5t65.5 -109.5t92.5 -71t111.5 -25q40 0 78 15.5
t66.5 44.5t46 71t17.5 95q0 48 -18 87.5t-49.5 67.5t-75 43.5t-93.5 15.5z" />
    <glyph glyph-name="ori_ai_matra" unicode="&#xb48;" horiz-adv-x="2271" 
d="M586 984q-70 0 -123.5 -28.5t-92 -75t-63 -105t-35.5 -118.5q28 13 61 24t68.5 19.5t72 13.5t69.5 5q103 0 181.5 -27t131.5 -74t80 -111.5t27 -140.5t-24 -146t-73.5 -123.5t-125.5 -85.5t-179 -32q-96 0 -182.5 37t-152 111t-104.5 185.5t-39 260.5q0 113 32 215.5
t94.5 180t155 123.5t213.5 46q80 0 143 -18.5t110.5 -48.5t82 -67.5t57.5 -75.5l-102 -95q-39 51 -76.5 81t-73 45.5t-69 20t-64.5 4.5zM543 573q-27 0 -61.5 -6.5t-71 -18.5t-72.5 -29.5t-66 -39.5q4 -77 29.5 -140.5t65.5 -109.5t92.5 -71t111.5 -25q40 0 78 15.5
t66.5 44.5t46 71t17.5 95q0 48 -18 87.5t-49.5 67.5t-75 43.5t-93.5 15.5zM1878 1117q29 27 52 57q20 25 36 56t16 60q0 54 -37 86t-94 32q-45 0 -87.5 -12t-84 -30t-84 -39t-86.5 -39t-91 -30t-99 -12q-65 0 -116 15t-91.5 41.5t-72 63t-57.5 78.5l120 91
q31 -54 61.5 -89.5t61 -57.5t59.5 -31t57 -9q35 0 72.5 16.5t78.5 41t85.5 53.5t94 53.5t105 41t117.5 16.5q54 0 102.5 -17.5t86 -49t59.5 -77t22 -100.5q0 -38 -10 -72t-23 -62t-26 -47.5t-19 -27.5h-208zM1276 899q0 29 20 51t53 22q30 0 49.5 -22t19.5 -51
q0 -34 -19.5 -52.5t-49.5 -18.5q-33 0 -53 18.5t-20 52.5zM1128 690q0 34 19 52.5t52 18.5q27 0 48 -18.5t21 -52.5q0 -33 -21 -52t-48 -19q-33 0 -52 19t-19 52zM1099 450q0 34 20 52.5t51 18.5t52 -18.5t21 -52.5q0 -29 -21 -49t-52 -20t-51 20t-20 49zM1199 231
q0 33 20 52t49 19t50 -19t21 -52q0 -31 -21 -51t-50 -20t-49 20t-20 51zM1387 89q0 32 21 50.5t54 18.5q27 0 47 -18.5t20 -50.5q0 -33 -20 -52t-47 -19q-33 0 -54 19t-21 52zM1631 60q0 29 19 50t50 21q33 0 52 -21t19 -50q0 -33 -19 -53t-52 -20q-31 0 -50 20t-19 53z
M1858 158q0 33 19 53t50 20q34 0 52.5 -20t18.5 -53q0 -29 -18.5 -49t-52.5 -20q-31 0 -50 20t-19 49zM1994 344q0 33 21 52t50 19q31 0 51 -19t20 -52q0 -29 -20 -50t-51 -21q-29 0 -50 21t-21 50zM2015 598q0 34 20 52.5t49 18.5q33 0 53 -18.5t20 -52.5q0 -33 -20 -52
t-53 -19q-29 0 -49 19t-20 52zM1921 826q0 12 5.5 25t15 23t22.5 16.5t28 6.5q26 0 49 -23q22 -22 22 -48q0 -34 -22 -54.5t-49 -20.5q-31 0 -51 20.5t-20 54.5zM1740 951q0 29 20.5 50t54.5 21q29 0 47.5 -21t18.5 -50q0 -31 -18.5 -51t-47.5 -20q-34 0 -54.5 20t-20.5 51z
M1504 978q0 31 18.5 51t52.5 20q31 0 50 -20t19 -51t-19 -52t-50 -21q-34 0 -52.5 21t-18.5 52z" />
    <glyph glyph-name="ori_o_matra" unicode="&#xb4b;" horiz-adv-x="2555" 
d="M586 984q-70 0 -123.5 -28.5t-92 -75t-63 -105t-35.5 -118.5q28 13 61 24t68.5 19.5t72 13.5t69.5 5q103 0 181.5 -27t131.5 -74t80 -111.5t27 -140.5t-24 -146t-73.5 -123.5t-125.5 -85.5t-179 -32q-96 0 -182.5 37t-152 111t-104.5 185.5t-39 260.5q0 113 32 215.5
t94.5 180t155 123.5t213.5 46q80 0 143 -18.5t110.5 -48.5t82 -67.5t57.5 -75.5l-102 -95q-39 51 -76.5 81t-73 45.5t-69 20t-64.5 4.5zM543 573q-27 0 -61.5 -6.5t-71 -18.5t-72.5 -29.5t-66 -39.5q4 -77 29.5 -140.5t65.5 -109.5t92.5 -71t111.5 -25q40 0 78 15.5
t66.5 44.5t46 71t17.5 95q0 48 -18 87.5t-49.5 67.5t-75 43.5t-93.5 15.5zM2452 0h-208v1117h208v-1117zM1276 899q0 29 20 51t53 22q30 0 49.5 -22t19.5 -51q0 -34 -19.5 -52.5t-49.5 -18.5q-33 0 -53 18.5t-20 52.5zM1128 690q0 34 19 52.5t52 18.5q27 0 48 -18.5
t21 -52.5q0 -33 -21 -52t-48 -19q-33 0 -52 19t-19 52zM1099 450q0 34 20 52.5t51 18.5t52 -18.5t21 -52.5q0 -29 -21 -49t-52 -20t-51 20t-20 49zM1199 231q0 33 20 52t49 19t50 -19t21 -52q0 -31 -21 -51t-50 -20t-49 20t-20 51zM1387 89q0 32 21 50.5t54 18.5
q27 0 47 -18.5t20 -50.5q0 -33 -20 -52t-47 -19q-33 0 -54 19t-21 52zM1631 60q0 29 19 50t50 21q33 0 52 -21t19 -50q0 -33 -19 -53t-52 -20q-31 0 -50 20t-19 53zM1858 158q0 33 19 53t50 20q34 0 52.5 -20t18.5 -53q0 -29 -18.5 -49t-52.5 -20q-31 0 -50 20t-19 49z
M1994 344q0 33 21 52t50 19q31 0 51 -19t20 -52q0 -29 -20 -50t-51 -21q-29 0 -50 21t-21 50zM2015 598q0 34 20 52.5t49 18.5q33 0 53 -18.5t20 -52.5q0 -33 -20 -52t-53 -19q-29 0 -49 19t-20 52zM1921 826q0 12 5.5 25t15 23t22.5 16.5t28 6.5q26 0 49 -23q22 -22 22 -48
q0 -34 -22 -54.5t-49 -20.5q-31 0 -51 20.5t-20 54.5zM1740 951q0 29 20.5 50t54.5 21q29 0 47.5 -21t18.5 -50q0 -31 -18.5 -51t-47.5 -20q-34 0 -54.5 20t-20.5 51zM1504 978q0 31 18.5 51t52.5 20q31 0 50 -20t19 -51t-19 -52t-50 -21q-34 0 -52.5 21t-18.5 52z" />
    <glyph glyph-name="ori_au_matra" unicode="&#xb4c;" horiz-adv-x="2622" 
d="M586 984q-70 0 -123.5 -28.5t-92 -75t-63 -105t-35.5 -118.5q28 13 61 24t68.5 19.5t72 13.5t69.5 5q103 0 181.5 -27t131.5 -74t80 -111.5t27 -140.5t-24 -146t-73.5 -123.5t-125.5 -85.5t-179 -32q-96 0 -182.5 37t-152 111t-104.5 185.5t-39 260.5q0 113 32 215.5
t94.5 180t155 123.5t213.5 46q80 0 143 -18.5t110.5 -48.5t82 -67.5t57.5 -75.5l-102 -95q-39 51 -76.5 81t-73 45.5t-69 20t-64.5 4.5zM543 573q-27 0 -61.5 -6.5t-71 -18.5t-72.5 -29.5t-66 -39.5q4 -77 29.5 -140.5t65.5 -109.5t92.5 -71t111.5 -25q40 0 78 15.5
t66.5 44.5t46 71t17.5 95q0 48 -18 87.5t-49.5 67.5t-75 43.5t-93.5 15.5zM2232 1117q29 27 52 57q20 25 36 56t16 60q0 54 -37 86t-94 32q-45 0 -87.5 -12t-84 -30t-84 -39t-86.5 -39t-91 -30t-99 -12q-65 0 -116 15t-91.5 41.5t-72 63t-57.5 78.5l120 91
q31 -54 61.5 -89.5t61 -57.5t59.5 -31t57 -9q35 0 72.5 16.5t78.5 41t85.5 53.5t94 53.5t105 41t117.5 16.5q54 0 102.5 -17.5t86 -49t59.5 -77t22 -100.5q0 -38 -10 -72t-23 -62t-26 -47.5t-19 -27.5v-1117h-208v1117zM1276 899q0 29 20 51t53 22q30 0 49.5 -22t19.5 -51
q0 -34 -19.5 -52.5t-49.5 -18.5q-33 0 -53 18.5t-20 52.5zM1128 690q0 34 19 52.5t52 18.5q27 0 48 -18.5t21 -52.5q0 -33 -21 -52t-48 -19q-33 0 -52 19t-19 52zM1099 450q0 34 20 52.5t51 18.5t52 -18.5t21 -52.5q0 -29 -21 -49t-52 -20t-51 20t-20 49zM1199 231
q0 33 20 52t49 19t50 -19t21 -52q0 -31 -21 -51t-50 -20t-49 20t-20 51zM1387 89q0 32 21 50.5t54 18.5q27 0 47 -18.5t20 -50.5q0 -33 -20 -52t-47 -19q-33 0 -54 19t-21 52zM1631 60q0 29 19 50t50 21q33 0 52 -21t19 -50q0 -33 -19 -53t-52 -20q-31 0 -50 20t-19 53z
M1858 158q0 33 19 53t50 20q34 0 52.5 -20t18.5 -53q0 -29 -18.5 -49t-52.5 -20q-31 0 -50 20t-19 49zM1994 344q0 33 21 52t50 19q31 0 51 -19t20 -52q0 -29 -20 -50t-51 -21q-29 0 -50 21t-21 50zM2015 598q0 34 20 52.5t49 18.5q33 0 53 -18.5t20 -52.5q0 -33 -20 -52
t-53 -19q-29 0 -49 19t-20 52zM1921 826q0 12 5.5 25t15 23t22.5 16.5t28 6.5q26 0 49 -23q22 -22 22 -48q0 -34 -22 -54.5t-49 -20.5q-31 0 -51 20.5t-20 54.5zM1740 951q0 29 20.5 50t54.5 21q29 0 47.5 -21t18.5 -50q0 -31 -18.5 -51t-47.5 -20q-34 0 -54.5 20t-20.5 51z
M1504 978q0 31 18.5 51t52.5 20q31 0 50 -20t19 -51t-19 -52t-50 -21q-34 0 -52.5 21t-18.5 52z" />
    <glyph glyph-name="ori_virama" unicode="&#xb4d;" 
d="M356 -291l-119 -131l-339 315l102 101z" />
    <glyph glyph-name="ori_aimark" unicode="&#xb56;" 
d="M-312 1117q29 27 52 57q20 25 36 56t16 60q0 54 -37 86t-94 32q-45 0 -87.5 -12t-84 -30t-84 -39t-86.5 -39t-91 -30t-99 -12q-65 0 -116 15t-91.5 41.5t-72 63t-57.5 78.5l120 91q31 -54 61.5 -89.5t61 -57.5t59.5 -31t57 -9q35 0 72.5 16.5t78.5 41t85.5 53.5t94 53.5
t105 41t117.5 16.5q54 0 102.5 -17.5t86 -49t59.5 -77t22 -100.5q0 -38 -10 -72t-23 -62t-26 -47.5t-19 -27.5h-208z" />
    <glyph glyph-name="ori_aumark" unicode="&#xb57;" horiz-adv-x="473" 
d="M83 1117q29 27 52 57q20 25 36 56t16 60q0 54 -37 86t-94 32q-45 0 -87.5 -12t-84 -30t-84 -39t-86.5 -39t-91 -30t-99 -12q-65 0 -116 15t-91.5 41.5t-72 63t-57.5 78.5l120 91q31 -54 61.5 -89.5t61 -57.5t59.5 -31t57 -9q35 0 72.5 16.5t78.5 41t85.5 53.5t94 53.5
t105 41t117.5 16.5q54 0 102.5 -17.5t86 -49t59.5 -77t22 -100.5q0 -38 -10 -72t-23 -62t-26 -47.5t-19 -27.5v-1117h-208v1117z" />
    <glyph glyph-name="ori_rra" unicode="&#xb5c;" horiz-adv-x="1566" 
d="M842 318l-140 95l262 367l134 -100l-112 -158q39 -17 69 -42t50.5 -55t31.5 -64t11 -68q0 -70 -29 -128t-81 -99t-124 -64t-159 -23q-79 0 -148.5 20t-123.5 56t-91 86.5t-51 111.5q-65 36 -113.5 81t-80.5 95t-48 104.5t-16 109.5q0 103 47.5 193t137 157t217 106
t287.5 39q159 0 286.5 -39t217.5 -106t138 -157t48 -193q0 -72 -34 -154.5t-96 -168.5l-119 120q35 39 55 90t20 112q0 70 -40.5 132.5t-110 109t-162.5 73.5t-198 27q-108 0 -201.5 -27t-162 -73.5t-107.5 -109t-39 -132.5q0 -65 22 -113.5t66 -86.5q15 42 41.5 79.5
t64 68.5t86.5 52.5t110 31.5l38 -142q-91 -28 -134 -84.5t-43 -125.5q0 -39 15 -73.5t44 -60t73 -40.5t103 -15q53 0 92.5 16t66 40t39.5 52t13 52q0 37 -18 65.5t-42 46.5zM646 -268q0 24 9 44.5t24.5 36t36 24.5t44.5 9t44.5 -9t36.5 -24.5t25 -36t9 -44.5t-9 -44.5
t-25 -36.5t-36.5 -25t-44.5 -9t-44.5 9t-36 25t-24.5 36.5t-9 44.5z" />
    <glyph glyph-name="ori_rha" unicode="&#xb5d;" horiz-adv-x="1525" 
d="M1171 440q36 39 55.5 90t19.5 112q0 70 -39 132.5t-106 109t-157.5 73.5t-192.5 27q-99 0 -187 -27t-154 -73.5t-104.5 -109t-38.5 -132.5q0 -57 21 -104t67 -82q32 68 90.5 119.5t125.5 82.5l64 -111q-66 -43 -96.5 -97.5t-30.5 -126.5q0 -31 9 -61.5t27 -57t44.5 -46.5
t62.5 -30q-31 32 -46.5 68t-15.5 72t15.5 72.5t49 66.5t85.5 49t125 19q67 0 118.5 -21t86 -53t52 -72t17.5 -77q0 -61 -27.5 -111.5t-76.5 -86.5t-115.5 -55.5t-145.5 -19.5q-92 0 -168.5 22t-134 61t-93.5 91.5t-48 114.5q-55 26 -100.5 64t-77.5 86t-50 104.5t-18 120.5
q0 103 47 193t134 157t210.5 106t276.5 39q157 0 281.5 -39t210.5 -106t132 -157t46 -193q0 -72 -34 -154.5t-96 -168.5zM773 233q0 -21 7 -39t19.5 -31.5t29 -21.5t34.5 -8t34.5 8t29 21.5t20 31.5t7.5 39t-7 39t-19 31.5t-28.5 21.5t-35.5 8q-40 0 -65.5 -29t-25.5 -71z
M662 -268q0 24 9 44.5t24.5 36t36 24.5t44.5 9t44.5 -9t36.5 -24.5t25 -36t9 -44.5t-9 -44.5t-25 -36.5t-36.5 -25t-44.5 -9t-44.5 9t-36 25t-24.5 36.5t-9 44.5z" />
    <glyph glyph-name="ori_yya" unicode="&#xb5f;" horiz-adv-x="1569" 
d="M753 -24q-149 0 -230 79t-81 226q0 18 1.5 35t6.5 33q-60 -27 -106 -58.5t-66 -64.5q47 -16 70 -44.5t23 -60.5q0 -26 -11.5 -48t-31 -38t-45.5 -25.5t-56 -9.5q-29 0 -55.5 12.5t-46 33t-31 47t-11.5 55.5q0 60 36.5 112t92 96.5t120.5 80t121 61.5q-42 21 -76.5 50.5
t-60 65.5t-39.5 79t-14 91q0 84 31 150t89.5 111t142 69t188.5 24q65 0 125.5 -15t114.5 -38t100 -50t82 -51v133h208v-718q60 -23 90.5 -69t30.5 -106q0 -32 -16.5 -60.5t-41.5 -53t-56 -44t-59 -32.5l164 -112l-100 -100l-298 250q27 4 67 19.5t77.5 39.5t64.5 57t27 74
q0 29 -21 43t-42 14q-30 0 -59.5 -25.5t-61 -63.5t-67 -82.5t-78.5 -82.5t-95 -63.5t-117 -25.5zM1136 809q-104 80 -210 127.5t-209 47.5q-46 0 -93 -14t-85 -42t-62 -70.5t-24 -100.5q0 -38 13 -69.5t34.5 -56.5t49.5 -44.5t57 -32.5q60 45 128 76.5t129 54.5l58 -153
q-52 -15 -105 -35.5t-95.5 -50.5t-69.5 -71t-27 -95q0 -44 14 -72.5t34 -45t42 -23t38 -6.5q32 0 62.5 15.5t60 40t59.5 55t61.5 60t66 55.5t73.5 41v409z" />
    <glyph glyph-name="ori_rri" unicode="&#xb60;" horiz-adv-x="1609" 
d="M775 984q-99 0 -191 -28t-162.5 -77t-112.5 -117t-42 -147q0 -78 34.5 -140.5t94.5 -107.5q16 47 47 86.5t74 68.5t95.5 45t110.5 16q70 0 132.5 -23.5t108.5 -64.5t73 -96t27 -118t-27 -118t-73 -96t-108.5 -64.5t-132.5 -23.5q-57 0 -109 15.5t-94.5 43.5t-74 66.5
t-47.5 83.5q-158 63 -236.5 171.5t-78.5 255.5q0 78 26.5 147.5t73.5 127.5t112 104t142 78t163 49t176 17q160 0 284.5 -36.5t210 -92t130 -121.5t44.5 -126q0 -29 -10 -53.5t-24 -44.5t-30 -35t-29 -25q81 -24 117 -64t36 -88q0 -28 -11 -49t-28 -37.5t-38.5 -28
t-42.5 -19.5q24 -6 45.5 -16t38 -25t26.5 -35t10 -46q0 -23 -11 -43t-30.5 -38t-47 -35t-60.5 -35l141 -151l-140 -111l-230 332q48 0 84.5 8t61 20t36.5 27.5t12 31.5q0 21 -16.5 33.5t-43 19t-60 9t-66.5 2.5v101q93 2 139.5 25t46.5 61q0 19 -16.5 32t-43 21t-60 12
t-66.5 4v84q9 6 23 16.5t28 27t24 40t10 55.5q0 45 -30.5 88t-88 76.5t-140 54t-186.5 20.5zM566 281q0 -31 12 -58t33.5 -47t50 -31.5t61.5 -11.5q32 0 60.5 11.5t50 31.5t34 47t12.5 58t-12.5 58t-34 47t-50 32t-60.5 12q-33 0 -61.5 -12t-50 -32t-33.5 -47t-12 -58z" />
    <glyph glyph-name="ori_lli" unicode="&#xb61;" horiz-adv-x="1151" 
d="M1021 -110l-57 -125q-26 12 -63.5 32t-81 47t-88.5 61.5t-85 76.5q-33 -3 -68 -3q-90 0 -179 21.5t-159 64.5t-113.5 107t-43.5 149q0 75 28 126t73.5 86t103.5 57.5t118.5 41t118.5 36t103.5 41.5t73.5 59t28 88q0 27 -15 50.5t-39.5 40.5t-57 27t-68.5 10
q-28 0 -57.5 -5.5t-54 -18.5t-40.5 -34t-16 -51q0 -20 4 -36.5t11 -29.5l-162 -62q-16 32 -25.5 69t-9.5 72q0 52 24.5 98t70 79.5t109.5 53t143 19.5q98 0 168 -26.5t114.5 -68t65 -91t20.5 -94.5q0 -72 -28 -123.5t-73.5 -88t-104 -61.5t-119 -45t-119 -38.5t-104 -41.5
t-73.5 -54t-28 -77q0 -44 25 -78.5t64.5 -59.5t89 -39t98.5 -18q-26 64 -26 134q0 53 19.5 98t54.5 77.5t82.5 51t104.5 18.5q62 0 112 -18.5t85 -50t53.5 -73t18.5 -87.5q0 -51 -15.5 -93t-44.5 -76t-70 -59t-91 -41q30 -27 60 -48t57 -37t47.5 -26t30.5 -14zM862 303
q0 13 -4.5 28.5t-15 28.5t-26.5 21.5t-39 8.5q-34 0 -59.5 -26.5t-25.5 -80.5q0 -70 29 -130q64 21 102.5 59.5t38.5 90.5z" />
    <glyph glyph-name="ori_li_matra" unicode="&#xb62;" 
d="M-282 -451q0 -21 11.5 -38t25.5 -27q22 9 35.5 24.5t13.5 40.5q0 21 -10.5 37t-30.5 16q-19 0 -32 -14t-13 -39zM-510 -219q-8 15 -12.5 33.5t-4.5 36.5q0 26 12 49t34.5 40t54.5 26.5t72 9.5q49 0 84 -13.5t57 -34t32.5 -45.5t10.5 -47q0 -48 -24 -78t-60 -49.5
t-78 -31.5t-78 -25.5t-60 -31.5t-24 -48q0 -24 16 -42.5t40.5 -30.5t53.5 -18.5t55 -6.5q-20 17 -30 39t-10 43q0 23 10 42.5t27 34t41 22.5t53 8q31 0 56 -9t42 -25t26.5 -36.5t9.5 -43.5q0 -39 -18 -67.5t-49.5 -47.5t-74.5 -28t-92 -9q-45 0 -89.5 10.5t-80 32t-57 53.5
t-21.5 74q0 50 24 79t60 47t78 29t78 24.5t60 33.5t24 55q0 27 -27.5 45.5t-63.5 18.5q-14 0 -28.5 -3t-27 -9.5t-20.5 -17t-8 -25.5q0 -20 9 -32z" />
    <glyph glyph-name="ori_lli_matra" unicode="&#xb63;" 
d="M-116 -648l-30 -62q-39 20 -81.5 45.5t-77.5 62.5q-8 0 -16.5 -0.5t-16.5 -0.5q-45 0 -89.5 10.5t-80 32t-57 53.5t-21.5 74q0 50 24 79t60 47t78 29t78 24.5t60 33.5t24 55q0 27 -27.5 45.5t-63.5 18.5q-14 0 -28.5 -3t-27 -9.5t-20.5 -17t-8 -25.5q0 -20 9 -32l-82 -31
q-8 15 -12.5 33.5t-4.5 36.5q0 26 12 49t34.5 40t54.5 26.5t72 9.5q49 0 84 -13.5t57 -34t32.5 -45.5t10.5 -47q0 -48 -24 -78t-60 -49.5t-78 -31.5t-78 -25.5t-60 -31.5t-24 -48q0 -22 12.5 -39.5t32 -29.5t44.5 -19t49 -9q-6 16 -9.5 32t-3.5 34q0 26 10 48.5t27 39
t41 25.5t53 9q31 0 56 -9t42 -25t26.5 -36.5t9.5 -43.5q0 -51 -30 -84.5t-81 -50.5q15 -13 30 -23.5t28.5 -18.5t24.5 -13t16 -7zM-197 -442q0 14 -9.5 29t-32.5 15q-17 0 -30 -13.5t-13 -39.5q0 -34 14 -65q32 11 51.5 30t19.5 44z" />
    <glyph glyph-name="ori_zero" unicode="&#xb66;" horiz-adv-x="1163" 
d="M83 558q0 93 37.5 174.5t102.5 142t154 95.5t193 35q103 0 192.5 -35t155.5 -95.5t103.5 -142t37.5 -174.5t-37.5 -174t-103.5 -141.5t-155.5 -95.5t-192.5 -35q-104 0 -193 35t-154 95.5t-102.5 141.5t-37.5 174zM267 558q0 -60 23 -113.5t63.5 -93.5t96 -63t120.5 -23
t121 23t97 63t64 93.5t23 113.5q0 61 -23 114.5t-64 93.5t-97 63t-121 23t-120.5 -23t-96 -63t-63.5 -93.5t-23 -114.5z" />
    <glyph glyph-name="ori_one" unicode="&#xb67;" horiz-adv-x="925" 
d="M479 984q-32 0 -62 -14t-56 -39t-46 -60t-31 -77q18 -36 43.5 -60.5t52.5 -39.5t54 -21.5t48 -6.5q33 0 61 11t49 31t32.5 48t11.5 61q0 41 -14 72t-36.5 52t-50.5 32t-56 11zM486 513q-53 0 -107.5 17.5t-101.5 52.5q19 -93 68 -174t118.5 -146t155 -113t176.5 -74
l-67 -111q-129 43 -246 114.5t-205.5 166t-141 208.5t-52.5 243q0 82 24.5 161t74 141.5t124 100.5t173.5 38q76 0 139 -26t108 -70.5t70 -104t25 -127.5t-28.5 -123t-75 -93.5t-107 -59.5t-124.5 -21z" />
    <glyph glyph-name="ori_two" unicode="&#xb68;" horiz-adv-x="925" 
d="M424 984q-28 0 -56 -11t-50.5 -32t-36.5 -52t-14 -72q0 -33 12 -61t32.5 -48t49 -31t61.5 -11q21 0 47.5 6.5t54 21.5t53 39.5t43.5 60.5q-11 42 -31 77t-46 60t-56.5 39t-62.5 14zM418 513q-65 0 -125 21t-107 59.5t-75 93.5t-28 123t25 127.5t70 104t107.5 70.5
t138.5 26q99 0 173.5 -38t124 -100.5t74.5 -141.5t25 -161q0 -129 -52.5 -243t-141 -208.5t-205.5 -166t-246 -114.5l-67 111q91 26 176.5 74t155 113t118.5 146t68 174q-47 -35 -101.5 -52.5t-107.5 -17.5z" />
    <glyph glyph-name="ori_three" unicode="&#xb69;" horiz-adv-x="1602" 
d="M589 984q-49 0 -99 -22t-93 -60.5t-75 -90t-45 -111.5q35 24 75.5 36t81.5 12q67 0 119.5 -24t88.5 -64t55 -91.5t19 -105.5q0 -58 -21 -112.5t-58.5 -97t-90 -68.5t-114.5 -26q-65 0 -116.5 20t-90 54t-65.5 79t-44.5 94.5t-25 100.5t-7.5 97q0 105 39.5 201.5
t107.5 170.5t160 118t197 44q113 0 198 -37t130 -102q17 30 44 55t61 44t72.5 29.5t79.5 10.5q93 0 155.5 -31.5t100.5 -79t54 -104t16 -107.5v-816h-204v804q0 28 -8.5 60t-25 58.5t-41 44t-57.5 17.5q-28 0 -52.5 -16t-42.5 -41.5t-28.5 -57.5t-10.5 -65v-804h-204v824
q-19 49 -45 80t-57 49t-65 24.5t-68 6.5zM432 594q-44 0 -82.5 -29t-67.5 -95q9 -33 22 -62t31.5 -50t42.5 -33.5t54 -12.5q19 0 37 10.5t32 29t22.5 44.5t8.5 57q0 37 -9.5 64t-24 44t-32.5 25t-34 8z" />
    <glyph glyph-name="ori_four" unicode="&#xb6a;" horiz-adv-x="1162" 
d="M570 133q38 0 70.5 15.5t56 41t37 57t13.5 63.5q0 8 -1 20t-6 26.5t-14.5 31.5t-26.5 35q1 0 -33.5 35.5t-95.5 98.5q-30 -32 -54 -56.5t-41 -41.5q-19 -20 -34 -36q-17 -18 -26.5 -34t-14.5 -30t-6 -26t-1 -23q0 -32 13.5 -63.5t37.5 -57t56 -41t70 -15.5zM1058 1046
q-112 -108 -208.5 -205.5t-175.5 -176.5q33 -35 60 -63.5t47 -48.5q23 -24 41 -41q40 -43 63 -78t34 -62t14 -46t3 -29q0 -68 -28 -125.5t-77 -100.5t-116 -67t-145 -24t-144.5 24t-115.5 67t-77 100.5t-28 125.5q0 10 3 29t14 46t34 62t63 78q17 17 40 41q19 20 46 48.5
t61 63.5q-78 79 -175.5 176.5t-207.5 205.5l110 131q99 -108 196 -211.5t181 -191.5q84 88 180.5 191.5t196.5 211.5z" />
    <glyph glyph-name="ori_five" unicode="&#xb6b;" horiz-adv-x="1056" 
d="M622 249q0 40 -35.5 78.5t-101.5 80.5q-32 -45 -52.5 -86t-20.5 -74q0 -29 9 -50.5t24 -35.5t34 -21.5t39 -7.5q45 0 74.5 31t29.5 85zM413 868q0 -40 35.5 -79t101.5 -81q33 44 53 86t20 75q0 28 -9 50t-24 36t-34 21.5t-39 7.5q-45 0 -74.5 -31t-29.5 -85zM807 893
q0 -29 -10 -59.5t-28 -62.5t-42 -66t-52 -69l277 -144l-60 -98q-75 42 -147.5 78t-142.5 78l-45 -52q60 -33 106.5 -64.5t78 -64t48 -68t16.5 -77.5q0 -60 -25.5 -106t-67 -76.5t-93 -46.5t-102.5 -16q-68 0 -121.5 19.5t-91 53.5t-57.5 78t-20 94q0 28 10 58t28 62.5
t42.5 66t52.5 68.5q-17 9 -36 19.5t-49.5 26.5t-76.5 40t-116 60l59 98q28 -16 63 -35t73 -39.5t77.5 -41.5t76.5 -41l45 52q-60 34 -106.5 65.5t-78 64t-47.5 68t-16 77.5q0 60 25.5 105.5t66.5 76.5t92.5 47t103.5 16q68 0 121.5 -19.5t91 -53.5t57.5 -78.5t20 -93.5z" />
    <glyph glyph-name="ori_six" unicode="&#xb6c;" horiz-adv-x="1222" 
d="M240 770q0 -63 20.5 -108.5t52.5 -75t70.5 -43t74.5 -13.5q26 0 58.5 11.5t61.5 38.5h-15q-59 0 -103.5 20t-74.5 52.5t-45.5 74t-15.5 84.5q0 61 25.5 120t74.5 105t120.5 74t163.5 28q75 0 135 -18.5t105.5 -49t77.5 -70.5t52.5 -83.5t30 -87.5t9.5 -82q0 -37 -6 -81.5
t-29.5 -98.5t-71 -118.5t-131.5 -140.5t-210 -164.5t-307 -190.5l-83 124q159 86 269 162.5t182 142t111.5 121t58.5 101.5t22.5 81.5t3.5 61.5q0 32 -12.5 73t-39.5 77.5t-70 61.5t-105 25q-33 0 -67 -10.5t-61.5 -34.5t-45 -63t-17.5 -95q0 -48 19 -81.5t47 -33.5
q17 0 42.5 25t64.5 79l127 -97q-57 -118 -141 -181.5t-210 -63.5q-77 0 -145 31.5t-119 84t-81 120.5t-30 141z" />
    <glyph glyph-name="ori_seven" unicode="&#xb6d;" horiz-adv-x="1154" 
d="M394 398q-72 0 -129.5 30t-98 78.5t-62 110.5t-21.5 125q0 85 34.5 157.5t97 125.5t148.5 83t189 30q84 0 153.5 -20t124.5 -54t96.5 -78t69 -92.5t41 -98t13.5 -93.5q0 -46 -6 -90.5t-29.5 -93.5t-71 -105t-131.5 -124.5t-210.5 -151t-306.5 -184.5l-83 124
q159 86 269.5 158t182.5 132t111.5 109t58.5 89.5t22.5 74t3.5 62.5q0 49 -22.5 99t-63 90.5t-96.5 66.5t-123 26q-52 0 -102 -14t-91 -40.5t-68.5 -64.5t-34.5 -85q35 29 80 47.5t93 18.5q58 0 103.5 -16.5t76.5 -45.5t47.5 -69t16.5 -87q0 -48 -20 -90t-57 -73t-89 -49
t-116 -18zM425 742q-19 0 -41 -6t-43 -18.5t-38.5 -31.5t-28.5 -45q4 -12 15 -27.5t27.5 -29.5t38.5 -23.5t47 -9.5q37 0 63.5 26t26.5 74q0 18 -5.5 34t-14.5 29t-21 20.5t-26 7.5z" />
    <glyph glyph-name="ori_eight" unicode="&#xb6e;" horiz-adv-x="982" 
d="M878 964h-457q-60 0 -96.5 -38.5t-36.5 -119.5v-806h-205v806q0 82 27.5 141t74 97t107.5 55.5t129 17.5h457v-153z" />
    <glyph glyph-name="ori_nine" unicode="&#xb6f;" horiz-adv-x="1098" 
d="M994 103q-36 -32 -71.5 -55.5t-75.5 -38.5t-86 -22.5t-103 -7.5q-140 0 -247 52t-180 138.5t-110.5 197.5t-37.5 229q0 165 86 304t251 238l366 -418v397h205v-690h-192l-424 494q-57 -67 -82.5 -150t-25.5 -175q0 -111 34.5 -197t90 -145.5t124.5 -90t137 -30.5
q27 0 58 9.5t62.5 25t61.5 34.5t56 39z" />
    <glyph glyph-name="ori_isshar" unicode="&#xb70;" horiz-adv-x="1265" 
d="M1161 1011l-226 -527q-26 -62 -64.5 -132t-93.5 -130t-128.5 -99.5t-169.5 -39.5q-88 0 -157.5 28t-119.5 76.5t-80 113t-39 137.5l177 36q10 -59 31.5 -103.5t51 -74.5t64 -45t72.5 -15q45 0 84.5 20.5t74.5 58t66.5 90t58.5 116.5l245 573zM400 494q0 37 26.5 63
t63.5 26t63 -26t26 -63t-26 -63t-63 -26t-63.5 26t-26.5 63z" />
    <glyph glyph-name="ori_wa" unicode="&#xb71;" horiz-adv-x="1270" 
d="M419 995q-49 -42 -81.5 -90t-52 -100t-28 -105t-8.5 -105q0 -87 28 -170.5t84.5 -148t140.5 -104t196 -39.5q49 0 98 11.5t88.5 36t64 63t24.5 92.5q0 36 -14.5 62.5t-39.5 44t-58 26t-69 8.5h-190v144h134q43 0 78 17t60 45t39 62.5t14 70.5q0 43 -14.5 75t-38.5 52.5
t-54 30.5t-61 10q-22 0 -45.5 -6t-42.5 -19.5t-31 -34t-12 -49.5t13 -47.5t21 -29.5l-114 -107q-17 14 -33 35t-29.5 46t-21.5 53.5t-8 57.5q0 67 27 115t70 79t97.5 46t108.5 15q90 0 156 -26.5t109.5 -69.5t64.5 -98t21 -112q0 -34 -9 -70.5t-28 -71t-48.5 -65
t-69.5 -52.5q104 -32 158 -90t54 -156q0 -69 -28.5 -126.5t-76.5 -102.5v-592h-179v154q-29 -30 -60 -50t-62 -32t-61 -16.5t-55 -4.5q-48 0 -104.5 14t-105 47.5t-81.5 91t-33 144.5q0 61 18 114t41 94q-75 44 -131 105.5t-92.5 132t-55 146t-18.5 149.5q0 75 13 148
t41.5 141.5t74 132t111.5 121.5zM485 -146q0 -50 17.5 -83.5t44 -53.5t57.5 -29t57 -9q39 0 78.5 17t71.5 45t52 64t20 75v120q-40 -11 -81.5 -17.5t-85.5 -6.5q-55 0 -105 7t-95 20q-13 -31 -22 -68.5t-9 -80.5z" />
    <glyph glyph-name="uni0B72" unicode="&#xb72;" horiz-adv-x="458" 
d="M358 0h-208v1117h208v-1117z" />
    <glyph glyph-name="uni0B73" unicode="&#xb73;" horiz-adv-x="981" 
d="M334 785q0 -49 16 -88t42.5 -66.5t60.5 -42.5t71 -15q36 0 67.5 16.5t55 44t37 64.5t13.5 79v340h184v-1117h-184v492q-18 -21 -42.5 -36.5t-51 -25.5t-53.5 -15t-49 -5q-63 0 -125.5 21.5t-112.5 66.5t-81.5 113.5t-31.5 161.5v344h184v-332z" />
    <glyph glyph-name="uni0B74" unicode="&#xb74;" horiz-adv-x="1153" 
d="M881 785q0 -49 16 -88t42.5 -66.5t60.5 -42.5t71 -15q36 0 67.5 16.5t55 44t37 64.5t13.5 79v340h184v-1117h-184v492q-18 -21 -42.5 -36.5t-51 -25.5t-53.5 -15t-49 -5q-79 0 -156 34t-129 105q-34 -48 -71 -76t-72 -42t-66 -17.5t-53 -3.5q-63 0 -125.5 21.5
t-112.5 66.5t-81.5 113.5t-31.5 161.5v344h184v-332q0 -49 16 -88t42.5 -66.5t60.5 -42.5t71 -15q36 0 67.5 16.5t55 44t37 64.5t13.5 79v340h184v-332z" />
    <glyph glyph-name="uni0B75" unicode="&#xb75;" horiz-adv-x="935" 
d="M881 1096l-705 -1130l-152 94l710 1134z" />
    <glyph glyph-name="uni0B76" unicode="&#xb76;" horiz-adv-x="1466" 
d="M1405 1096l-703 -1130l-152 94l121 194q-8 64 -22.5 107.5t-34 73.5t-43 51.5t-48.5 41.5q11 -23 16 -48.5t5 -52.5q0 -40 -13.5 -81.5t-41.5 -75t-71 -55t-102 -21.5q-55 0 -97.5 23.5t-71 59.5t-43 80.5t-14.5 86.5q0 66 27 120.5t71.5 93t103 60t121.5 21.5
q57 0 114.5 -16.5t108 -53t90 -94t60.5 -139.5l474 758zM239 460q0 -18 6.5 -33t18 -26.5t27 -18t32.5 -6.5t32.5 6.5t27 18t18 26.5t6.5 33t-6.5 33.5t-18 27t-27 18t-32.5 6.5t-32.5 -6.5t-27 -18t-18 -27t-6.5 -33.5z" />
    <glyph glyph-name="uni0B77" unicode="&#xb77;" horiz-adv-x="1702" 
d="M954 0h-159v299q0 18 -7.5 32.5t-19 25.5t-25.5 17t-27 6q-14 0 -28 -5.5t-25 -15.5t-18.5 -24.5t-7.5 -31.5v-303h-175v299q0 18 -7.5 32.5t-19 25.5t-26 17t-27.5 6t-27 -6t-25.5 -17t-19 -25.5t-7.5 -32.5v-299h-175v326q0 58 22.5 106t58.5 82t81.5 52.5t92.5 18.5
q44 0 90 -14.5t77 -44.5q15 15 34.5 26t42 18.5t46 11t44.5 3.5q43 0 86 -16t78 -45t59 -71t29 -93l523 834l146 -98z" />
    <glyph glyph-name="dn_danda" unicode="&#x964;" horiz-adv-x="508" 
d="M358 0l-208 -83v1200l208 83v-1200z" />
    <glyph glyph-name="dn_dbl_danda" unicode="&#x965;" horiz-adv-x="1049" 
d="M358 0l-208 -83v1200l208 83v-1200zM899 0l-208 -83v1200l208 83v-1200z" />
    <glyph glyph-name="ori_ka.ssa" horiz-adv-x="1465" 
d="M460 281q0 20 2.5 39.5t7.5 37.5q-33 -14 -63 -30t-55 -32.5t-44.5 -34t-29.5 -35.5q47 -16 70 -44.5t23 -60.5q0 -26 -11.5 -48t-31 -38t-45.5 -25.5t-56 -9.5q-29 0 -55.5 12.5t-46 33t-31 47t-11.5 55.5q0 40 17.5 77.5t47.5 71.5t68.5 64t81 55.5t85 47t80.5 38.5
q-40 22 -73.5 51t-57.5 64.5t-37.5 77.5t-13.5 89q0 84 31 150t89 111t142 69t189 24q65 0 125.5 -15t114.5 -38t99.5 -50t81.5 -51v133h208v-1117h-208v133q-32 -33 -70.5 -61t-81 -48.5t-89.5 -32.5t-96 -12q-75 0 -140 20t-113 58t-75.5 94.5t-27.5 129.5zM643 288
q0 -47 18 -77t44.5 -47.5t57.5 -24t57 -6.5q49 0 94 15.5t84.5 39.5t71.5 53.5t55 58.5l-191 230q-51 -15 -103 -34t-94 -47.5t-68 -67.5t-26 -93zM1153 809q-103 80 -209 127.5t-210 47.5h-7l426 -511v336zM471 757q0 -38 13 -69.5t34.5 -56.5t49.5 -44.5t57 -32.5
q46 34 97.5 60.5t102.5 47.5l-236 286q-51 -27 -84.5 -74t-33.5 -117z" />
    <glyph glyph-name="ori_ja.nya" horiz-adv-x="1435" 
d="M262 905q0 -68 34 -119.5t94 -86.5t142.5 -53t179.5 -18q87 0 166 11.5t139 38.5t95.5 71t35.5 108q0 22 -8.5 44.5t-24.5 41t-39.5 30t-53.5 11.5q-17 0 -34.5 -5.5t-32.5 -16.5t-24.5 -28.5t-9.5 -41.5v-126h-184v141q0 34 -23.5 55.5t-56.5 21.5q-16 0 -30.5 -6.5
t-25.5 -17t-17.5 -24.5t-6.5 -29q0 -20 5.5 -35.5t13 -27.5t16 -20.5t14.5 -15.5l-117 -92q-20 15 -40.5 35t-37 46t-27 57t-10.5 67q0 45 19.5 85t55 69t84.5 46t109 17q53 0 101 -19.5t77 -52.5q20 17 40.5 30.5t43.5 22.5t50.5 14t62.5 5q75 0 130.5 -24t91.5 -63
t54 -87.5t18 -97.5q0 -85 -38.5 -151t-104.5 -115q32 -15 58.5 -38.5t45 -54t29 -66t10.5 -74.5v-409h-184v399q0 51 -21.5 82.5t-54.5 31.5q-30 0 -54.5 -27t-24.5 -89v-397h-184v172q-9 -9 -23 -16t-29 -12t-29.5 -7.5t-25.5 -2.5q-60 0 -105.5 22t-77.5 58
q-37 -43 -85 -61.5t-91 -18.5q-62 0 -110 24t-81 62.5t-50.5 86.5t-17.5 97q0 39 11 75t31.5 67t49 55.5t63.5 40.5q-73 54 -114 129.5t-41 175.5q0 152 125 273l123 -112q-8 -8 -19.5 -22t-22.5 -34t-19 -46.5t-8 -58.5zM632 342q0 -58 26 -93.5t63 -35.5q38 0 62.5 35
t24.5 94v4q0 25 -6.5 47.5t-18 39.5t-27.5 27.5t-35 10.5q-38 0 -63.5 -33t-25.5 -96zM266 342q0 -58 26 -93.5t63 -35.5q38 0 62.5 35t24.5 94v4q0 25 -6.5 47.5t-18 39.5t-27.5 27.5t-35 10.5q-38 0 -63.5 -33t-25.5 -96z" />
    <glyph glyph-name="ori_reph" 
d="M-461 1487l446 179l59 -128l-261 -96l174 -201l-113 -102z" />
    <glyph glyph-name="ori_ka_phalaa" 
d="M-238 -382q-21 -17 -41.5 -27.5t-39.5 -15.5t-34.5 -6.5t-25.5 -1.5q-49 0 -90 15t-70.5 43.5t-46 69t-16.5 90.5q0 51 21.5 91t56 67.5t76.5 42t83 14.5q19 0 41 -2t45 -8.5t47 -20t48 -36.5q33 33 80.5 50t103.5 17q49 0 92 -14t75.5 -41t51.5 -65t19 -86v-308h-150
v300q0 26 -8.5 44.5t-21 30.5t-28 18t-30.5 6q-13 0 -28.5 -5.5t-28.5 -17.5t-22 -31t-9 -45v-300h-150v132zM-458 -218q0 -21 8.5 -40t23.5 -33t35 -22t43 -8q22 0 42 7.5t35 21t23.5 31.5t9.5 39v4q0 21 -8.5 40t-23.5 33t-35 22t-43 8t-43 -8t-35 -22t-23.5 -33t-8.5 -40
z" />
    <glyph glyph-name="ori_kha_phalaa" 
d="M-126 -610q-37 0 -69 12t-56.5 33t-39 49t-16.5 61q-45 35 -72.5 82t-27.5 104q0 52 18.5 101t56.5 86.5t97 60.5t139 23q10 0 26 -1.5t35 -4.5t38.5 -7.5t36.5 -10.5q-15 -20 -28 -41.5t-13 -44.5q0 -26 13 -40.5t33 -14.5q21 0 34 13t21.5 35t13 49.5t8.5 57.5h131
v-592h-132v356q-25 -15 -49 -19.5t-39 -4.5q-30 0 -57 10t-47 26.5t-32 38.5t-12 47q0 17 6 40q-47 -3 -80.5 -18t-55 -39t-31.5 -54t-10 -63q0 -20 3.5 -35.5t14.5 -32.5q25 29 61 45.5t81 16.5q37 0 70 -13t58 -35t39 -51.5t14 -62.5q0 -34 -14 -63.5t-39 -51.5t-58 -34.5
t-70 -12.5zM-198 -447q0 -28 21.5 -48t50.5 -20q30 0 50.5 20t20.5 48q0 27 -20.5 46.5t-50.5 19.5q-29 0 -50.5 -19.5t-21.5 -46.5z" />
    <glyph glyph-name="ori_ga_phalaa" 
d="M-38 -610q-37 0 -69 12t-56.5 32.5t-39.5 48.5t-17 61q-49 35 -74 84.5t-25 106.5q0 53 23.5 98.5t66 78.5t102.5 52t132 19q58 0 109.5 -14.5t93.5 -41.5v46h131v-573h-131v366q-18 49 -72 80.5t-129 31.5q-44 0 -82 -10t-66 -29.5t-43.5 -47.5t-15.5 -63
q0 -24 5.5 -41.5t15.5 -32.5q25 27 61 43t80 16q37 0 70 -13t57.5 -34.5t38.5 -51t14 -62.5q0 -34 -14 -63.5t-38.5 -51.5t-57.5 -34.5t-70 -12.5zM-110 -448q0 -28 21 -48t51 -20q29 0 49.5 20t20.5 48q0 27 -20.5 46.5t-49.5 19.5q-30 0 -51 -19.5t-21 -46.5z" />
    <glyph glyph-name="ori_gha_phalaa" 
d="M215 -27h131v-573h-131v23q-45 -33 -93 -33q-31 0 -58.5 11.5t-46.5 28.5q-23 -18 -50.5 -29t-56.5 -11q-27 0 -52.5 11.5t-45 30t-31 42.5t-11.5 49q0 5 0.5 9.5t1.5 9.5q-48 32 -71 79.5t-23 102.5q0 53 23.5 100t65.5 82.5t101.5 56.5t131.5 21q63 0 116.5 -15.5
t98.5 -43.5v48zM115 -420q-10 -15 -16.5 -28.5t-6.5 -27.5q0 -15 10 -22t20 -7q19 0 34.5 12t27.5 30t20 39.5t11 39.5v147q-10 25 -30.5 46t-48.5 36.5t-62 24.5t-72 9q-43 0 -80.5 -12.5t-65 -34.5t-43.5 -52.5t-16 -66.5q0 -16 4.5 -33.5t15.5 -33.5q19 21 43 41.5
t50 37.5l54 -61q-39 -35 -56 -67.5t-17 -60.5q0 -20 8.5 -30.5t19.5 -10.5q16 0 33.5 11.5t34 31.5t30.5 45.5t23 54.5z" />
    <glyph glyph-name="ori_nga_phalaa" 
d="M37 -442l-81 51l136 207l72 -51l-50 -78q38 -19 57.5 -51.5t19.5 -67.5q0 -38 -15 -68.5t-42 -53t-65 -34.5t-84 -12q-41 0 -76.5 10.5t-64 30t-48 45.5t-27.5 58q-26 15 -47.5 36.5t-36.5 46t-23.5 50.5t-8.5 52q0 58 23.5 106.5t68 83.5t109 55t147.5 20
q106 0 177.5 -36t119.5 -96q48 -2 80.5 -31t32.5 -73q0 -23 -9.5 -42t-25.5 -32.5t-38 -21.5t-47 -8t-47 8t-38 21.5t-25.5 32.5t-9.5 42q0 20 4 34.5t16 27.5q-35 35 -83.5 52t-105.5 17q-39 0 -80 -11t-74.5 -31.5t-54.5 -50t-21 -67.5q0 -14 5 -29.5t12 -26.5
q20 34 59.5 60.5t99.5 36.5l26 -96q-45 -14 -66.5 -38.5t-21.5 -53.5q0 -32 24.5 -54.5t73.5 -22.5q22 0 38.5 6t27.5 15.5t16.5 20.5t5.5 21q0 19 -11 30zM249 -242q0 -19 12 -32.5t30 -13.5t30.5 13.5t12.5 32.5t-12.5 32t-30.5 13t-30 -13t-12 -32z" />
    <glyph glyph-name="ori_ca_phalaa" 
d="M189 -363q20 23 31 48t11 47q0 33 -19 62t-50.5 50t-72 33t-84.5 12q-45 0 -85 -11.5t-70 -32t-47.5 -49.5t-17.5 -64q0 -54 47 -86q23 35 63.5 56.5t90.5 21.5q37 0 70 -13t58 -35t39 -51.5t14 -62.5q0 -34 -14 -63.5t-39 -51.5t-58 -34.5t-70 -12.5q-35 0 -65.5 9.5
t-54 27t-39 42t-19.5 54.5q-142 63 -142 204q0 51 23.5 98t67.5 82t107 56t141 21q85 0 149 -22t106.5 -58.5t64 -83.5t21.5 -96q0 -45 -21 -89.5t-57 -85.5zM-86 -437q0 -27 21 -47t50 -20q30 0 50.5 20t20.5 47q0 28 -20.5 47.5t-50.5 19.5q-29 0 -50 -19.5t-21 -47.5z
" />
    <glyph glyph-name="ori_cha_phalaa" 
d="M108 -600q-47 0 -79.5 18t-55.5 42q-25 -25 -55.5 -42.5t-78.5 -17.5q-60 0 -92 34.5t-32 88.5q0 20 10 40t25 37q-11 3 -37.5 4t-66.5 3l25 81q28 -2 57.5 -10t52.5 -12q-32 27 -46 58.5t-14 67.5q0 42 20 79.5t56.5 65t89 43.5t118.5 16q63 0 115.5 -16t90 -43.5
t58.5 -65t21 -79.5q0 -38 -19 -74t-54 -76l-82 74q18 23 27 40t9 34q0 21 -13 39t-35.5 32t-53 22t-64.5 8q-36 0 -66.5 -7.5t-52 -21t-33.5 -32t-12 -39.5q0 -8 3.5 -19.5t9 -23t11 -21t10.5 -14.5q4 16 15.5 30t26.5 24.5t32.5 16.5t34.5 6q26 0 48 -10t38 -28t25 -43
t9 -54q0 -6 -0.5 -12.5t-1.5 -13.5q29 0 53 -9t40.5 -24t25.5 -34t9 -39q0 -54 -32 -88.5t-90 -34.5zM-76 -366q0 -28 12.5 -50t37.5 -22q12 0 21 6.5t15.5 17t10 23.5t3.5 26q0 29 -14.5 51t-35.5 22t-35.5 -20.5t-14.5 -53.5zM-70 -480q-15 11 -25 19t-19 13t-20 7.5
t-29 2.5q-17 0 -32 -8.5t-15 -31.5q0 -16 9.5 -27.5t38.5 -11.5q23 0 46 10.5t46 26.5zM15 -480q23 -16 46 -26.5t47 -10.5q29 0 38.5 11.5t9.5 27.5q0 23 -15.5 31.5t-31.5 8.5q-29 0 -51 -12t-43 -30z" />
    <glyph glyph-name="ori_ja_phalaa" 
d="M179 -503h-150v384l-130 -59q29 -27 40.5 -60.5t11.5 -74.5q0 -34 -16.5 -70.5t-50.5 -66.5t-86.5 -49.5t-125.5 -19.5t-125.5 23t-86.5 59t-50.5 81t-16.5 90q0 56 19 100t53.5 78.5t81.5 59.5t104 44l39 -119q-32 -12 -59 -26.5t-47 -33.5t-31.5 -43.5t-11.5 -56.5
q0 -60 36.5 -95.5t96.5 -35.5q25 0 48 7t41 20.5t28.5 33t10.5 44.5q0 46 -22 75t-62 46l376 186l85 -41v-480z" />
    <glyph glyph-name="ori_jha_phalaa" 
d="M322 -538l-60 -105l-134 92q-19 -10 -43 -16t-49 -6q-33 0 -63 10t-53.5 28t-39.5 42t-22 52q-66 35 -101.5 92t-35.5 121q0 52 21 94t58.5 72t88.5 46t111 16q19 0 42 -3.5t48 -9.5t50 -15t48 -21q-13 -11 -26 -27t-13 -30q0 -17 10 -29.5t33 -12.5q17 0 28.5 10.5
t11.5 25.5t-10 25t-18 14l54 82q25 -18 42 -32.5t28 -29t16 -30.5t5 -37q0 -18 -7.5 -41.5t-25.5 -44t-48 -34.5t-74 -14q-31 0 -59 8t-49.5 22.5t-34.5 35.5t-13 47q0 16 6 34q-11 2 -25 2.5t-19 0.5q-31 0 -59.5 -8t-50.5 -24t-35.5 -39t-13.5 -53t9.5 -53.5t33.5 -43.5
q23 35 62 55.5t90 20.5q37 0 70.5 -13t58 -35t39 -51.5t14.5 -62.5q0 -35 -17 -67zM-34 -413q0 -28 21 -48t50 -20q30 0 50.5 20t20.5 48q0 27 -20.5 46.5t-50.5 19.5q-29 0 -50 -19.5t-21 -46.5z" />
    <glyph glyph-name="ori_tta_phalaa" 
d="M209 -16h131v-268h-131v57q-19 50 -74 83t-132 33q-44 0 -82.5 -11.5t-67.5 -32.5t-45.5 -49.5t-16.5 -62.5q0 -27 9 -49t23 -35q24 34 64.5 54.5t88.5 20.5q37 0 70 -13t58 -35t39 -51.5t14 -62.5q0 -34 -14 -63.5t-39 -51.5t-58 -34.5t-70 -12.5q-33 0 -63 10t-54 27
t-40 41t-21 53q-61 32 -94.5 88t-33.5 119q0 55 25 102t69 81.5t104.5 53.5t131.5 19q59 0 113 -15.5t96 -41.5v47zM-96 -438q0 -27 21.5 -47t50.5 -20q30 0 50.5 20t20.5 47q0 28 -20.5 47.5t-50.5 19.5q-29 0 -50.5 -19.5t-21.5 -47.5z" />
    <glyph glyph-name="ori_ttha_phalaa" 
d="M-311 -303q0 61 25 115t67.5 94.5t99 64t119.5 23.5q64 0 120.5 -23.5t99.5 -64t68 -95t25 -115.5q0 -62 -25 -115.5t-68 -94t-99.5 -63.5t-120.5 -23q-63 0 -119.5 23.5t-99 63.5t-67.5 94t-25 116zM-191 -303q0 -40 15 -75t41 -61t60.5 -41t74.5 -15t75 15t61.5 41
t41.5 61t15 75t-15 75t-41.5 61t-61.5 41t-75 15t-74.5 -15t-60.5 -41t-41 -61t-15 -75z" />
    <glyph glyph-name="ori_dda_phalaa" 
d="M38 -441l-71 50l149 199l65 -49l-53 -74q35 -20 53 -52t18 -65q0 -38 -15.5 -68.5t-42.5 -53t-65 -34.5t-83 -12q-41 0 -77 9.5t-64.5 27.5t-48 43.5t-27.5 57.5q-66 38 -95.5 90.5t-29.5 109.5q0 53 24 100t69.5 81.5t110 54.5t145.5 20t146 -20t111 -54.5t70.5 -81.5
t24.5 -100q0 -38 -20.5 -83.5t-57.5 -96.5l-81 79q22 23 32.5 48.5t10.5 51.5q0 31 -18.5 59t-50 48.5t-74.5 32.5t-91 12q-49 0 -91.5 -12t-73.5 -32.5t-49 -48.5t-18 -59q0 -23 4 -39.5t18 -31.5q19 39 58.5 66t104.5 38l26 -96q-45 -14 -67 -38.5t-22 -53.5
q0 -16 5.5 -32t17.5 -29t31.5 -21t48.5 -8q24 0 40 8t25.5 20t13.5 25t4 23q0 19 -10 32z" />
    <glyph glyph-name="ori_ddha_phalaa" 
d="M2 -364q-35 0 -65 13.5t-50 31.5q15 -45 48 -78t76.5 -56t94 -37t100.5 -22l-31 -98q-71 4 -145 29t-134.5 70.5t-99 111.5t-38.5 153q0 49 15.5 95t46 82t76 57.5t104.5 21.5q55 0 93.5 -18.5t62 -47t34 -64t10.5 -69.5q0 -45 -17.5 -77.5t-45.5 -54.5t-63.5 -32.5
t-71.5 -10.5zM2 -81q-52 0 -85 -32.5t-41 -95.5q23 -33 55.5 -48t64.5 -15q42 0 67.5 26t25.5 68q0 48 -26 72.5t-61 24.5z" />
    <glyph glyph-name="ori_ra_phalaa" 
d="M-928 -178h824v178h208v-334h-1032v156z" />
    <glyph glyph-name="ori_nna_phalaa" 
d="M57 -308q-27 20 -60 30t-67 10q-43 0 -75 -30t-32 -84q0 -5 0.5 -12.5t1.5 -12.5q32 35 78 55t88 20q35 0 67 -9.5t56.5 -26t39 -39.5t14.5 -50q0 -42 -22.5 -69.5t-55 -44t-68.5 -23t-64 -6.5q-53 0 -99.5 15t-81 43.5t-54.5 69t-20 90.5q0 65 40.5 116.5t104.5 74.5
q-15 27 -15 54q0 56 45.5 90.5t121.5 34.5q31 0 57.5 -4.5t50 -14t46 -23.5t45.5 -33v65h133v-568h-133v344q-14 27 -33.5 52t-43 44.5t-50.5 31t-55 11.5t-46 -10.5t-18 -28.5q0 -19 11 -33q24 -3 48 -10.5t44 -16t34.5 -17t21.5 -12.5zM-9 -428q-30 0 -60.5 -17t-42.5 -46
q13 -7 38.5 -10.5t44.5 -3.5q12 0 26 3t25 8.5t18.5 13t7.5 17.5q0 17 -17.5 26t-39.5 9z" />
    <glyph glyph-name="ori_da_phalaa" 
d="M161 -374q19 20 29.5 48.5t10.5 56.5q0 32 -14.5 60t-41 48.5t-63.5 32t-82 11.5q-42 0 -80 -11.5t-66.5 -32t-45.5 -48t-17 -59.5q0 -47 25 -69q22 27 62 50t92 40l31 -98q-40 -9 -67 -26t-27 -44q0 -15 6 -25.5t14.5 -17t18.5 -9.5t18 -3q15 0 29 6.5t25 21.5
t18.5 38.5t9.5 57.5l98 40v-294h-107v69q-16 -16 -43.5 -23t-47.5 -7q-27 0 -53.5 9.5t-48 26t-36.5 39.5t-19 50q-57 23 -87.5 69.5t-30.5 103.5q0 50 25 94t69 76.5t104 51.5t131 19q69 0 127 -19t100 -52t66 -78t24 -97q0 -36 -20.5 -85.5t-56.5 -99.5z" />
    <glyph glyph-name="ori_dha_phalaa" 
d="M83 -301l-79 -66l-57 56q-11 2 -18 2.5t-11 0.5q-10 0 -24.5 -4.5t-28 -15t-23 -27t-9.5 -40.5q0 -27 10 -47t26 -34t36.5 -21t42.5 -7q46 0 95 24.5t96 59.5v399h133v-569h-133v57q-18 -12 -40 -24t-47 -21.5t-52.5 -15.5t-56.5 -6q-49 0 -91 15t-73 42t-49 65t-18 84
q0 33 12 61t32 50.5t45 39t52 24.5l-141 141l79 74z" />
    <glyph glyph-name="ori_pa_phalaa" 
d="M-113 -208q0 -32 17.5 -53.5t40.5 -32.5q29 19 66 35.5t72 29.5l37 -95q-26 -8 -52.5 -17t-48 -22.5t-35 -32t-13.5 -43.5q0 -20 7 -32.5t18 -20t23.5 -10t23.5 -2.5q24 0 46.5 9t42 23t34.5 30t24 30v227q-47 35 -95.5 56.5t-93.5 21.5q-20 0 -40 -6t-36.5 -18.5
t-27 -31.5t-10.5 -45zM-150 -442q0 27 8 48.5t24 42.5q-53 20 -86 60t-33 97q0 87 62.5 135t174.5 48q57 0 105.5 -19.5t84.5 -42.5v52h133v-568h-133v43q-30 -24 -68 -39t-81 -15q-41 0 -76 10.5t-60.5 30.5t-40 49.5t-14.5 67.5z" />
    <glyph glyph-name="ori_pha_phalaa" 
d="M323 -590h-133v44q-30 -24 -68 -39t-81 -15q-41 0 -76 10.5t-60.5 30.5t-40 49.5t-14.5 67.5q0 26 8 47.5t24 43.5q-53 20 -86 60t-33 97q0 87 62.5 135t174.5 48q57 0 105.5 -20t84.5 -42v52h133v-83q9 10 25.5 16t32.5 6q22 0 41.5 -8t34.5 -21.5t23.5 -31.5t8.5 -39
t-9 -39.5t-24.5 -32t-35.5 -21.5t-42 -8q-23 0 -36 8t-19 15v-330zM-113 -208q0 -32 17.5 -53.5t40.5 -32.5q29 19 66 35.5t72 29.5l37 -95q-26 -8 -52.5 -17t-48 -22.5t-35 -32t-13.5 -43.5q0 -20 7 -32.5t18 -20t23.5 -10t23.5 -2.5q24 0 46.5 9t42 23t34.5 30t24 30v227
q-47 35 -95.5 56.5t-93.5 21.5q-20 0 -40 -6t-36.5 -18.5t-27 -31.5t-10.5 -45zM323 -182q0 -20 13.5 -35t29.5 -15t28.5 15t12.5 35t-12 34.5t-29 14.5t-30 -14.5t-13 -34.5z" />
    <glyph glyph-name="ori_ba_phalaa" 
d="M174 -600h-121v66q-33 -11 -68 -11q-60 0 -106 27.5t-68 71.5q-30 13 -56 32t-45.5 42.5t-31 52t-11.5 61.5q0 54 25.5 98t70.5 74.5t105.5 47.5t131.5 17q70 0 131 -20t106 -54t71 -80.5t26 -98.5q0 -36 -20.5 -82.5t-56.5 -96.5l-80 79q40 42 40 99q0 32 -16 61
t-45 50.5t-68.5 34t-87.5 12.5q-42 0 -80.5 -9.5t-68 -28t-47 -44.5t-17.5 -59q0 -47 24 -71q22 42 68.5 71.5t105.5 29.5q38 0 72.5 -12.5t60.5 -34t41 -50.5t15 -62v-213zM-92 -387q0 -26 22.5 -44.5t54.5 -18.5t55 18.5t23 44.5t-23 44.5t-55 18.5t-54.5 -18.5
t-22.5 -44.5z" />
    <glyph glyph-name="ori_bha_phalaa" 
d="M-29 -512q58 0 88 30q-3 -1 -6.5 -1h-6.5q-28 0 -50 8t-37.5 21t-24 30.5t-8.5 36.5q0 35 14.5 59.5t43.5 50.5l43 -51q-17 -15 -22 -26.5t-5 -25.5t5 -22.5t13 -14t17 -7.5t17 -2q12 0 23 9t14 28q-2 22 -9 37t-23 37l68 53q32 -54 39.5 -90t7.5 -60q0 -35 -14.5 -67
t-41 -56.5t-63.5 -39t-83 -14.5q-77 0 -134.5 35.5t-80.5 90.5q-71 31 -106.5 81.5t-35.5 116.5q0 46 24 93t72 85.5t120.5 62.5t170.5 24q89 0 160 -28t120.5 -71.5t76 -96.5t26.5 -103q0 -31 -5 -56t-14.5 -47.5t-24.5 -42.5t-34 -41l94 -104l-98 -78l-128 203
q45 38 67 84t22 82q0 34 -19.5 70.5t-54.5 65.5t-83 48t-105 19q-60 0 -109 -14t-84.5 -38t-55 -56t-19.5 -69q0 -43 22 -67q14 43 49 74t83 53l50 -88q-35 -21 -55.5 -44.5t-20.5 -63.5q0 -42 28.5 -72.5t82.5 -30.5z" />
    <glyph glyph-name="ori_ya_phalaa" horiz-adv-x="918" 
d="M267 785q0 -49 16 -88t42.5 -66.5t60.5 -42.5t71 -15q36 0 67.5 16.5t55 44t37 64.5t13.5 79v340h184v-1117h-184v492q-18 -21 -42.5 -36.5t-51 -25.5t-53.5 -15t-49 -5q-63 0 -125.5 21.5t-112.5 66.5t-81.5 113.5t-31.5 161.5v344h184v-332z" />
    <glyph glyph-name="ori_sha_phalaa" 
d="M214 -4h132v-590h-132v372q-14 31 -36.5 55.5t-50 41.5t-58.5 25.5t-62 8.5q-27 0 -47 -12.5t-22 -34.5q39 -7 73 -24t76 -49l-66 -65q-6 6 -18.5 15.5t-29.5 18t-38.5 15t-45.5 6.5q-36 0 -63 -21.5t-27 -53.5q0 -34 22 -64q24 29 62 45.5t84 16.5q38 0 71.5 -12.5
t58 -33.5t39 -50t14.5 -62t-14.5 -62t-39 -50.5t-58 -33.5t-71.5 -12q-36 0 -68.5 11.5t-57 31t-39.5 46.5t-17 58q-57 35 -79 73.5t-22 88.5q0 64 38.5 105t98.5 55q-2 9 -3 17.5t-1 15.5q0 22 10 43.5t31.5 37.5t56.5 26t85 10q57 0 113.5 -20t100.5 -52v63zM-95 -456
q0 -26 18 -44t44 -18t43.5 18t17.5 44t-17.5 44.5t-43.5 18.5t-44 -18.5t-18 -44.5z" />
    <glyph glyph-name="ori_ssa_phalaa" 
d="M-150 -452q0 26 8 47.5t24 42.5q-53 20 -86 60t-33 97q0 43 16 80.5t47 65t74.5 43t99.5 15.5q57 0 110 -23.5t91 -58.5v73h122v-590h-122v44q-31 -24 -74 -39t-86 -15q-41 0 -76 10.5t-60.5 30.5t-40 49.5t-14.5 67.5zM-29 -449q0 -20 7 -32.5t18 -20t23.5 -10.5
t23.5 -3q20 0 40.5 6.5t39.5 17t35 23t28 25.5l-88 105q-23 -6 -45.5 -15.5t-40.5 -23.5t-29.5 -32t-11.5 -40zM201 -195q-34 40 -82 70.5t-116 31.5l198 -239v137zM-126 -212q0 -15 6.5 -29.5t17 -26.5t23 -21.5t23.5 -15.5q17 13 45 27.5t51 20.5l-115 138
q-18 -13 -34.5 -33t-16.5 -60z" />
    <glyph glyph-name="ori_sa_phalaa" 
d="M197 -590l-449 108l146 120q-28 11 -53 27t-43.5 37t-29.5 45.5t-11 52.5q0 46 18.5 81.5t50.5 59t76.5 35.5t97.5 12q56 0 102.5 -19.5t81.5 -42.5v52h133v-568h-120zM64 -217l58 -79l-160 -134l222 -58v302q-46 35 -89.5 56.5t-94.5 21.5q-20 0 -41 -5.5t-38.5 -18
t-29 -32t-11.5 -46.5q0 -30 23 -55.5t60 -37.5z" />
    <glyph glyph-name="ori_ha_phalaa" 
d="M161 -353q19 20 29.5 48t10.5 57q0 32 -14.5 59.5t-41 48t-63.5 32t-82 11.5q-42 0 -80 -11.5t-66.5 -31.5t-45.5 -47.5t-17 -59.5q0 -47 25 -69q22 26 62 49t92 40l31 -97q-40 -10 -67 -27t-27 -43q0 -16 6 -26.5t14.5 -17t18.5 -9t18 -2.5q15 0 28 8t23 22t16 32.5
t6 39.5l121 61v-293h-121v60l-110 -84l237 -74l-77 -54l-332 105l130 101q-36 16 -62.5 45.5t-33.5 64.5q-56 24 -87 70.5t-31 102.5q0 50 25 94t69 76.5t104 51.5t131 19q69 0 127 -19t100 -52t66 -78t24 -97q0 -36 -20.5 -85.5t-56.5 -99.5z" />
    <glyph glyph-name="ori_ka.ssa_phalaa" 
d="M-150 -420q-6 -3 -17.5 -12t-23.5 -19.5t-22 -20.5l-14 -14q23 -10 32.5 -24t9.5 -31q0 -31 -25 -50.5t-60 -19.5q-18 0 -33.5 7t-27.5 18.5t-19 26.5t-7 31q0 28 21 58t52.5 57.5t66.5 50.5t64 37q-38 25 -61 60.5t-23 80.5q0 87 62.5 135t174.5 48q57 0 106.5 -19.5
t84.5 -42.5v52h133v-568h-133v44q-30 -24 -68 -39.5t-81 -15.5q-41 0 -76 10.5t-60.5 30.5t-40.5 49.5t-15 67.5v12zM-74 -121q-17 -12 -27.5 -31t-10.5 -46q0 -32 17.5 -53t40.5 -33q17 12 37 22.5t43 20.5zM93 -323q-23 -7 -45 -16t-39 -22t-27.5 -29.5t-10.5 -38.5
q0 -20 7.5 -32.5t18 -20t23 -10t23.5 -2.5q20 0 39 6.5t36 16.5t31.5 23t25.5 26zM191 -339v164q-47 35 -96 56.5t-94 21.5h-6z" />
    <glyph glyph-name="ori_ta_phalaa" 
d="M-563 -43q39 -77 81 -137t90 -102t104.5 -67t125.5 -32q-18 16 -33 33.5t-26.5 39t-18 48t-6.5 60.5q0 46 19.5 84.5t53 66.5t78.5 43.5t95 15.5q59 0 106 -17t80 -48.5t50.5 -76.5t17.5 -100q0 -71 -31 -122t-81.5 -84t-114.5 -49t-130 -16q-95 0 -180 30.5t-156.5 85
t-128 130.5t-94.5 168zM-124 -218q0 -24 8.5 -47t22.5 -43t31.5 -36t36.5 -26q44 9 74 24.5t48 35t26 41.5t8 43q0 14 -6.5 33t-21.5 36.5t-40.5 29.5t-62.5 12q-29 0 -52 -8.5t-39 -23t-24.5 -33t-8.5 -38.5z" />
    <glyph glyph-name="ori_tha_phalaa" 
d="M22 -503q-51 0 -91 11.5t-73 30.5t-60.5 44.5t-52.5 52.5q-24 -27 -51.5 -52.5t-60.5 -44.5t-73 -30.5t-91 -11.5q-53 0 -94 18t-69.5 49t-43.5 73t-15 91q0 30 9 65t26 61q-21 6 -58.5 11.5t-106.5 11.5l34 105q69 -5 130 -16t116 -27q42 14 92 14q28 0 57.5 -11
t59.5 -29t61 -42t63 -49l15 -12l13 10q32 26 63.5 50t62 42.5t60 29.5t57.5 11q57 0 102 -19.5t76 -51.5t47.5 -72.5t16.5 -81.5q0 -49 -15 -91t-43 -73t-69.5 -49t-93.5 -18zM16 -367q28 0 46 11t29 27.5t15.5 35.5t4.5 34q0 23 -8.5 40.5t-22 29t-30 17.5t-32.5 6
q-32 0 -58 -8.5t-49 -22t-43 -31t-39 -35.5q23 -15 46 -33.5t46.5 -34t47 -26t47.5 -10.5zM-527 -166q-16 0 -33 -6t-30.5 -17.5t-22 -29t-8.5 -40.5q0 -15 4.5 -34t15.5 -35.5t29.5 -27.5t46.5 -11q24 0 47.5 10.5t47 26t46.5 34t46 33.5q-19 18 -39 35.5t-43 31t-49.5 22
t-57.5 8.5z" />
    <glyph glyph-name="ori_na_phalaa" 
d="M208 11v-514h-150v388q-30 0 -64 -1t-68.5 -6.5t-66.5 -16.5t-56.5 -31t-39 -50t-14.5 -74q0 -36 5 -89.5t20 -119.5l-169 -57v100q0 139 32.5 230t97.5 144.5t163 75t229 21.5h81z" />
    <glyph glyph-name="ori_ma_phalaa" 
d="M208 10v-534h-150v404q-69 0 -139 -5.5t-133 -18.5q58 -35 94.5 -80.5t36.5 -105.5q0 -45 -19.5 -80.5t-53 -61t-78 -39t-93.5 -13.5q-57 0 -105 12.5t-83.5 38.5t-55.5 66.5t-20 96.5q0 55 27.5 98.5t73.5 78.5q-63 13 -125 20.5t-113 10.5l21 102l56 -8t79 -14
t93.5 -21t99.5 -28q50 21 105 36.5t108 25.5t101 14.5t86 4.5h187zM-438 -303q0 -19 9 -35.5t25 -28.5t38 -18.5t48 -6.5q24 0 44 7.5t35 19.5t23 28t8 33q0 40 -34 70.5t-89 53.5q-49 -21 -78 -51t-29 -72z" />
    <glyph glyph-name="ori_la_phalaa" 
d="M-326 0q48 0 91 -18t72 -58q27 40 71.5 58t91.5 18q49 0 92 -14t75.5 -41t51.5 -65t19 -86v-188h182v-120h-332v300q0 26 -8.5 44.5t-21 30.5t-28 18t-30.5 6q-14 0 -29.5 -5.5t-28.5 -16.5t-21.5 -29t-8.5 -43v-305h-150v305q0 25 -8.5 42.5t-21.5 29t-28.5 17
t-29.5 5.5q-15 0 -30.5 -6t-28 -18t-21 -30.5t-8.5 -44.5v-300h-150v308q0 48 19 86t51.5 65t75.5 41t92 14z" />
    <glyph glyph-name="ori_lla_phalaa" 
d="M-326 0q48 0 91 -18t72 -58q27 40 71.5 58t91.5 18q49 0 92 -14t75.5 -41t51.5 -65t19 -86v-308h-150v300q0 26 -8.5 44.5t-21 30.5t-28 18t-30.5 6q-14 0 -29.5 -5.5t-28.5 -16.5t-21.5 -29t-8.5 -43v-305h-150v305q0 25 -8.5 42.5t-21.5 29t-28.5 17t-29.5 5.5
q-15 0 -30.5 -6t-28 -18t-21 -30.5t-8.5 -44.5v-300h-150v308q0 48 19 86t51.5 65t75.5 41t92 14z" />
    <glyph glyph-name="ori_va_phalaa" 
d="M104 0v-514h-150v184q-9 -11 -28.5 -29t-49 -35t-69.5 -29t-90 -12q-43 0 -88 11.5t-81.5 38t-60 69t-23.5 104.5q0 44 16 78t40 59.5t53 44t55 30.5l71 -96q-36 -20 -63.5 -43t-27.5 -60q0 -25 12 -43t32 -29.5t45.5 -17t52.5 -5.5q41 0 78 15t65 39t44.5 54t16.5 60
v126h150z" />
    <glyph glyph-name="ori_ta.ra_phalaa" 
d="M23 -66q-43 0 -75.5 -0.5t-58 -4.5t-44 -12.5t-32.5 -24.5q66 -26 66 -86q0 -22 -9 -37.5t-23 -26t-33 -15.5t-38 -5q-18 0 -40 7.5t-40.5 22.5t-31.5 37.5t-13 53.5q0 56 30.5 93t80 58.5t112 30.5t126.5 9h173v-556q-116 0 -207.5 6.5t-164.5 17.5t-130 26.5
t-102.5 33.5t-82.5 37t-70 39l39 115q39 -18 70.5 -34.5t63.5 -31t69 -27t87 -21.5t117.5 -14t160.5 -5v314z" />
    <glyph glyph-name="ori_ra_phalaa.short" 
d="M-728 -178h624v178h208v-334h-832v156z" />
    <glyph glyph-name="ori_ka.virama" horiz-adv-x="1597" 
d="M1244 440q35 39 55 90t20 112q0 70 -39 132.5t-108.5 109t-166.5 73.5t-213 27q-114 0 -210.5 -24.5t-166 -68t-109 -104t-39.5 -131.5q0 -49 9.5 -85t39.5 -60q32 68 95.5 111.5t148.5 43.5q47 0 94 -21.5t84 -71.5q18 22 41.5 39.5t49.5 29.5t53 18t51 6q54 0 104 -20
t87.5 -55t60 -81.5t22.5 -100.5v-409h-208v407q0 52 -21.5 79t-52.5 27q-14 0 -27.5 -5t-24.5 -17.5t-18 -33.5t-7 -52v-405h-196v172q-9 -9 -23 -16t-29 -12.5t-29.5 -8t-25.5 -2.5q-52 0 -94 17t-72.5 46t-50.5 66.5t-29 78.5q-46 22 -85.5 56t-68.5 75t-45.5 88.5
t-16.5 97.5q0 103 49.5 190.5t141.5 152t222 101t291 36.5q165 0 295.5 -39t222 -106t140 -157t48.5 -193q0 -72 -34 -154.5t-96 -168.5zM476 384q0 -58 26 -93.5t62 -35.5q38 0 63 35t25 94v4q0 24 -6.5 47t-18.5 40t-28 27.5t-35 10.5q-38 0 -63 -33t-25 -96zM1459 -291
l-119 -131l-339 315l102 101z" />
    <glyph glyph-name="ori_kha.virama" horiz-adv-x="1479" 
d="M288 281q-46 33 -84 74t-65 87.5t-41.5 98.5t-14.5 109q0 100 36 189t110.5 155.5t189 105t272.5 38.5q21 0 50.5 -2t61 -6t62 -9.5t53.5 -12.5q-23 -31 -43 -70t-20 -93q0 -70 35.5 -107.5t89.5 -37.5q52 0 85.5 27t53.5 71t30.5 101.5t17.5 117.5h208v-1117h-208v728
q-24 -27 -53 -43t-58.5 -25t-55.5 -12t-44 -3q-56 0 -105.5 18t-87 48t-59 70t-21.5 84q0 23 5 55t22 63q-117 -4 -200.5 -30.5t-137.5 -73t-79 -111t-25 -142.5q0 -51 14.5 -99.5t52.5 -91.5q45 67 121.5 107.5t171.5 40.5q71 0 133 -23.5t108.5 -64.5t73 -96t26.5 -118
t-26.5 -118t-73 -96t-108.5 -64.5t-133 -23.5t-132.5 23.5t-108 64.5t-73 96t-26.5 118zM472 281q0 -31 12.5 -58t33.5 -47t49.5 -31.5t60.5 -11.5q33 0 61.5 11.5t50 31.5t33.5 47t12 58t-12 58t-33.5 47t-50 32t-61.5 12q-32 0 -60.5 -12t-49.5 -32t-33.5 -47t-12.5 -58z
M1627 -291l-119 -131l-339 315l102 101z" />
    <glyph glyph-name="ori_ga.virama" horiz-adv-x="1479" 
d="M288 281v4q-100 67 -152.5 162t-52.5 210q0 103 46 191t130 152.5t201.5 101t260.5 36.5q131 0 245 -38t201 -105v122h208v-1117h-208v728q-20 55 -61 102t-98.5 81.5t-129.5 53.5t-153 19q-99 0 -183 -23t-145 -67t-95.5 -107.5t-34.5 -143.5q0 -63 19 -112.5t55 -87.5
q45 63 121 101.5t166 38.5q71 0 133 -23.5t108.5 -64.5t73 -96t26.5 -118t-26.5 -118t-73 -96t-108.5 -64.5t-133 -23.5t-132.5 23.5t-108 64.5t-73 96t-26.5 118zM472 281q0 -31 12.5 -58t33.5 -47t49.5 -31.5t60.5 -11.5q33 0 61.5 11.5t50 31.5t33.5 47t12 58t-12 58
t-33.5 47t-50 32t-61.5 12q-32 0 -60.5 -12t-49.5 -32t-33.5 -47t-12.5 -58zM1627 -291l-119 -131l-339 315l102 101z" />
    <glyph glyph-name="ori_gha.virama" horiz-adv-x="1500" 
d="M1188 1117h208v-1117h-208v85q-49 -49 -107.5 -77.5t-115.5 -28.5q-69 0 -123.5 26.5t-90.5 65.5q-22 -19 -48 -35.5t-54.5 -29t-59 -20t-60.5 -7.5q-58 0 -104.5 22.5t-79.5 59t-50.5 82t-17.5 91.5q0 21 3 44q-98 60 -147.5 154t-49.5 202q0 103 45.5 194.5t129 160.5
t200 109t258.5 40q141 0 261 -39.5t211 -108.5v127zM911 332q-17 -26 -27.5 -51t-10.5 -55q0 -24 9 -41.5t22.5 -29t30 -17t31.5 -5.5q45 0 82.5 27t66 68t47 88.5t26.5 89.5v317q-21 56 -65.5 104t-106 83t-137.5 54.5t-159 19.5q-96 0 -179 -27.5t-144 -76.5t-96 -116.5
t-35 -148.5q0 -48 17 -96t59 -93q36 53 84 95t96 75l85 -101q-74 -66 -110.5 -123t-36.5 -123q0 -58 27.5 -87t60.5 -29q42 0 75 27.5t59 71.5t47.5 99t39.5 110zM1648 -291l-119 -131l-339 315l102 101z" />
    <glyph glyph-name="ori_nga.virama" horiz-adv-x="1686" 
d="M824 318l-141 95l262 367l135 -100l-113 -158q39 -17 69 -42t50.5 -55t31.5 -64t11 -68q0 -70 -29 -128t-81 -99t-124 -64t-159 -23q-81 0 -151.5 21t-125 58.5t-91 89.5t-48.5 114q-54 29 -98 70t-74.5 89t-47.5 100t-17 104q0 111 46.5 205t134.5 162.5t216 107
t291 38.5q106 0 195 -19t162.5 -54t132.5 -85t106 -112q45 0 84 -14t68 -38t46 -57.5t17 -73.5t-17 -74t-46.5 -58.5t-69.5 -38t-85 -13.5t-84.5 13.5t-68.5 38t-46 58.5t-17 74q0 38 15.5 70.5t41.5 56.5q-81 83 -192.5 127.5t-239.5 44.5q-58 0 -118 -10.5t-116.5 -31.5
t-105.5 -51.5t-86 -70.5t-58.5 -89t-21.5 -106q0 -51 18.5 -93t54.5 -79q33 81 107 141t192 80l37 -142q-91 -28 -134 -84.5t-43 -125.5q0 -39 15 -73.5t44 -60t73 -40.5t103 -15q53 0 92.5 16t66 40t39.5 52t13 52q0 37 -18 65.5t-42 46.5zM1310 685q0 -38 17 -60t37 -22
q19 0 37 22t18 60t-16 59.5t-39 21.5t-38.5 -21.5t-15.5 -59.5zM1387 -291l-119 -131l-339 315l102 101z" />
    <glyph glyph-name="ori_ca.virama" horiz-adv-x="1526" 
d="M1172 440q35 39 55 89.5t20 101.5q0 75 -41.5 139.5t-110.5 112t-158 74.5t-185 27q-100 0 -188.5 -25.5t-154.5 -72t-104.5 -111.5t-38.5 -145q0 -72 36 -126.5t102 -92.5q21 38 52 70t71 54.5t86.5 35t97.5 12.5q71 0 133.5 -23.5t108.5 -64.5t72.5 -96t26.5 -118
t-26.5 -118t-72.5 -96t-108.5 -64.5t-133.5 -23.5q-66 0 -124 20.5t-103.5 56.5t-74.5 84.5t-36 104.5q-147 62 -218.5 159t-71.5 237q0 100 46.5 190t133 158.5t210.5 108.5t279 40q166 0 291.5 -43t209.5 -113.5t126.5 -161t42.5 -186.5q0 -86 -35 -165t-95 -149zM555 281
q0 -31 12.5 -58t33.5 -47t49.5 -31.5t60.5 -11.5q33 0 61.5 11.5t49.5 31.5t33.5 47t12.5 58t-12.5 58t-33.5 47t-49.5 32t-61.5 12q-32 0 -60.5 -12t-49.5 -32t-33.5 -47t-12.5 -58zM1303 -291l-119 -131l-339 315l102 101z" />
    <glyph glyph-name="ori_cha.virama" horiz-adv-x="1440" 
d="M992 -24q-51 0 -91 11.5t-73 31t-60.5 44t-51.5 51.5q-25 -27 -52.5 -51.5t-60.5 -44t-73 -31t-91 -11.5q-53 0 -94 16t-69.5 45.5t-43.5 70t-15 89.5q0 45 19 86t56 72q-11 7 -22.5 13t-33 11.5t-57.5 10t-96 9.5l35 105q99 -8 183.5 -27.5t155.5 -45.5q-1 6 -2 11.5
t-1 11.5q-119 47 -172 120.5t-53 176.5q0 81 38.5 152t110.5 123t174 82t230 30q123 0 224.5 -30t175 -82t114 -123t40.5 -152q0 -72 -31.5 -135t-88.5 -129l-124 111q32 38 46 73.5t14 73.5q0 49 -29 92.5t-79 76t-117.5 51.5t-144.5 19q-81 0 -149 -18t-117 -49.5t-76 -74
t-27 -92.5q0 -55 24.5 -92.5t59.5 -59.5q35 51 92 83t129 32q57 0 105 -21t83.5 -56t55.5 -80t20 -92q0 -28 -6 -52q56 -1 100 -19t75 -48t47 -68.5t16 -79.5q0 -49 -15 -89.5t-43.5 -70t-69.5 -45.5t-94 -16zM618 436q0 -29 6 -55t18.5 -45.5t31.5 -31.5t44 -12
q24 0 42.5 13t31 34t19.5 47t7 52q0 28 -7.5 54.5t-21 46.5t-32 32t-39.5 12t-39.5 -10.5t-32 -30t-21 -46.5t-7.5 -60zM548 268q-23 11 -48.5 17.5t-56.5 6.5q-16 0 -33 -4.5t-30.5 -14t-22 -25.5t-8.5 -38q0 -15 4.5 -29t15.5 -24.5t29.5 -17t46.5 -6.5q48 0 94.5 20.5
t91.5 52.5l-28 26q-15 7 -28.5 16t-26.5 20zM822 227q-7 -5 -12.5 -10.5l-10.5 -10.5q46 -32 92.5 -52.5t94.5 -20.5q28 0 46.5 6.5t29.5 17t15.5 24.5t4.5 29q0 22 -8.5 38t-22 25.5t-30.5 14t-33 4.5q-54 0 -97 -20q-16 -14 -32.5 -25.5t-36.5 -19.5zM1349 -321l-119 -131
l-339 315l102 101z" />
    <glyph glyph-name="ori_ja.virama" horiz-adv-x="1660" 
d="M1235 0h-208v499l-164 -73q36 -32 52 -80t16 -98q0 -43 -19.5 -90.5t-61 -87t-105.5 -65.5t-154 -26t-155 30.5t-106 77.5t-60.5 105t-19.5 113q-75 51 -121 133t-46 194q0 110 56 203t154.5 160.5t233 105t291.5 37.5q105 0 200.5 -17.5t177.5 -50t148.5 -77.5
t113.5 -100t72.5 -118t25.5 -132q0 -72 -34.5 -154.5t-95.5 -168.5l-120 120q35 39 55 90t20 112q0 47 -21.5 90.5t-60 81.5t-91 69.5t-114.5 53.5t-130.5 34.5t-139.5 12.5q-119 0 -221 -29t-177 -78t-117.5 -113.5t-42.5 -134.5q0 -41 8 -72t32 -66q42 60 110 103.5
t153 72.5l49 -148q-40 -14 -73.5 -33.5t-58 -45.5t-38.5 -58.5t-14 -72.5q0 -37 11 -69t31.5 -56t50 -37.5t66.5 -13.5q31 0 59 11t49 30.5t33.5 46t12.5 56.5q0 57 -29 99t-78 63l595 282v-721zM1487 -291l-119 -131l-339 315l102 101z" />
    <glyph glyph-name="ori_jha.virama" horiz-adv-x="1418" 
d="M1244 7l-90 -158l-266 179q-41 -23 -88 -36t-99 -13q-66 0 -123.5 20.5t-102.5 55.5t-74.5 83t-37.5 104q-70 33 -122.5 78t-87.5 99t-52.5 114.5t-17.5 123.5q0 100 41 181t113.5 138t172 88t216.5 31q37 0 80 -5t86 -15t85 -24t78 -32q-18 -16 -35.5 -43.5t-17.5 -67.5
q0 -23 7 -44t21.5 -37t37 -26t53.5 -10q24 0 44.5 8t36 22t24.5 34t9 43q0 43 -20.5 65.5t-57.5 43.5l93 133q83 -58 123.5 -120t40.5 -140q0 -33 -14.5 -75.5t-48 -80t-88.5 -63.5t-137 -26q-57 0 -109 13.5t-92 39.5t-64 63.5t-24 84.5q0 25 7 50.5t18 41.5q-7 3 -26 5.5
t-40.5 4.5t-41 3t-28.5 1q-70 0 -135 -18.5t-115 -54.5t-80 -89t-30 -123q0 -77 31 -137t96 -109q21 38 52.5 70t71 54.5t86.5 35t98 12.5q70 0 132.5 -23.5t108.5 -64.5t73 -96t27 -118q0 -42 -12.5 -81t-35.5 -73zM545 281q0 -31 12 -58t33 -47t49.5 -31.5t61.5 -11.5
q32 0 60.5 11.5t50 31.5t34 47t12.5 58t-12.5 58t-34 47t-50 32t-60.5 12q-33 0 -61.5 -12t-49.5 -32t-33 -47t-12 -58zM1123 -321l-119 -131l-339 315l102 101z" />
    <glyph glyph-name="ori_nya.virama" horiz-adv-x="1435" 
d="M262 905q0 -68 34 -119.5t94 -86.5t142.5 -53t179.5 -18q87 0 166 11.5t139 38.5t95.5 71t35.5 108q0 22 -8.5 44.5t-24.5 41t-39.5 30t-53.5 11.5q-17 0 -34.5 -5.5t-32.5 -16.5t-24.5 -28.5t-9.5 -41.5v-126h-184v141q0 34 -23.5 55.5t-56.5 21.5q-16 0 -30.5 -6.5
t-25.5 -17t-17.5 -24.5t-6.5 -29q0 -20 5.5 -35.5t13 -27.5t16 -20.5t14.5 -15.5l-117 -92q-20 15 -40.5 35t-37 46t-27 57t-10.5 67q0 45 19.5 85t55 69t84.5 46t109 17q53 0 101 -19.5t77 -52.5q20 17 40.5 30.5t43.5 22.5t50.5 14t62.5 5q75 0 130.5 -24t91.5 -63
t54 -87.5t18 -97.5q0 -83 -36.5 -147.5t-100.5 -113.5q69 -38 103 -102t34 -132q0 -97 -50.5 -170.5t-135.5 -122.5t-197 -74t-235 -25q-131 0 -245.5 26.5t-200 80t-135 134.5t-49.5 190q0 135 96 243q-46 50 -71 112t-25 140q0 152 125 273l123 -112q-8 -8 -19.5 -22
t-22.5 -34t-19 -46.5t-8 -58.5zM262 410q0 -68 34 -119.5t94 -86.5t142.5 -53t179.5 -18q87 0 166 11.5t139 38.5t95.5 71t35.5 108q0 22 -8.5 44.5t-24.5 41t-39.5 30t-53.5 11.5q-17 0 -34.5 -5.5t-32.5 -16.5t-24.5 -28.5t-9.5 -41.5v-126h-184v141q0 25 -14 41t-37 21
l-48 2q-26 -5 -43.5 -21.5t-17.5 -42.5q0 -20 5.5 -35.5t13 -27.5t16 -20.5t14.5 -15.5l-117 -93q-20 15 -40.5 35.5t-37 46.5t-27 57t-10.5 67q0 52 23 88q-27 8 -53 18.5t-49 21.5q-17 -21 -35 -57t-18 -87zM1277 -291l-119 -131l-339 315l102 101z" />
    <glyph glyph-name="ori_tta.virama" horiz-adv-x="1502" 
d="M1190 1117h208v-487h-208v93q-20 56 -61.5 104t-101 83t-133.5 54.5t-158 19.5q-97 0 -182.5 -25.5t-149 -72t-100 -111.5t-36.5 -143t29.5 -132t77.5 -84q21 37 52.5 68t71 53t85.5 34t96 12q71 0 133 -23.5t108.5 -64.5t73 -96t26.5 -118t-26.5 -118t-73 -96
t-108.5 -64.5t-133 -23.5q-66 0 -123.5 20t-102.5 55.5t-74 83t-37 103.5q-65 28 -113.5 71t-81 95.5t-49 112.5t-16.5 123q0 107 49 197.5t135.5 156.5t205 103.5t258.5 37.5q137 0 254 -38.5t205 -106.5v124zM524 281q0 -31 12.5 -58t33.5 -47t49.5 -31.5t60.5 -11.5
q33 0 61.5 11.5t50 31.5t33.5 47t12 58t-12 58t-33.5 47t-50 32t-61.5 12q-32 0 -60.5 -12t-49.5 -32t-33.5 -47t-12.5 -58zM1269 -291l-119 -131l-339 315l102 101z" />
    <glyph glyph-name="ori_ttha.virama" horiz-adv-x="1408" 
d="M83 558q0 120 49 225.5t132.5 184.5t194.5 124.5t235 45.5t234.5 -46t194 -125.5t132.5 -185t49 -225.5q0 -80 -22.5 -153.5t-62.5 -137.5t-96 -117t-124 -90.5t-145.5 -58t-159.5 -20.5q-124 0 -235 45.5t-194.5 124.5t-132.5 184t-49 225zM267 558q0 -88 33.5 -165.5
t91.5 -135t136 -91t166 -33.5t166 33.5t136 91t91.5 135t33.5 165.5t-33.5 166t-91.5 135.5t-136 91t-166 33.5t-166 -33.5t-136 -91t-91.5 -135.5t-33.5 -166zM1566 -291l-119 -131l-339 315l102 101z" />
    <glyph glyph-name="ori_dda.virama" horiz-adv-x="1566" 
d="M842 318l-140 95l262 367l134 -100l-112 -158q39 -17 69 -42t50.5 -55t31.5 -64t11 -68q0 -70 -29 -128t-81 -99t-124 -64t-159 -23q-79 0 -148.5 20t-123.5 56t-91 86.5t-51 111.5q-65 36 -113.5 81t-80.5 95t-48 104.5t-16 109.5q0 103 47.5 193t137 157t217 106
t287.5 39q159 0 286.5 -39t217.5 -106t138 -157t48 -193q0 -72 -34 -154.5t-96 -168.5l-119 120q35 39 55 90t20 112q0 70 -40.5 132.5t-110 109t-162.5 73.5t-198 27q-108 0 -201.5 -27t-162 -73.5t-107.5 -109t-39 -132.5q0 -65 22 -113.5t66 -86.5q15 42 41.5 79.5
t64 68.5t86.5 52.5t110 31.5l38 -142q-91 -28 -134 -84.5t-43 -125.5q0 -39 15 -73.5t44 -60t73 -40.5t103 -15q53 0 92.5 16t66 40t39.5 52t13 52q0 37 -18 65.5t-42 46.5zM1405 -291l-119 -131l-339 315l102 101z" />
    <glyph glyph-name="ori_ddha.virama" horiz-adv-x="1525" 
d="M1171 440q36 39 55.5 90t19.5 112q0 70 -39 132.5t-106 109t-157.5 73.5t-192.5 27q-99 0 -187 -27t-154 -73.5t-104.5 -109t-38.5 -132.5q0 -57 21 -104t67 -82q32 68 90.5 119.5t125.5 82.5l64 -111q-66 -43 -96.5 -97.5t-30.5 -126.5q0 -31 9 -61.5t27 -57t44.5 -46.5
t62.5 -30q-31 32 -46.5 68t-15.5 72t15.5 72.5t49 66.5t85.5 49t125 19q67 0 118.5 -21t86 -53t52 -72t17.5 -77q0 -61 -27.5 -111.5t-76.5 -86.5t-115.5 -55.5t-145.5 -19.5q-92 0 -168.5 22t-134 61t-93.5 91.5t-48 114.5q-55 26 -100.5 64t-77.5 86t-50 104.5t-18 120.5
q0 103 47 193t134 157t210.5 106t276.5 39q157 0 281.5 -39t210.5 -106t132 -157t46 -193q0 -72 -34 -154.5t-96 -168.5zM773 233q0 -21 7 -39t19.5 -31.5t29 -21.5t34.5 -8t34.5 8t29 21.5t20 31.5t7.5 39t-7 39t-19 31.5t-28.5 21.5t-35.5 8q-40 0 -65.5 -29t-25.5 -71z
M1386 -291l-119 -131l-339 315l102 101z" />
    <glyph glyph-name="ori_nna.virama" horiz-adv-x="1407" 
d="M852 699l-94 -132q-48 36 -106.5 63t-135.5 27q-50 0 -95 -17.5t-79.5 -50t-55 -79.5t-20.5 -106q0 -31 7.5 -58.5t19.5 -52.5q29 49 69 85t86.5 60t95.5 35.5t96 11.5q65 0 125 -17.5t105.5 -49t72.5 -74t27 -92.5q0 -53 -19.5 -94t-52 -71t-74 -51t-86 -33.5t-87.5 -18
t-78 -5.5q-102 0 -191 30t-155.5 85t-105 133.5t-38.5 176.5q0 67 22.5 127.5t63 111t96.5 87t123 55.5q-19 29 -30 58.5t-11 61.5q0 51 22.5 94t63 74t97.5 48t127 17q66 0 122 -12.5t107.5 -36.5t102.5 -60t106 -84v172h208v-1117h-208v682q-29 58 -72 112.5t-95.5 96.5
t-112.5 67.5t-123 25.5q-35 0 -64.5 -7t-51 -19.5t-33.5 -31t-12 -42.5q0 -23 9.5 -44t24.5 -40q49 -5 95.5 -18.5t84.5 -29t66 -30t41 -23.5zM640 332q-76 0 -131 -42.5t-84 -114.5q29 -17 76 -29.5t99 -12.5q29 0 62 7.5t60.5 21.5t45.5 33.5t18 44.5q0 23 -13 40
t-33.5 28.5t-46.5 17.5t-53 6zM1555 -291l-119 -131l-339 315l102 101z" />
    <glyph glyph-name="ori_ta.virama" horiz-adv-x="1525" 
d="M1171 440q36 39 55.5 90t19.5 112q0 70 -38 132.5t-104.5 109t-157 73.5t-195.5 27q-107 0 -196 -27t-153 -73.5t-99.5 -109t-35.5 -132.5q0 -64 22 -113t64 -84q30 62 86.5 116.5t131.5 96.5l74 -126q-30 -12 -55.5 -33t-43.5 -48t-28 -59.5t-10 -68.5q0 -44 17 -79.5
t45.5 -60t66 -37.5t79.5 -13q36 0 71 10.5t62.5 31.5t44.5 53t17 75q0 18 -3.5 30.5t-6.5 18.5q-14 -36 -41.5 -52.5t-59.5 -16.5q-21 0 -40 7.5t-33.5 21t-23.5 32.5t-9 41q0 30 12 52.5t33 37.5t48.5 22.5t59.5 7.5q57 0 103 -20.5t78.5 -54t49.5 -75.5t17 -84
q0 -65 -29.5 -119t-81 -92.5t-120.5 -59.5t-148 -21t-145.5 22.5t-117 61.5t-83 92t-42.5 115q-126 72 -185.5 168.5t-59.5 204.5q0 103 49.5 193t138 157t211 106t269.5 39q94 0 180.5 -17.5t161 -50t135 -77.5t103.5 -100t66.5 -118t23.5 -132q0 -72 -34 -154.5
t-96 -168.5zM1367 -291l-119 -131l-339 315l102 101z" />
    <glyph glyph-name="ori_tha.virama" horiz-adv-x="1376" 
d="M554 1138q108 0 182 -31t119.5 -77t65 -98t19.5 -94q0 -82 -29 -137.5t-76 -93t-107.5 -61t-124 -41t-124 -33.5t-107.5 -38t-76 -54.5t-29 -84.5q0 -39 20 -69t52 -51t71.5 -31.5t79.5 -10.5q67 0 131.5 22.5t124 58.5t111.5 82t93.5 93t71 90.5t42.5 74.5v563h208
v-1117h-208v274q-45 -58 -106 -111t-134.5 -94t-158 -65.5t-175.5 -24.5q-74 0 -147 19.5t-130.5 59t-93.5 99t-36 139.5q0 72 29 120t76.5 80.5t108 53t123.5 38t123.5 35t108 43t76.5 63.5t29 96q0 39 -17.5 68.5t-45.5 50t-62 30.5t-67 10q-32 0 -68 -7.5t-66 -23.5
t-49.5 -40t-19.5 -57q0 -20 5.5 -36t13.5 -28.5t16.5 -21t14.5 -13.5l-133 -100q-14 12 -31.5 30.5t-32.5 43.5t-25.5 57t-10.5 72q0 49 22.5 99t69 89.5t117 64.5t166.5 25zM1524 -291l-119 -131l-339 315l102 101z" />
    <glyph glyph-name="ori_da.virama" horiz-adv-x="1442" 
d="M1089 440q35 39 55 96t20 118q0 70 -32 130.5t-90 105t-139.5 69.5t-180.5 25q-92 0 -174.5 -25t-145 -69t-99.5 -104t-37 -131q0 -61 23.5 -105t69.5 -66q40 60 113 105.5t169 77.5l49 -153q-40 -9 -74 -23t-59 -33.5t-39 -44.5t-14 -56q0 -38 15 -63.5t37 -40.5
t47 -21.5t46 -6.5q36 0 67 17t53.5 46t35.5 68.5t13 84.5l208 77v-518h-208v133q-32 -24 -77.5 -39t-95.5 -15q-61 0 -116 19t-98.5 52.5t-72.5 78.5t-36 97q-56 21 -100.5 56t-75.5 79t-47 96.5t-16 108.5q0 98 49 184t134.5 150t202.5 101t253 37q133 0 246 -37
t195.5 -101.5t128.5 -153t46 -191.5q0 -72 -34 -160.5t-96 -174.5zM1278 -291l-119 -131l-339 315l102 101z" />
    <glyph glyph-name="ori_dha.virama" horiz-adv-x="1267" 
d="M771 569l-123 -100l-97 96q-27 8 -46 9t-33 1q-24 0 -59 -10.5t-68 -34t-56 -61.5t-23 -93q0 -59 22.5 -104.5t60 -76.5t85 -46.5t98.5 -15.5q54 0 107.5 14t106 38.5t105 58.5t104.5 74v799h208v-1117h-208v144q-36 -24 -83 -53t-102.5 -54t-118 -41.5t-129.5 -16.5
q-93 0 -173 29t-139 81.5t-93 126.5t-34 164q0 70 26 129t69 104t98.5 73.5t113.5 37.5l-302 298l125 116zM1415 -291l-119 -131l-339 315l102 101z" />
    <glyph glyph-name="ori_na.virama" horiz-adv-x="1422" 
d="M985 666v-666h-208v510q-66 -7 -119.5 -30.5t-92 -62t-59.5 -91t-21 -118.5q0 -36 4.5 -75t10.5 -73l-198 -92v100q0 63 7.5 121t23.5 109q-60 24 -106.5 60.5t-78.5 81.5t-48.5 97t-16.5 106q0 103 45 193t127 157t195 106t250 39q139 0 253 -39t195 -106t125.5 -157
t44.5 -193q0 -72 -34.5 -154.5t-95.5 -168.5l-120 120q35 39 55 90t20 112q0 70 -32 132.5t-90.5 109t-140.5 73.5t-183 27q-95 0 -174.5 -27t-136.5 -73.5t-88.5 -109t-31.5 -132.5q0 -36 10.5 -66t29 -54.5t43 -43.5t52.5 -31q70 106 183.5 162.5t268.5 56.5h132z
M1237 -291l-119 -131l-339 315l102 101z" />
    <glyph glyph-name="ori_pa.virama" horiz-adv-x="1268" 
d="M274 757q0 -38 13 -69.5t34.5 -56.5t49 -44.5t56.5 -32.5q60 45 128 76.5t129 54.5l59 -153q-53 -15 -106 -34t-95.5 -47.5t-69.5 -68t-27 -94.5q0 -47 18 -77t44.5 -47.5t57.5 -24t57 -6.5q57 0 109.5 21t96 51.5t76.5 66.5t52 66v471q-104 80 -210 127.5t-209 47.5
q-46 0 -93 -14t-84.5 -42t-61.5 -70.5t-24 -100.5zM262 281q0 57 19.5 104t54.5 87q-54 18 -100 48t-80 69.5t-53.5 88.5t-19.5 106q0 84 31 150t89.5 111t142.5 69t189 24q65 0 125.5 -15t114 -38t99.5 -50t82 -51v133h208v-1117h-208v133q-33 -33 -71 -61t-81 -48.5
t-89.5 -32.5t-95.5 -12q-76 0 -141 20t-113 58t-75.5 94.5t-27.5 129.5zM1416 -291l-119 -131l-339 315l102 101z" />
    <glyph glyph-name="ori_pha.virama" horiz-adv-x="1597" 
d="M262 281q0 57 19.5 104t54.5 87q-54 18 -100 48t-80 69.5t-53.5 88.5t-19.5 106q0 84 31 150t89.5 111t142.5 69t189 24q65 0 125.5 -15t114 -38t99.5 -50t82 -51v133h208v-124q20 5 40.5 8.5t42.5 3.5q51 0 96 -15.5t78 -42.5t52.5 -63.5t19.5 -78.5t-19.5 -78.5
t-52.5 -63.5t-78 -43t-96 -16q-44 0 -83 12v-616h-208v133q-33 -33 -71 -61t-81 -48.5t-89.5 -32.5t-95.5 -12q-76 0 -141 20t-113 58t-75.5 94.5t-27.5 129.5zM274 757q0 -38 13 -69.5t34.5 -56.5t49 -44.5t56.5 -32.5q60 45 128 76.5t129 54.5l59 -153q-53 -15 -106 -34
t-95.5 -47.5t-69.5 -68t-27 -94.5q0 -47 18 -77t44.5 -47.5t57.5 -24t57 -6.5q57 0 109.5 21t96 51.5t76.5 66.5t52 66v471q-104 80 -210 127.5t-209 47.5q-46 0 -93 -14t-84.5 -42t-61.5 -70.5t-24 -100.5zM1164 805q0 -20 7 -38t19 -31.5t27 -21.5t31 -8t31 8t26 21.5
t18 31.5t7 38t-6.5 38t-18 31.5t-26.5 21t-31 7.5q-35 0 -59.5 -28.5t-24.5 -69.5zM1416 -291l-119 -131l-339 315l102 101z" />
    <glyph glyph-name="ori_ba.virama" horiz-adv-x="1484" 
d="M1064 414v-414h-208v167q-26 -19 -72 -37t-108 -18q-48 0 -94.5 14.5t-86.5 40t-71.5 61t-50.5 78.5q-59 25 -112 60.5t-92.5 82t-62.5 103.5t-23 124q0 105 50 190.5t137 146t205.5 93t255.5 32.5t255.5 -39t206 -106t137.5 -157t50 -193q0 -72 -34 -154.5t-96 -168.5
l-120 120q35 39 55 90t20 112q0 70 -35 132.5t-98 109t-150 73.5t-191 27q-92 0 -176 -21t-148.5 -61t-102.5 -97t-38 -129q0 -65 26 -113.5t68 -78.5q14 50 46 92.5t77 73.5t101 48.5t117 17.5q72 0 137.5 -23.5t115.5 -64.5t80 -96t30 -118zM514 414q0 -31 14.5 -58
t40 -47.5t60 -32t73.5 -11.5t73 11.5t59.5 32t40.5 47.5t15 58t-15 58t-40.5 47t-59.5 32t-73 12t-73.5 -12t-60 -32t-40 -47t-14.5 -58zM1316 -291l-119 -131l-339 315l102 101z" />
    <glyph glyph-name="ori_bha.virama" horiz-adv-x="1720" 
d="M840 984q-129 0 -234.5 -30t-181.5 -82t-117.5 -121t-41.5 -147q0 -126 94 -190q10 50 31.5 92t52 76t69 61.5t82.5 48.5l79 -140q-68 -41 -105 -88.5t-37 -120.5q0 -43 19.5 -81t53.5 -66.5t80 -45.5t98 -17q58 0 102.5 15.5t75.5 44.5q-7 -1 -14 -1h-14
q-56 0 -100 15.5t-75 42t-47.5 61t-16.5 72.5q0 34 7 63t21.5 55t36.5 51t52 51l85 -101q-32 -32 -43.5 -54t-11.5 -51q0 -27 10.5 -44.5t26.5 -28t34.5 -15t33.5 -4.5q23 0 46 18.5t28 56.5q-2 21 -6 38.5t-11.5 34.5t-19 34.5t-27.5 39.5l135 105q33 -54 52 -98t28.5 -81
t12 -66.5t2.5 -53.5q0 -70 -29 -134t-82 -113t-128 -78t-166 -29q-74 0 -140 18.5t-120 51.5t-93.5 79t-58.5 100q-146 57 -215.5 156.5t-69.5 233.5q0 60 21 122t63 120t105 108.5t147 88t189 59.5t232 22q117 0 218 -25.5t184.5 -69t148 -101.5t109 -123.5t67.5 -134.5
t23 -134q0 -62 -10.5 -114t-31.5 -97.5t-51.5 -87t-70.5 -83.5l190 -209l-153 -121l-241 377q49 38 84.5 80t57.5 85t32.5 86t10.5 84q0 49 -19.5 100t-55 99.5t-86.5 91t-114 74.5t-136.5 50.5t-155.5 18.5zM1440 -291l-119 -131l-339 315l102 101z" />
    <glyph glyph-name="ori_ma.virama" horiz-adv-x="1264" 
d="M743 563q-35 -11 -78.5 -30.5t-89 -46.5t-91.5 -58.5t-86.5 -65.5t-73.5 -69t-52 -68q20 0 41.5 -8t39 -22.5t29 -35t11.5 -46.5q0 -23 -10.5 -43.5t-29.5 -36t-46.5 -24.5t-60.5 -9q-30 0 -59 10.5t-52 31t-37.5 50.5t-14.5 70q0 37 22 79.5t59.5 86t86 86.5t101.5 83
q-53 10 -101.5 38.5t-86 69.5t-59.5 91t-22 104q0 83 35 146.5t95.5 106t141.5 64t172 21.5q64 0 125 -12t115.5 -30.5t101.5 -42.5t83 -48v112h208v-1117h-208v830q-57 36 -105.5 65t-97 48.5t-101.5 30t-120 10.5q-38 0 -83 -10t-83.5 -32.5t-64 -57.5t-25.5 -85
q0 -43 17 -76t43 -55.5t57 -34t60 -11.5q33 0 56.5 2t46.5 8q61 35 101 52zM1412 -291l-119 -131l-339 315l102 101z" />
    <glyph glyph-name="ori_ya.virama" horiz-adv-x="1448" 
d="M442 281q0 18 1.5 35t6.5 33q-60 -27 -106 -58.5t-66 -64.5q47 -16 70 -44.5t23 -60.5q0 -26 -11.5 -48t-31 -38t-45.5 -25.5t-56 -9.5q-29 0 -55.5 12.5t-46 33t-31 47t-11.5 55.5q0 60 36.5 112t92 96.5t120.5 80t121 61.5q-42 21 -76.5 50.5t-60 65.5t-39.5 79t-14 91
q0 84 31 150t89.5 111t142 69t188.5 24q65 0 125.5 -15t114.5 -38t100 -50t82 -51v133h208v-1117h-208v133q-33 -33 -71 -61t-81 -48.5t-89.5 -32.5t-95.5 -12q-76 0 -141 20t-113 58t-75.5 94.5t-27.5 129.5zM453 757q0 -38 13 -69.5t34.5 -56.5t49.5 -44.5t57 -32.5
q60 45 128 76.5t129 54.5l58 -153q-52 -15 -105 -34t-95.5 -47.5t-69.5 -68t-27 -94.5q0 -47 18 -77t44.5 -47.5t57.5 -24t57 -6.5q57 0 109.5 21t96 51.5t76.5 66.5t52 66v471q-104 80 -210 127.5t-209 47.5q-46 0 -93 -14t-85 -42t-62 -70.5t-24 -100.5zM1596 -291
l-119 -131l-339 315l102 101z" />
    <glyph glyph-name="ori_ra.virama" horiz-adv-x="1578" 
d="M746 984q-102 0 -189.5 -29t-151.5 -78.5t-100.5 -114.5t-36.5 -136q0 -57 22.5 -108.5t68.5 -90.5q22 35 54.5 63.5t72 49t85 31.5t94.5 11q72 0 136 -23.5t112 -64.5t76 -95.5t28 -117.5t-28 -118t-76 -96t-112 -64.5t-136 -23.5q-66 0 -125 20t-106 55t-77.5 82.5
t-39.5 103.5q-60 37 -104 82t-73 95t-43 102.5t-14 105.5q0 106 45 199.5t130.5 163.5t208.5 110t279 40q117 0 214.5 -25.5t175.5 -69t136.5 -101.5t97.5 -123.5t58.5 -134.5t19.5 -134q0 -62 -10.5 -114t-31.5 -97.5t-52 -87t-71 -83.5l191 -209l-153 -121l-241 377
q49 38 84.5 80t57.5 85t32.5 86t10.5 84q0 49 -16 100t-46.5 99.5t-75 91t-102 74.5t-127.5 50.5t-152 18.5zM477 281q0 -31 15 -58t40.5 -47.5t60 -32t73.5 -11.5t73 11.5t59.5 32t40.5 47.5t15 58t-15 58t-40.5 47t-59.5 32t-73 12t-73.5 -12t-60 -32t-40.5 -47t-15 -58z
M1276 -291l-119 -131l-339 315l102 101z" />
    <glyph glyph-name="ori_la.virama" horiz-adv-x="1720" 
d="M1195 0h-208v401q0 46 -17.5 79t-52.5 33q-26 0 -48 -28t-22 -90v-395h-208v418q0 46 -17.5 70.5t-53.5 24.5q-32 0 -51 -26t-19 -69v-418h-208v234q-54 31 -93 73.5t-64.5 92.5t-37.5 105.5t-12 114.5q0 98 46 191.5t139.5 166t234.5 116.5t332 44q120 0 223 -25.5
t187 -69t148.5 -101.5t108 -123.5t66 -134.5t22.5 -134q0 -62 -10.5 -114t-31.5 -97.5t-51.5 -87t-70.5 -83.5l190 -209l-153 -121l-241 377q49 38 84.5 80t57.5 85t32.5 86t10.5 84q0 49 -18 100t-52 99.5t-83.5 91t-113 74.5t-140.5 50.5t-165 18.5q-144 0 -253 -30
t-181.5 -80t-109 -116t-36.5 -138q0 -48 7.5 -85.5t30.5 -66.5q7 45 32.5 82t61 62.5t78.5 39.5t87 14q48 0 94 -15.5t96 -65.5q40 47 89.5 64t96.5 17q53 0 101.5 -17t85 -47.5t58.5 -74t22 -97.5v-430zM1447 -291l-119 -131l-339 315l102 101z" />
    <glyph glyph-name="ori_lla.virama" horiz-adv-x="1597" 
d="M264 633q0 -48 6 -85t29 -80q7 45 32.5 82t61 62.5t78.5 39.5t87 14q48 0 94 -15.5t96 -65.5q40 47 89.5 64t96.5 17q53 0 101.5 -17t85 -47.5t58.5 -74t22 -97.5v-430h-208v401q0 46 -17.5 79t-52.5 33q-26 0 -48 -28t-22 -90v-395h-208v418q0 46 -17.5 70.5t-53.5 24.5
q-32 0 -51 -26t-19 -69v-418h-208v234q-54 31 -93.5 75.5t-65.5 97t-38.5 110t-12.5 116.5q0 103 49.5 194.5t140.5 160.5t220.5 109.5t290.5 40.5q165 0 296 -39t222 -106t139.5 -157t48.5 -193q0 -72 -34 -154.5t-96 -168.5l-119 120q35 39 55 90t20 112q0 70 -37 132.5
t-105 109t-166 73.5t-219 27q-119 0 -216.5 -28.5t-166.5 -76.5t-107 -112t-38 -134zM1453 -291l-119 -131l-339 315l102 101z" />
    <glyph glyph-name="ori_va.virama" horiz-adv-x="1484" 
d="M1066 414v-414h-208v159q-29 -19 -70.5 -33t-86.5 -14q-55 0 -106 14.5t-94 40t-76 61t-52 78.5q-59 25 -112 60.5t-92.5 82t-62.5 103.5t-23 124q0 105 50 190.5t137 146t205.5 93t255.5 32.5t255.5 -39t206 -106t137.5 -157t50 -193q0 -72 -34 -154.5t-96 -168.5
l-120 120q35 39 55 90t20 112q0 70 -35 132.5t-98 109t-150 73.5t-191 27q-92 0 -176 -21t-148.5 -61t-102.5 -97t-38 -129q0 -65 26 -113.5t68 -78.5q14 50 46 92.5t77 73.5t101 48.5t117 17.5q72 0 138 -23.5t116.5 -64.5t80.5 -96t30 -118zM514 414q0 -31 14.5 -58
t40 -47.5t60 -32t73.5 -11.5t73 11.5t59.5 32t40.5 47.5t15 58t-15 58t-40.5 47t-59.5 32t-73 12t-73.5 -12t-60 -32t-40 -47t-14.5 -58zM633 413q0 24 20 41.5t49 17.5t49.5 -17.5t20.5 -41.5t-20.5 -41.5t-49.5 -17.5t-49 17.5t-20 41.5zM1318 -291l-119 -131l-339 315
l102 101z" />
    <glyph glyph-name="ori_sha.virama" horiz-adv-x="1476" 
d="M1164 1117h208v-1117h-208v700q-30 67 -79 120t-109.5 89.5t-129 55.5t-137.5 19q-35 0 -66 -6t-54.5 -18.5t-37 -32.5t-13.5 -48v-12q41 -4 78 -12.5t73 -24t72.5 -38t75.5 -53.5l-119 -106q-10 10 -30 28t-50.5 35t-72.5 29.5t-97 12.5q-44 0 -81 -12.5t-64 -35.5
t-42 -55t-15 -71q0 -46 19 -78t48 -54q45 68 122 109.5t173 41.5q71 0 133 -23.5t108.5 -64.5t73 -96t26.5 -118t-26.5 -118t-73 -96t-108.5 -64.5t-133 -23.5q-69 0 -130 22.5t-106.5 61.5t-73 92t-30.5 114q-44 20 -81 49t-65 66t-43.5 81.5t-15.5 95.5q0 57 21.5 106.5
t59.5 88t89.5 65.5t112.5 39q-11 27 -11 57q0 43 18 83t58.5 71t105.5 49t158 18q66 0 130 -13.5t124 -37.5t114 -58t101 -75v163zM472 281q0 -31 12.5 -58t33.5 -47t49.5 -31.5t60.5 -11.5q33 0 61.5 11.5t50 31.5t33.5 47t12 58t-12 58t-33.5 47t-50 32t-61.5 12
q-32 0 -60.5 -12t-49.5 -32t-33.5 -47t-12.5 -58zM1624 -291l-119 -131l-339 315l102 101z" />
    <glyph glyph-name="ori_ssa.virama" horiz-adv-x="1268" 
d="M262 281q0 57 19.5 104t54.5 87q-54 18 -100 48t-80 69.5t-53.5 88.5t-19.5 106q0 84 31 150t89.5 111t142.5 69t189 24q65 0 125.5 -15t114 -38t99.5 -50t82 -51v133h208v-1117h-208v133q-33 -33 -71 -61t-81 -48.5t-89.5 -32.5t-95.5 -12q-76 0 -141 20t-113 58
t-75.5 94.5t-27.5 129.5zM445 288q0 -47 18 -77t44.5 -47.5t57.5 -24t57 -6.5q49 0 94 15.5t84.5 39.5t72 53.5t55.5 58.5l-192 230q-51 -15 -103 -34t-94 -47.5t-68 -67.5t-26 -93zM956 809q-104 80 -210 127.5t-209 47.5h-8l427 -511v336zM274 757q0 -38 13 -69.5
t34.5 -56.5t49 -44.5t56.5 -32.5q47 34 98.5 60.5t101.5 47.5l-236 286q-51 -27 -84 -74t-33 -117zM1416 -291l-119 -131l-339 315l102 101z" />
    <glyph glyph-name="ori_sa.virama" horiz-adv-x="1268" 
d="M956 0l-868 210l291 243q-62 19 -116 49.5t-94 71.5t-63 91.5t-23 109.5q0 89 35 157t97.5 113.5t147.5 69t184 23.5q64 0 122.5 -15t110 -38t96 -50t80.5 -51v133h208v-1117h-208zM675 701l87 -120l-344 -285l538 -138v651q-52 40 -100.5 72t-97.5 55t-100.5 35.5
t-110.5 12.5q-44 0 -92.5 -13t-89 -40.5t-67 -70.5t-26.5 -104q0 -36 15 -69.5t42.5 -62t66 -50.5t84.5 -36zM1416 -291l-119 -131l-339 315l102 101z" />
    <glyph glyph-name="ori_ha.virama" horiz-adv-x="1442" 
d="M1089 440q35 39 55 96t20 118q0 70 -32 130.5t-90 105t-139.5 69.5t-180.5 25q-92 0 -174.5 -25t-145 -69t-99.5 -104t-37 -131q0 -61 23.5 -105t69.5 -66q40 60 113 105.5t169 77.5l49 -153q-40 -9 -74 -23t-59 -33.5t-39 -44.5t-14 -56q0 -38 15 -63.5t37 -40.5
t47 -21.5t46 -6.5q36 0 69 17t57.5 46t39.5 68.5t15 84.5l184 95v-536h-184v152q-10 -8 -21.5 -15.5t-25.5 -15.5l-260 -197l483 -151l-112 -79l-622 198l265 204q-42 13 -79 35.5t-65 52t-46.5 65.5t-24.5 77q-56 21 -100.5 56t-75.5 79t-47 96.5t-16 108.5q0 98 49 184
t134.5 150t202.5 101t253 37q133 0 246 -37t195.5 -101.5t128.5 -153t46 -191.5q0 -72 -34 -160.5t-96 -174.5zM846 -503l-119 -131l-339 315l102 101z" />
    <glyph glyph-name="ori_rra.virama" horiz-adv-x="1566" 
d="M842 318l-140 95l262 367l134 -100l-112 -158q39 -17 69 -42t50.5 -55t31.5 -64t11 -68q0 -70 -29 -128t-81 -99t-124 -64t-159 -23q-79 0 -148.5 20t-123.5 56t-91 86.5t-51 111.5q-65 36 -113.5 81t-80.5 95t-48 104.5t-16 109.5q0 103 47.5 193t137 157t217 106
t287.5 39q159 0 286.5 -39t217.5 -106t138 -157t48 -193q0 -72 -34 -154.5t-96 -168.5l-119 120q35 39 55 90t20 112q0 70 -40.5 132.5t-110 109t-162.5 73.5t-198 27q-108 0 -201.5 -27t-162 -73.5t-107.5 -109t-39 -132.5q0 -65 22 -113.5t66 -86.5q15 42 41.5 79.5
t64 68.5t86.5 52.5t110 31.5l38 -142q-91 -28 -134 -84.5t-43 -125.5q0 -39 15 -73.5t44 -60t73 -40.5t103 -15q53 0 92.5 16t66 40t39.5 52t13 52q0 37 -18 65.5t-42 46.5zM646 -268q0 24 9 44.5t24.5 36t36 24.5t44.5 9t44.5 -9t36.5 -24.5t25 -36t9 -44.5t-9 -44.5
t-25 -36.5t-36.5 -25t-44.5 -9t-44.5 9t-36 25t-24.5 36.5t-9 44.5zM1458 -239l-119 -131l-339 315l102 101z" />
    <glyph glyph-name="ori_rha.virama" horiz-adv-x="1525" 
d="M1171 440q36 39 55.5 90t19.5 112q0 70 -39 132.5t-106 109t-157.5 73.5t-192.5 27q-99 0 -187 -27t-154 -73.5t-104.5 -109t-38.5 -132.5q0 -57 21 -104t67 -82q32 68 90.5 119.5t125.5 82.5l64 -111q-66 -43 -96.5 -97.5t-30.5 -126.5q0 -31 9 -61.5t27 -57t44.5 -46.5
t62.5 -30q-31 32 -46.5 68t-15.5 72t15.5 72.5t49 66.5t85.5 49t125 19q67 0 118.5 -21t86 -53t52 -72t17.5 -77q0 -61 -27.5 -111.5t-76.5 -86.5t-115.5 -55.5t-145.5 -19.5q-92 0 -168.5 22t-134 61t-93.5 91.5t-48 114.5q-55 26 -100.5 64t-77.5 86t-50 104.5t-18 120.5
q0 103 47 193t134 157t210.5 106t276.5 39q157 0 281.5 -39t210.5 -106t132 -157t46 -193q0 -72 -34 -154.5t-96 -168.5zM773 233q0 -21 7 -39t19.5 -31.5t29 -21.5t34.5 -8t34.5 8t29 21.5t20 31.5t7.5 39t-7 39t-19 31.5t-28.5 21.5t-35.5 8q-40 0 -65.5 -29t-25.5 -71z
M662 -268q0 24 9 44.5t24.5 36t36 24.5t44.5 9t44.5 -9t36.5 -24.5t25 -36t9 -44.5t-9 -44.5t-25 -36.5t-36.5 -25t-44.5 -9t-44.5 9t-36 25t-24.5 36.5t-9 44.5zM1458 -239l-119 -131l-339 315l102 101z" />
    <glyph glyph-name="ori_yya.virama" horiz-adv-x="1569" 
d="M753 -24q-149 0 -230 79t-81 226q0 18 1.5 35t6.5 33q-60 -27 -106 -58.5t-66 -64.5q47 -16 70 -44.5t23 -60.5q0 -26 -11.5 -48t-31 -38t-45.5 -25.5t-56 -9.5q-29 0 -55.5 12.5t-46 33t-31 47t-11.5 55.5q0 60 36.5 112t92 96.5t120.5 80t121 61.5q-42 21 -76.5 50.5
t-60 65.5t-39.5 79t-14 91q0 84 31 150t89.5 111t142 69t188.5 24q65 0 125.5 -15t114.5 -38t100 -50t82 -51v133h208v-718q60 -23 90.5 -69t30.5 -106q0 -32 -16.5 -60.5t-41.5 -53t-56 -44t-59 -32.5l164 -112l-100 -100l-298 250q27 4 67 19.5t77.5 39.5t64.5 57t27 74
q0 29 -21 43t-42 14q-30 0 -59.5 -25.5t-61 -63.5t-67 -82.5t-78.5 -82.5t-95 -63.5t-117 -25.5zM1136 809q-104 80 -210 127.5t-209 47.5q-46 0 -93 -14t-85 -42t-62 -70.5t-24 -100.5q0 -38 13 -69.5t34.5 -56.5t49.5 -44.5t57 -32.5q60 45 128 76.5t129 54.5l58 -153
q-52 -15 -105 -35.5t-95.5 -50.5t-69.5 -71t-27 -95q0 -44 14 -72.5t34 -45t42 -23t38 -6.5q32 0 62.5 15.5t60 40t59.5 55t61.5 60t66 55.5t73.5 41v409zM1596 -406l-119 -131l-339 315l102 101z" />
    <glyph glyph-name="ori_wa.virama" horiz-adv-x="1270" 
d="M419 995q-49 -42 -81.5 -90t-52 -100t-28 -105t-8.5 -105q0 -87 28 -170.5t84.5 -148t140.5 -104t196 -39.5q49 0 98 11.5t88.5 36t64 63t24.5 92.5q0 36 -14.5 62.5t-39.5 44t-58 26t-69 8.5h-190v144h134q43 0 78 17t60 45t39 62.5t14 70.5q0 43 -14.5 75t-38.5 52.5
t-54 30.5t-61 10q-22 0 -45.5 -6t-42.5 -19.5t-31 -34t-12 -49.5t13 -47.5t21 -29.5l-114 -107q-17 14 -33 35t-29.5 46t-21.5 53.5t-8 57.5q0 67 27 115t70 79t97.5 46t108.5 15q90 0 156 -26.5t109.5 -69.5t64.5 -98t21 -112q0 -34 -9 -70.5t-28 -71t-48.5 -65
t-69.5 -52.5q104 -32 158 -90t54 -156q0 -69 -28.5 -126.5t-76.5 -102.5v-592h-179v154q-29 -30 -60 -50t-62 -32t-61 -16.5t-55 -4.5q-48 0 -104.5 14t-105 47.5t-81.5 91t-33 144.5q0 61 18 114t41 94q-75 44 -131 105.5t-92.5 132t-55 146t-18.5 149.5q0 75 13 148
t41.5 141.5t74 132t111.5 121.5zM485 -146q0 -50 17.5 -83.5t44 -53.5t57.5 -29t57 -9q39 0 78.5 17t71.5 45t52 64t20 75v120q-40 -11 -81.5 -17.5t-85.5 -6.5q-55 0 -105 7t-95 20q-13 -31 -22 -68.5t-9 -80.5zM1546 -481l-119 -131l-339 315l102 101z" />
    <glyph glyph-name="ori_ka.ssa.virama" horiz-adv-x="1465" 
d="M460 281q0 20 2.5 39.5t7.5 37.5q-33 -14 -63 -30t-55 -32.5t-44.5 -34t-29.5 -35.5q47 -16 70 -44.5t23 -60.5q0 -26 -11.5 -48t-31 -38t-45.5 -25.5t-56 -9.5q-29 0 -55.5 12.5t-46 33t-31 47t-11.5 55.5q0 40 17.5 77.5t47.5 71.5t68.5 64t81 55.5t85 47t80.5 38.5
q-40 22 -73.5 51t-57.5 64.5t-37.5 77.5t-13.5 89q0 84 31 150t89 111t142 69t189 24q65 0 125.5 -15t114.5 -38t99.5 -50t81.5 -51v133h208v-1117h-208v133q-32 -33 -70.5 -61t-81 -48.5t-89.5 -32.5t-96 -12q-75 0 -140 20t-113 58t-75.5 94.5t-27.5 129.5zM643 288
q0 -47 18 -77t44.5 -47.5t57.5 -24t57 -6.5q49 0 94 15.5t84.5 39.5t71.5 53.5t55 58.5l-191 230q-51 -15 -103 -34t-94 -47.5t-68 -67.5t-26 -93zM1153 809q-103 80 -209 127.5t-210 47.5h-7l426 -511v336zM471 757q0 -38 13 -69.5t34.5 -56.5t49.5 -44.5t57 -32.5
q46 34 97.5 60.5t102.5 47.5l-236 286q-51 -27 -84.5 -74t-33.5 -117zM1608 -309l-119 -131l-339 315l102 101z" />
    <glyph glyph-name="ori_ja.nya.virama" horiz-adv-x="1435" 
d="M262 905q0 -68 34 -119.5t94 -86.5t142.5 -53t179.5 -18q87 0 166 11.5t139 38.5t95.5 71t35.5 108q0 22 -8.5 44.5t-24.5 41t-39.5 30t-53.5 11.5q-17 0 -34.5 -5.5t-32.5 -16.5t-24.5 -28.5t-9.5 -41.5v-126h-184v141q0 34 -23.5 55.5t-56.5 21.5q-16 0 -30.5 -6.5
t-25.5 -17t-17.5 -24.5t-6.5 -29q0 -20 5.5 -35.5t13 -27.5t16 -20.5t14.5 -15.5l-117 -92q-20 15 -40.5 35t-37 46t-27 57t-10.5 67q0 45 19.5 85t55 69t84.5 46t109 17q53 0 101 -19.5t77 -52.5q20 17 40.5 30.5t43.5 22.5t50.5 14t62.5 5q75 0 130.5 -24t91.5 -63
t54 -87.5t18 -97.5q0 -85 -38.5 -151t-104.5 -115q32 -15 58.5 -38.5t45 -54t29 -66t10.5 -74.5v-409h-184v399q0 51 -21.5 82.5t-54.5 31.5q-30 0 -54.5 -27t-24.5 -89v-397h-184v172q-9 -9 -23 -16t-29 -12t-29.5 -7.5t-25.5 -2.5q-60 0 -105.5 22t-77.5 58
q-37 -43 -85 -61.5t-91 -18.5q-62 0 -110 24t-81 62.5t-50.5 86.5t-17.5 97q0 39 11 75t31.5 67t49 55.5t63.5 40.5q-73 54 -114 129.5t-41 175.5q0 152 125 273l123 -112q-8 -8 -19.5 -22t-22.5 -34t-19 -46.5t-8 -58.5zM632 342q0 -58 26 -93.5t63 -35.5q38 0 62.5 35
t24.5 94v4q0 25 -6.5 47.5t-18 39.5t-27.5 27.5t-35 10.5q-38 0 -63.5 -33t-25.5 -96zM266 342q0 -58 26 -93.5t63 -35.5q38 0 62.5 35t24.5 94v4q0 25 -6.5 47.5t-18 39.5t-27.5 27.5t-35 10.5q-38 0 -63.5 -33t-25.5 -96zM1588 -369l-119 -131l-339 315l102 101z" />
    <glyph glyph-name="ori_ka.nukta" horiz-adv-x="1597" 
d="M1244 440q35 39 55 90t20 112q0 70 -39 132.5t-108.5 109t-166.5 73.5t-213 27q-114 0 -210.5 -24.5t-166 -68t-109 -104t-39.5 -131.5q0 -49 9.5 -85t39.5 -60q32 68 95.5 111.5t148.5 43.5q47 0 94 -21.5t84 -71.5q18 22 41.5 39.5t49.5 29.5t53 18t51 6q54 0 104 -20
t87.5 -55t60 -81.5t22.5 -100.5v-409h-208v407q0 52 -21.5 79t-52.5 27q-14 0 -27.5 -5t-24.5 -17.5t-18 -33.5t-7 -52v-405h-196v172q-9 -9 -23 -16t-29 -12.5t-29.5 -8t-25.5 -2.5q-52 0 -94 17t-72.5 46t-50.5 66.5t-29 78.5q-46 22 -85.5 56t-68.5 75t-45.5 88.5
t-16.5 97.5q0 103 49.5 190.5t141.5 152t222 101t291 36.5q165 0 295.5 -39t222 -106t140 -157t48.5 -193q0 -72 -34 -154.5t-96 -168.5zM476 384q0 -58 26 -93.5t62 -35.5q38 0 63 35t25 94v4q0 24 -6.5 47t-18.5 40t-28 27.5t-35 10.5q-38 0 -63 -33t-25 -96zM749 -368
q0 24 9 44.5t24.5 36t36 24.5t44.5 9t44.5 -9t36.5 -24.5t25 -36t9 -44.5t-9 -44.5t-25 -36.5t-36.5 -25t-44.5 -9t-44.5 9t-36 25t-24.5 36.5t-9 44.5z" />
    <glyph glyph-name="ori_kha.nukta" horiz-adv-x="1479" 
d="M288 281q-46 33 -84 74t-65 87.5t-41.5 98.5t-14.5 109q0 100 36 189t110.5 155.5t189 105t272.5 38.5q21 0 50.5 -2t61 -6t62 -9.5t53.5 -12.5q-23 -31 -43 -70t-20 -93q0 -70 35.5 -107.5t89.5 -37.5q52 0 85.5 27t53.5 71t30.5 101.5t17.5 117.5h208v-1117h-208v728
q-24 -27 -53 -43t-58.5 -25t-55.5 -12t-44 -3q-56 0 -105.5 18t-87 48t-59 70t-21.5 84q0 23 5 55t22 63q-117 -4 -200.5 -30.5t-137.5 -73t-79 -111t-25 -142.5q0 -51 14.5 -99.5t52.5 -91.5q45 67 121.5 107.5t171.5 40.5q71 0 133 -23.5t108.5 -64.5t73 -96t26.5 -118
t-26.5 -118t-73 -96t-108.5 -64.5t-133 -23.5t-132.5 23.5t-108 64.5t-73 96t-26.5 118zM472 281q0 -31 12.5 -58t33.5 -47t49.5 -31.5t60.5 -11.5q33 0 61.5 11.5t50 31.5t33.5 47t12 58t-12 58t-33.5 47t-50 32t-61.5 12q-32 0 -60.5 -12t-49.5 -32t-33.5 -47t-12.5 -58z
M917 -368q0 24 9 44.5t24.5 36t36 24.5t44.5 9t44.5 -9t36.5 -24.5t25 -36t9 -44.5t-9 -44.5t-25 -36.5t-36.5 -25t-44.5 -9t-44.5 9t-36 25t-24.5 36.5t-9 44.5z" />
    <glyph glyph-name="ori_ga.nukta" horiz-adv-x="1479" 
d="M288 281v4q-100 67 -152.5 162t-52.5 210q0 103 46 191t130 152.5t201.5 101t260.5 36.5q131 0 245 -38t201 -105v122h208v-1117h-208v728q-20 55 -61 102t-98.5 81.5t-129.5 53.5t-153 19q-99 0 -183 -23t-145 -67t-95.5 -107.5t-34.5 -143.5q0 -63 19 -112.5t55 -87.5
q45 63 121 101.5t166 38.5q71 0 133 -23.5t108.5 -64.5t73 -96t26.5 -118t-26.5 -118t-73 -96t-108.5 -64.5t-133 -23.5t-132.5 23.5t-108 64.5t-73 96t-26.5 118zM472 281q0 -31 12.5 -58t33.5 -47t49.5 -31.5t60.5 -11.5q33 0 61.5 11.5t50 31.5t33.5 47t12 58t-12 58
t-33.5 47t-50 32t-61.5 12q-32 0 -60.5 -12t-49.5 -32t-33.5 -47t-12.5 -58zM917 -368q0 24 9 44.5t24.5 36t36 24.5t44.5 9t44.5 -9t36.5 -24.5t25 -36t9 -44.5t-9 -44.5t-25 -36.5t-36.5 -25t-44.5 -9t-44.5 9t-36 25t-24.5 36.5t-9 44.5z" />
    <glyph glyph-name="ori_gha.nukta" horiz-adv-x="1500" 
d="M1188 1117h208v-1117h-208v85q-49 -49 -107.5 -77.5t-115.5 -28.5q-69 0 -123.5 26.5t-90.5 65.5q-22 -19 -48 -35.5t-54.5 -29t-59 -20t-60.5 -7.5q-58 0 -104.5 22.5t-79.5 59t-50.5 82t-17.5 91.5q0 21 3 44q-98 60 -147.5 154t-49.5 202q0 103 45.5 194.5t129 160.5
t200 109t258.5 40q141 0 261 -39.5t211 -108.5v127zM911 332q-17 -26 -27.5 -51t-10.5 -55q0 -24 9 -41.5t22.5 -29t30 -17t31.5 -5.5q45 0 82.5 27t66 68t47 88.5t26.5 89.5v317q-21 56 -65.5 104t-106 83t-137.5 54.5t-159 19.5q-96 0 -179 -27.5t-144 -76.5t-96 -116.5
t-35 -148.5q0 -48 17 -96t59 -93q36 53 84 95t96 75l85 -101q-74 -66 -110.5 -123t-36.5 -123q0 -58 27.5 -87t60.5 -29q42 0 75 27.5t59 71.5t47.5 99t39.5 110zM938 -368q0 24 9 44.5t24.5 36t36 24.5t44.5 9t44.5 -9t36.5 -24.5t25 -36t9 -44.5t-9 -44.5t-25 -36.5
t-36.5 -25t-44.5 -9t-44.5 9t-36 25t-24.5 36.5t-9 44.5z" />
    <glyph glyph-name="ori_nga.nukta" horiz-adv-x="1686" 
d="M824 318l-141 95l262 367l135 -100l-113 -158q39 -17 69 -42t50.5 -55t31.5 -64t11 -68q0 -70 -29 -128t-81 -99t-124 -64t-159 -23q-81 0 -151.5 21t-125 58.5t-91 89.5t-48.5 114q-54 29 -98 70t-74.5 89t-47.5 100t-17 104q0 111 46.5 205t134.5 162.5t216 107
t291 38.5q106 0 195 -19t162.5 -54t132.5 -85t106 -112q45 0 84 -14t68 -38t46 -57.5t17 -73.5t-17 -74t-46.5 -58.5t-69.5 -38t-85 -13.5t-84.5 13.5t-68.5 38t-46 58.5t-17 74q0 38 15.5 70.5t41.5 56.5q-81 83 -192.5 127.5t-239.5 44.5q-58 0 -118 -10.5t-116.5 -31.5
t-105.5 -51.5t-86 -70.5t-58.5 -89t-21.5 -106q0 -51 18.5 -93t54.5 -79q33 81 107 141t192 80l37 -142q-91 -28 -134 -84.5t-43 -125.5q0 -39 15 -73.5t44 -60t73 -40.5t103 -15q53 0 92.5 16t66 40t39.5 52t13 52q0 37 -18 65.5t-42 46.5zM1310 685q0 -38 17 -60t37 -22
q19 0 37 22t18 60t-16 59.5t-39 21.5t-38.5 -21.5t-15.5 -59.5zM677 -368q0 24 9 44.5t24.5 36t36 24.5t44.5 9t44.5 -9t36.5 -24.5t25 -36t9 -44.5t-9 -44.5t-25 -36.5t-36.5 -25t-44.5 -9t-44.5 9t-36 25t-24.5 36.5t-9 44.5z" />
    <glyph glyph-name="ori_ca.nukta" horiz-adv-x="1526" 
d="M1172 440q35 39 55 89.5t20 101.5q0 75 -41.5 139.5t-110.5 112t-158 74.5t-185 27q-100 0 -188.5 -25.5t-154.5 -72t-104.5 -111.5t-38.5 -145q0 -72 36 -126.5t102 -92.5q21 38 52 70t71 54.5t86.5 35t97.5 12.5q71 0 133.5 -23.5t108.5 -64.5t72.5 -96t26.5 -118
t-26.5 -118t-72.5 -96t-108.5 -64.5t-133.5 -23.5q-66 0 -124 20.5t-103.5 56.5t-74.5 84.5t-36 104.5q-147 62 -218.5 159t-71.5 237q0 100 46.5 190t133 158.5t210.5 108.5t279 40q166 0 291.5 -43t209.5 -113.5t126.5 -161t42.5 -186.5q0 -86 -35 -165t-95 -149zM555 281
q0 -31 12.5 -58t33.5 -47t49.5 -31.5t60.5 -11.5q33 0 61.5 11.5t49.5 31.5t33.5 47t12.5 58t-12.5 58t-33.5 47t-49.5 32t-61.5 12q-32 0 -60.5 -12t-49.5 -32t-33.5 -47t-12.5 -58zM593 -368q0 24 9 44.5t24.5 36t36 24.5t44.5 9t44.5 -9t36.5 -24.5t25 -36t9 -44.5
t-9 -44.5t-25 -36.5t-36.5 -25t-44.5 -9t-44.5 9t-36 25t-24.5 36.5t-9 44.5z" />
    <glyph glyph-name="ori_cha.nukta" horiz-adv-x="1440" 
d="M992 -24q-51 0 -91 11.5t-73 31t-60.5 44t-51.5 51.5q-25 -27 -52.5 -51.5t-60.5 -44t-73 -31t-91 -11.5q-53 0 -94 16t-69.5 45.5t-43.5 70t-15 89.5q0 45 19 86t56 72q-11 7 -22.5 13t-33 11.5t-57.5 10t-96 9.5l35 105q99 -8 183.5 -27.5t155.5 -45.5q-1 6 -2 11.5
t-1 11.5q-119 47 -172 120.5t-53 176.5q0 81 38.5 152t110.5 123t174 82t230 30q123 0 224.5 -30t175 -82t114 -123t40.5 -152q0 -72 -31.5 -135t-88.5 -129l-124 111q32 38 46 73.5t14 73.5q0 49 -29 92.5t-79 76t-117.5 51.5t-144.5 19q-81 0 -149 -18t-117 -49.5t-76 -74
t-27 -92.5q0 -55 24.5 -92.5t59.5 -59.5q35 51 92 83t129 32q57 0 105 -21t83.5 -56t55.5 -80t20 -92q0 -28 -6 -52q56 -1 100 -19t75 -48t47 -68.5t16 -79.5q0 -49 -15 -89.5t-43.5 -70t-69.5 -45.5t-94 -16zM618 436q0 -29 6 -55t18.5 -45.5t31.5 -31.5t44 -12
q24 0 42.5 13t31 34t19.5 47t7 52q0 28 -7.5 54.5t-21 46.5t-32 32t-39.5 12t-39.5 -10.5t-32 -30t-21 -46.5t-7.5 -60zM548 268q-23 11 -48.5 17.5t-56.5 6.5q-16 0 -33 -4.5t-30.5 -14t-22 -25.5t-8.5 -38q0 -15 4.5 -29t15.5 -24.5t29.5 -17t46.5 -6.5q48 0 94.5 20.5
t91.5 52.5l-28 26q-15 7 -28.5 16t-26.5 20zM822 227q-7 -5 -12.5 -10.5l-10.5 -10.5q46 -32 92.5 -52.5t94.5 -20.5q28 0 46.5 6.5t29.5 17t15.5 24.5t4.5 29q0 22 -8.5 38t-22 25.5t-30.5 14t-33 4.5q-54 0 -97 -20q-16 -14 -32.5 -25.5t-36.5 -19.5zM639 -368
q0 24 9 44.5t24.5 36t36 24.5t44.5 9t44.5 -9t36.5 -24.5t25 -36t9 -44.5t-9 -44.5t-25 -36.5t-36.5 -25t-44.5 -9t-44.5 9t-36 25t-24.5 36.5t-9 44.5z" />
    <glyph glyph-name="ori_ja.nukta" horiz-adv-x="1660" 
d="M1235 0h-208v499l-164 -73q36 -32 52 -80t16 -98q0 -43 -19.5 -90.5t-61 -87t-105.5 -65.5t-154 -26t-155 30.5t-106 77.5t-60.5 105t-19.5 113q-75 51 -121 133t-46 194q0 110 56 203t154.5 160.5t233 105t291.5 37.5q105 0 200.5 -17.5t177.5 -50t148.5 -77.5
t113.5 -100t72.5 -118t25.5 -132q0 -72 -34.5 -154.5t-95.5 -168.5l-120 120q35 39 55 90t20 112q0 47 -21.5 90.5t-60 81.5t-91 69.5t-114.5 53.5t-130.5 34.5t-139.5 12.5q-119 0 -221 -29t-177 -78t-117.5 -113.5t-42.5 -134.5q0 -41 8 -72t32 -66q42 60 110 103.5
t153 72.5l49 -148q-40 -14 -73.5 -33.5t-58 -45.5t-38.5 -58.5t-14 -72.5q0 -37 11 -69t31.5 -56t50 -37.5t66.5 -13.5q31 0 59 11t49 30.5t33.5 46t12.5 56.5q0 57 -29 99t-78 63l595 282v-721zM777 -368q0 24 9 44.5t24.5 36t36 24.5t44.5 9t44.5 -9t36.5 -24.5t25 -36
t9 -44.5t-9 -44.5t-25 -36.5t-36.5 -25t-44.5 -9t-44.5 9t-36 25t-24.5 36.5t-9 44.5z" />
    <glyph glyph-name="ori_jha.nukta" horiz-adv-x="1418" 
d="M1244 7l-90 -158l-266 179q-41 -23 -88 -36t-99 -13q-66 0 -123.5 20.5t-102.5 55.5t-74.5 83t-37.5 104q-70 33 -122.5 78t-87.5 99t-52.5 114.5t-17.5 123.5q0 100 41 181t113.5 138t172 88t216.5 31q37 0 80 -5t86 -15t85 -24t78 -32q-18 -16 -35.5 -43.5t-17.5 -67.5
q0 -23 7 -44t21.5 -37t37 -26t53.5 -10q24 0 44.5 8t36 22t24.5 34t9 43q0 43 -20.5 65.5t-57.5 43.5l93 133q83 -58 123.5 -120t40.5 -140q0 -33 -14.5 -75.5t-48 -80t-88.5 -63.5t-137 -26q-57 0 -109 13.5t-92 39.5t-64 63.5t-24 84.5q0 25 7 50.5t18 41.5q-7 3 -26 5.5
t-40.5 4.5t-41 3t-28.5 1q-70 0 -135 -18.5t-115 -54.5t-80 -89t-30 -123q0 -77 31 -137t96 -109q21 38 52.5 70t71 54.5t86.5 35t98 12.5q70 0 132.5 -23.5t108.5 -64.5t73 -96t27 -118q0 -42 -12.5 -81t-35.5 -73zM545 281q0 -31 12 -58t33 -47t49.5 -31.5t61.5 -11.5
q32 0 60.5 11.5t50 31.5t34 47t12.5 58t-12.5 58t-34 47t-50 32t-60.5 12q-33 0 -61.5 -12t-49.5 -32t-33 -47t-12 -58zM533 -368q0 24 9 44.5t24.5 36t36 24.5t44.5 9t44.5 -9t36.5 -24.5t25 -36t9 -44.5t-9 -44.5t-25 -36.5t-36.5 -25t-44.5 -9t-44.5 9t-36 25t-24.5 36.5
t-9 44.5z" />
    <glyph glyph-name="ori_nya.nukta" horiz-adv-x="1435" 
d="M262 905q0 -68 34 -119.5t94 -86.5t142.5 -53t179.5 -18q87 0 166 11.5t139 38.5t95.5 71t35.5 108q0 22 -8.5 44.5t-24.5 41t-39.5 30t-53.5 11.5q-17 0 -34.5 -5.5t-32.5 -16.5t-24.5 -28.5t-9.5 -41.5v-126h-184v141q0 34 -23.5 55.5t-56.5 21.5q-16 0 -30.5 -6.5
t-25.5 -17t-17.5 -24.5t-6.5 -29q0 -20 5.5 -35.5t13 -27.5t16 -20.5t14.5 -15.5l-117 -92q-20 15 -40.5 35t-37 46t-27 57t-10.5 67q0 45 19.5 85t55 69t84.5 46t109 17q53 0 101 -19.5t77 -52.5q20 17 40.5 30.5t43.5 22.5t50.5 14t62.5 5q75 0 130.5 -24t91.5 -63
t54 -87.5t18 -97.5q0 -83 -36.5 -147.5t-100.5 -113.5q69 -38 103 -102t34 -132q0 -97 -50.5 -170.5t-135.5 -122.5t-197 -74t-235 -25q-131 0 -245.5 26.5t-200 80t-135 134.5t-49.5 190q0 135 96 243q-46 50 -71 112t-25 140q0 152 125 273l123 -112q-8 -8 -19.5 -22
t-22.5 -34t-19 -46.5t-8 -58.5zM262 410q0 -68 34 -119.5t94 -86.5t142.5 -53t179.5 -18q87 0 166 11.5t139 38.5t95.5 71t35.5 108q0 22 -8.5 44.5t-24.5 41t-39.5 30t-53.5 11.5q-17 0 -34.5 -5.5t-32.5 -16.5t-24.5 -28.5t-9.5 -41.5v-126h-184v141q0 25 -14 41t-37 21
l-48 2q-26 -5 -43.5 -21.5t-17.5 -42.5q0 -20 5.5 -35.5t13 -27.5t16 -20.5t14.5 -15.5l-117 -93q-20 15 -40.5 35.5t-37 46.5t-27 57t-10.5 67q0 52 23 88q-27 8 -53 18.5t-49 21.5q-17 -21 -35 -57t-18 -87zM567 -368q0 24 9 44.5t24.5 36t36 24.5t44.5 9t44.5 -9
t36.5 -24.5t25 -36t9 -44.5t-9 -44.5t-25 -36.5t-36.5 -25t-44.5 -9t-44.5 9t-36 25t-24.5 36.5t-9 44.5z" />
    <glyph glyph-name="ori_tta.nukta" horiz-adv-x="1502" 
d="M1190 1117h208v-487h-208v93q-20 56 -61.5 104t-101 83t-133.5 54.5t-158 19.5q-97 0 -182.5 -25.5t-149 -72t-100 -111.5t-36.5 -143t29.5 -132t77.5 -84q21 37 52.5 68t71 53t85.5 34t96 12q71 0 133 -23.5t108.5 -64.5t73 -96t26.5 -118t-26.5 -118t-73 -96
t-108.5 -64.5t-133 -23.5q-66 0 -123.5 20t-102.5 55.5t-74 83t-37 103.5q-65 28 -113.5 71t-81 95.5t-49 112.5t-16.5 123q0 107 49 197.5t135.5 156.5t205 103.5t258.5 37.5q137 0 254 -38.5t205 -106.5v124zM524 281q0 -31 12.5 -58t33.5 -47t49.5 -31.5t60.5 -11.5
q33 0 61.5 11.5t50 31.5t33.5 47t12 58t-12 58t-33.5 47t-50 32t-61.5 12q-32 0 -60.5 -12t-49.5 -32t-33.5 -47t-12.5 -58zM559 -368q0 24 9 44.5t24.5 36t36 24.5t44.5 9t44.5 -9t36.5 -24.5t25 -36t9 -44.5t-9 -44.5t-25 -36.5t-36.5 -25t-44.5 -9t-44.5 9t-36 25
t-24.5 36.5t-9 44.5z" />
    <glyph glyph-name="ori_ttha.nukta" horiz-adv-x="1408" 
d="M83 558q0 120 49 225.5t132.5 184.5t194.5 124.5t235 45.5t234.5 -46t194 -125.5t132.5 -185t49 -225.5q0 -80 -22.5 -153.5t-62.5 -137.5t-96 -117t-124 -90.5t-145.5 -58t-159.5 -20.5q-124 0 -235 45.5t-194.5 124.5t-132.5 184t-49 225zM267 558q0 -88 33.5 -165.5
t91.5 -135t136 -91t166 -33.5t166 33.5t136 91t91.5 135t33.5 165.5t-33.5 166t-91.5 135.5t-136 91t-166 33.5t-166 -33.5t-136 -91t-91.5 -135.5t-33.5 -166zM856 -368q0 24 9 44.5t24.5 36t36 24.5t44.5 9t44.5 -9t36.5 -24.5t25 -36t9 -44.5t-9 -44.5t-25 -36.5
t-36.5 -25t-44.5 -9t-44.5 9t-36 25t-24.5 36.5t-9 44.5z" />
    <glyph glyph-name="ori_nna.nukta" horiz-adv-x="1407" 
d="M852 699l-94 -132q-48 36 -106.5 63t-135.5 27q-50 0 -95 -17.5t-79.5 -50t-55 -79.5t-20.5 -106q0 -31 7.5 -58.5t19.5 -52.5q29 49 69 85t86.5 60t95.5 35.5t96 11.5q65 0 125 -17.5t105.5 -49t72.5 -74t27 -92.5q0 -53 -19.5 -94t-52 -71t-74 -51t-86 -33.5t-87.5 -18
t-78 -5.5q-102 0 -191 30t-155.5 85t-105 133.5t-38.5 176.5q0 67 22.5 127.5t63 111t96.5 87t123 55.5q-19 29 -30 58.5t-11 61.5q0 51 22.5 94t63 74t97.5 48t127 17q66 0 122 -12.5t107.5 -36.5t102.5 -60t106 -84v172h208v-1117h-208v682q-29 58 -72 112.5t-95.5 96.5
t-112.5 67.5t-123 25.5q-35 0 -64.5 -7t-51 -19.5t-33.5 -31t-12 -42.5q0 -23 9.5 -44t24.5 -40q49 -5 95.5 -18.5t84.5 -29t66 -30t41 -23.5zM640 332q-76 0 -131 -42.5t-84 -114.5q29 -17 76 -29.5t99 -12.5q29 0 62 7.5t60.5 21.5t45.5 33.5t18 44.5q0 23 -13 40
t-33.5 28.5t-46.5 17.5t-53 6zM845 -368q0 24 9 44.5t24.5 36t36 24.5t44.5 9t44.5 -9t36.5 -24.5t25 -36t9 -44.5t-9 -44.5t-25 -36.5t-36.5 -25t-44.5 -9t-44.5 9t-36 25t-24.5 36.5t-9 44.5z" />
    <glyph glyph-name="ori_ta.nukta" horiz-adv-x="1525" 
d="M1171 440q36 39 55.5 90t19.5 112q0 70 -38 132.5t-104.5 109t-157 73.5t-195.5 27q-107 0 -196 -27t-153 -73.5t-99.5 -109t-35.5 -132.5q0 -64 22 -113t64 -84q30 62 86.5 116.5t131.5 96.5l74 -126q-30 -12 -55.5 -33t-43.5 -48t-28 -59.5t-10 -68.5q0 -44 17 -79.5
t45.5 -60t66 -37.5t79.5 -13q36 0 71 10.5t62.5 31.5t44.5 53t17 75q0 18 -3.5 30.5t-6.5 18.5q-14 -36 -41.5 -52.5t-59.5 -16.5q-21 0 -40 7.5t-33.5 21t-23.5 32.5t-9 41q0 30 12 52.5t33 37.5t48.5 22.5t59.5 7.5q57 0 103 -20.5t78.5 -54t49.5 -75.5t17 -84
q0 -65 -29.5 -119t-81 -92.5t-120.5 -59.5t-148 -21t-145.5 22.5t-117 61.5t-83 92t-42.5 115q-126 72 -185.5 168.5t-59.5 204.5q0 103 49.5 193t138 157t211 106t269.5 39q94 0 180.5 -17.5t161 -50t135 -77.5t103.5 -100t66.5 -118t23.5 -132q0 -72 -34 -154.5
t-96 -168.5zM657 -368q0 24 9 44.5t24.5 36t36 24.5t44.5 9t44.5 -9t36.5 -24.5t25 -36t9 -44.5t-9 -44.5t-25 -36.5t-36.5 -25t-44.5 -9t-44.5 9t-36 25t-24.5 36.5t-9 44.5z" />
    <glyph glyph-name="ori_tha.nukta" horiz-adv-x="1376" 
d="M554 1138q108 0 182 -31t119.5 -77t65 -98t19.5 -94q0 -82 -29 -137.5t-76 -93t-107.5 -61t-124 -41t-124 -33.5t-107.5 -38t-76 -54.5t-29 -84.5q0 -39 20 -69t52 -51t71.5 -31.5t79.5 -10.5q67 0 131.5 22.5t124 58.5t111.5 82t93.5 93t71 90.5t42.5 74.5v563h208
v-1117h-208v274q-45 -58 -106 -111t-134.5 -94t-158 -65.5t-175.5 -24.5q-74 0 -147 19.5t-130.5 59t-93.5 99t-36 139.5q0 72 29 120t76.5 80.5t108 53t123.5 38t123.5 35t108 43t76.5 63.5t29 96q0 39 -17.5 68.5t-45.5 50t-62 30.5t-67 10q-32 0 -68 -7.5t-66 -23.5
t-49.5 -40t-19.5 -57q0 -20 5.5 -36t13.5 -28.5t16.5 -21t14.5 -13.5l-133 -100q-14 12 -31.5 30.5t-32.5 43.5t-25.5 57t-10.5 72q0 49 22.5 99t69 89.5t117 64.5t166.5 25zM814 -368q0 24 9 44.5t24.5 36t36 24.5t44.5 9t44.5 -9t36.5 -24.5t25 -36t9 -44.5t-9 -44.5
t-25 -36.5t-36.5 -25t-44.5 -9t-44.5 9t-36 25t-24.5 36.5t-9 44.5z" />
    <glyph glyph-name="ori_da.nukta" horiz-adv-x="1442" 
d="M1089 440q35 39 55 96t20 118q0 70 -32 130.5t-90 105t-139.5 69.5t-180.5 25q-92 0 -174.5 -25t-145 -69t-99.5 -104t-37 -131q0 -61 23.5 -105t69.5 -66q40 60 113 105.5t169 77.5l49 -153q-40 -9 -74 -23t-59 -33.5t-39 -44.5t-14 -56q0 -38 15 -63.5t37 -40.5
t47 -21.5t46 -6.5q36 0 67 17t53.5 46t35.5 68.5t13 84.5l208 77v-518h-208v133q-32 -24 -77.5 -39t-95.5 -15q-61 0 -116 19t-98.5 52.5t-72.5 78.5t-36 97q-56 21 -100.5 56t-75.5 79t-47 96.5t-16 108.5q0 98 49 184t134.5 150t202.5 101t253 37q133 0 246 -37
t195.5 -101.5t128.5 -153t46 -191.5q0 -72 -34 -160.5t-96 -174.5zM568 -368q0 24 9 44.5t24.5 36t36 24.5t44.5 9t44.5 -9t36.5 -24.5t25 -36t9 -44.5t-9 -44.5t-25 -36.5t-36.5 -25t-44.5 -9t-44.5 9t-36 25t-24.5 36.5t-9 44.5z" />
    <glyph glyph-name="ori_dha.nukta" horiz-adv-x="1267" 
d="M771 569l-123 -100l-97 96q-27 8 -46 9t-33 1q-24 0 -59 -10.5t-68 -34t-56 -61.5t-23 -93q0 -59 22.5 -104.5t60 -76.5t85 -46.5t98.5 -15.5q54 0 107.5 14t106 38.5t105 58.5t104.5 74v799h208v-1117h-208v144q-36 -24 -83 -53t-102.5 -54t-118 -41.5t-129.5 -16.5
q-93 0 -173 29t-139 81.5t-93 126.5t-34 164q0 70 26 129t69 104t98.5 73.5t113.5 37.5l-302 298l125 116zM705 -368q0 24 9 44.5t24.5 36t36 24.5t44.5 9t44.5 -9t36.5 -24.5t25 -36t9 -44.5t-9 -44.5t-25 -36.5t-36.5 -25t-44.5 -9t-44.5 9t-36 25t-24.5 36.5t-9 44.5z
" />
    <glyph glyph-name="ori_na.nukta" horiz-adv-x="1422" 
d="M985 666v-666h-208v510q-66 -7 -119.5 -30.5t-92 -62t-59.5 -91t-21 -118.5q0 -36 4.5 -75t10.5 -73l-198 -92v100q0 63 7.5 121t23.5 109q-60 24 -106.5 60.5t-78.5 81.5t-48.5 97t-16.5 106q0 103 45 193t127 157t195 106t250 39q139 0 253 -39t195 -106t125.5 -157
t44.5 -193q0 -72 -34.5 -154.5t-95.5 -168.5l-120 120q35 39 55 90t20 112q0 70 -32 132.5t-90.5 109t-140.5 73.5t-183 27q-95 0 -174.5 -27t-136.5 -73.5t-88.5 -109t-31.5 -132.5q0 -36 10.5 -66t29 -54.5t43 -43.5t52.5 -31q70 106 183.5 162.5t268.5 56.5h132z
M527 -368q0 24 9 44.5t24.5 36t36 24.5t44.5 9t44.5 -9t36.5 -24.5t25 -36t9 -44.5t-9 -44.5t-25 -36.5t-36.5 -25t-44.5 -9t-44.5 9t-36 25t-24.5 36.5t-9 44.5z" />
    <glyph glyph-name="ori_pa.nukta" horiz-adv-x="1268" 
d="M274 757q0 -38 13 -69.5t34.5 -56.5t49 -44.5t56.5 -32.5q60 45 128 76.5t129 54.5l59 -153q-53 -15 -106 -34t-95.5 -47.5t-69.5 -68t-27 -94.5q0 -47 18 -77t44.5 -47.5t57.5 -24t57 -6.5q57 0 109.5 21t96 51.5t76.5 66.5t52 66v471q-104 80 -210 127.5t-209 47.5
q-46 0 -93 -14t-84.5 -42t-61.5 -70.5t-24 -100.5zM262 281q0 57 19.5 104t54.5 87q-54 18 -100 48t-80 69.5t-53.5 88.5t-19.5 106q0 84 31 150t89.5 111t142.5 69t189 24q65 0 125.5 -15t114 -38t99.5 -50t82 -51v133h208v-1117h-208v133q-33 -33 -71 -61t-81 -48.5
t-89.5 -32.5t-95.5 -12q-76 0 -141 20t-113 58t-75.5 94.5t-27.5 129.5zM706 -368q0 24 9 44.5t24.5 36t36 24.5t44.5 9t44.5 -9t36.5 -24.5t25 -36t9 -44.5t-9 -44.5t-25 -36.5t-36.5 -25t-44.5 -9t-44.5 9t-36 25t-24.5 36.5t-9 44.5z" />
    <glyph glyph-name="ori_pha.nukta" horiz-adv-x="1597" 
d="M262 281q0 57 19.5 104t54.5 87q-54 18 -100 48t-80 69.5t-53.5 88.5t-19.5 106q0 84 31 150t89.5 111t142.5 69t189 24q65 0 125.5 -15t114 -38t99.5 -50t82 -51v133h208v-124q20 5 40.5 8.5t42.5 3.5q51 0 96 -15.5t78 -42.5t52.5 -63.5t19.5 -78.5t-19.5 -78.5
t-52.5 -63.5t-78 -43t-96 -16q-44 0 -83 12v-616h-208v133q-33 -33 -71 -61t-81 -48.5t-89.5 -32.5t-95.5 -12q-76 0 -141 20t-113 58t-75.5 94.5t-27.5 129.5zM274 757q0 -38 13 -69.5t34.5 -56.5t49 -44.5t56.5 -32.5q60 45 128 76.5t129 54.5l59 -153q-53 -15 -106 -34
t-95.5 -47.5t-69.5 -68t-27 -94.5q0 -47 18 -77t44.5 -47.5t57.5 -24t57 -6.5q57 0 109.5 21t96 51.5t76.5 66.5t52 66v471q-104 80 -210 127.5t-209 47.5q-46 0 -93 -14t-84.5 -42t-61.5 -70.5t-24 -100.5zM1164 805q0 -20 7 -38t19 -31.5t27 -21.5t31 -8t31 8t26 21.5
t18 31.5t7 38t-6.5 38t-18 31.5t-26.5 21t-31 7.5q-35 0 -59.5 -28.5t-24.5 -69.5zM706 -368q0 24 9 44.5t24.5 36t36 24.5t44.5 9t44.5 -9t36.5 -24.5t25 -36t9 -44.5t-9 -44.5t-25 -36.5t-36.5 -25t-44.5 -9t-44.5 9t-36 25t-24.5 36.5t-9 44.5z" />
    <glyph glyph-name="ori_ba.nukta" horiz-adv-x="1484" 
d="M1064 414v-414h-208v167q-26 -19 -72 -37t-108 -18q-48 0 -94.5 14.5t-86.5 40t-71.5 61t-50.5 78.5q-59 25 -112 60.5t-92.5 82t-62.5 103.5t-23 124q0 105 50 190.5t137 146t205.5 93t255.5 32.5t255.5 -39t206 -106t137.5 -157t50 -193q0 -72 -34 -154.5t-96 -168.5
l-120 120q35 39 55 90t20 112q0 70 -35 132.5t-98 109t-150 73.5t-191 27q-92 0 -176 -21t-148.5 -61t-102.5 -97t-38 -129q0 -65 26 -113.5t68 -78.5q14 50 46 92.5t77 73.5t101 48.5t117 17.5q72 0 137.5 -23.5t115.5 -64.5t80 -96t30 -118zM514 414q0 -31 14.5 -58
t40 -47.5t60 -32t73.5 -11.5t73 11.5t59.5 32t40.5 47.5t15 58t-15 58t-40.5 47t-59.5 32t-73 12t-73.5 -12t-60 -32t-40 -47t-14.5 -58zM606 -368q0 24 9 44.5t24.5 36t36 24.5t44.5 9t44.5 -9t36.5 -24.5t25 -36t9 -44.5t-9 -44.5t-25 -36.5t-36.5 -25t-44.5 -9t-44.5 9
t-36 25t-24.5 36.5t-9 44.5z" />
    <glyph glyph-name="ori_bha.nukta" horiz-adv-x="1720" 
d="M840 984q-129 0 -234.5 -30t-181.5 -82t-117.5 -121t-41.5 -147q0 -126 94 -190q10 50 31.5 92t52 76t69 61.5t82.5 48.5l79 -140q-68 -41 -105 -88.5t-37 -120.5q0 -43 19.5 -81t53.5 -66.5t80 -45.5t98 -17q58 0 102.5 15.5t75.5 44.5q-7 -1 -14 -1h-14
q-56 0 -100 15.5t-75 42t-47.5 61t-16.5 72.5q0 34 7 63t21.5 55t36.5 51t52 51l85 -101q-32 -32 -43.5 -54t-11.5 -51q0 -27 10.5 -44.5t26.5 -28t34.5 -15t33.5 -4.5q23 0 46 18.5t28 56.5q-2 21 -6 38.5t-11.5 34.5t-19 34.5t-27.5 39.5l135 105q33 -54 52 -98t28.5 -81
t12 -66.5t2.5 -53.5q0 -70 -29 -134t-82 -113t-128 -78t-166 -29q-74 0 -140 18.5t-120 51.5t-93.5 79t-58.5 100q-146 57 -215.5 156.5t-69.5 233.5q0 60 21 122t63 120t105 108.5t147 88t189 59.5t232 22q117 0 218 -25.5t184.5 -69t148 -101.5t109 -123.5t67.5 -134.5
t23 -134q0 -62 -10.5 -114t-31.5 -97.5t-51.5 -87t-70.5 -83.5l190 -209l-153 -121l-241 377q49 38 84.5 80t57.5 85t32.5 86t10.5 84q0 49 -19.5 100t-55 99.5t-86.5 91t-114 74.5t-136.5 50.5t-155.5 18.5zM730 -368q0 24 9 44.5t24.5 36t36 24.5t44.5 9t44.5 -9
t36.5 -24.5t25 -36t9 -44.5t-9 -44.5t-25 -36.5t-36.5 -25t-44.5 -9t-44.5 9t-36 25t-24.5 36.5t-9 44.5z" />
    <glyph glyph-name="ori_ma.nukta" horiz-adv-x="1264" 
d="M743 563q-35 -11 -78.5 -30.5t-89 -46.5t-91.5 -58.5t-86.5 -65.5t-73.5 -69t-52 -68q20 0 41.5 -8t39 -22.5t29 -35t11.5 -46.5q0 -23 -10.5 -43.5t-29.5 -36t-46.5 -24.5t-60.5 -9q-30 0 -59 10.5t-52 31t-37.5 50.5t-14.5 70q0 37 22 79.5t59.5 86t86 86.5t101.5 83
q-53 10 -101.5 38.5t-86 69.5t-59.5 91t-22 104q0 83 35 146.5t95.5 106t141.5 64t172 21.5q64 0 125 -12t115.5 -30.5t101.5 -42.5t83 -48v112h208v-1117h-208v830q-57 36 -105.5 65t-97 48.5t-101.5 30t-120 10.5q-38 0 -83 -10t-83.5 -32.5t-64 -57.5t-25.5 -85
q0 -43 17 -76t43 -55.5t57 -34t60 -11.5q33 0 56.5 2t46.5 8q61 35 101 52zM702 -368q0 24 9 44.5t24.5 36t36 24.5t44.5 9t44.5 -9t36.5 -24.5t25 -36t9 -44.5t-9 -44.5t-25 -36.5t-36.5 -25t-44.5 -9t-44.5 9t-36 25t-24.5 36.5t-9 44.5z" />
    <glyph glyph-name="ori_ya.nukta" horiz-adv-x="1448" 
d="M442 281q0 18 1.5 35t6.5 33q-60 -27 -106 -58.5t-66 -64.5q47 -16 70 -44.5t23 -60.5q0 -26 -11.5 -48t-31 -38t-45.5 -25.5t-56 -9.5q-29 0 -55.5 12.5t-46 33t-31 47t-11.5 55.5q0 60 36.5 112t92 96.5t120.5 80t121 61.5q-42 21 -76.5 50.5t-60 65.5t-39.5 79t-14 91
q0 84 31 150t89.5 111t142 69t188.5 24q65 0 125.5 -15t114.5 -38t100 -50t82 -51v133h208v-1117h-208v133q-33 -33 -71 -61t-81 -48.5t-89.5 -32.5t-95.5 -12q-76 0 -141 20t-113 58t-75.5 94.5t-27.5 129.5zM453 757q0 -38 13 -69.5t34.5 -56.5t49.5 -44.5t57 -32.5
q60 45 128 76.5t129 54.5l58 -153q-52 -15 -105 -34t-95.5 -47.5t-69.5 -68t-27 -94.5q0 -47 18 -77t44.5 -47.5t57.5 -24t57 -6.5q57 0 109.5 21t96 51.5t76.5 66.5t52 66v471q-104 80 -210 127.5t-209 47.5q-46 0 -93 -14t-85 -42t-62 -70.5t-24 -100.5zM886 -368
q0 24 9 44.5t24.5 36t36 24.5t44.5 9t44.5 -9t36.5 -24.5t25 -36t9 -44.5t-9 -44.5t-25 -36.5t-36.5 -25t-44.5 -9t-44.5 9t-36 25t-24.5 36.5t-9 44.5z" />
    <glyph glyph-name="ori_ra.nukta" horiz-adv-x="1578" 
d="M746 984q-102 0 -189.5 -29t-151.5 -78.5t-100.5 -114.5t-36.5 -136q0 -57 22.5 -108.5t68.5 -90.5q22 35 54.5 63.5t72 49t85 31.5t94.5 11q72 0 136 -23.5t112 -64.5t76 -95.5t28 -117.5t-28 -118t-76 -96t-112 -64.5t-136 -23.5q-66 0 -125 20t-106 55t-77.5 82.5
t-39.5 103.5q-60 37 -104 82t-73 95t-43 102.5t-14 105.5q0 106 45 199.5t130.5 163.5t208.5 110t279 40q117 0 214.5 -25.5t175.5 -69t136.5 -101.5t97.5 -123.5t58.5 -134.5t19.5 -134q0 -62 -10.5 -114t-31.5 -97.5t-52 -87t-71 -83.5l191 -209l-153 -121l-241 377
q49 38 84.5 80t57.5 85t32.5 86t10.5 84q0 49 -16 100t-46.5 99.5t-75 91t-102 74.5t-127.5 50.5t-152 18.5zM477 281q0 -31 15 -58t40.5 -47.5t60 -32t73.5 -11.5t73 11.5t59.5 32t40.5 47.5t15 58t-15 58t-40.5 47t-59.5 32t-73 12t-73.5 -12t-60 -32t-40.5 -47t-15 -58z
M566 -368q0 24 9 44.5t24.5 36t36 24.5t44.5 9t44.5 -9t36.5 -24.5t25 -36t9 -44.5t-9 -44.5t-25 -36.5t-36.5 -25t-44.5 -9t-44.5 9t-36 25t-24.5 36.5t-9 44.5z" />
    <glyph glyph-name="ori_la.nukta" horiz-adv-x="1720" 
d="M1195 0h-208v401q0 46 -17.5 79t-52.5 33q-26 0 -48 -28t-22 -90v-395h-208v418q0 46 -17.5 70.5t-53.5 24.5q-32 0 -51 -26t-19 -69v-418h-208v234q-54 31 -93 73.5t-64.5 92.5t-37.5 105.5t-12 114.5q0 98 46 191.5t139.5 166t234.5 116.5t332 44q120 0 223 -25.5
t187 -69t148.5 -101.5t108 -123.5t66 -134.5t22.5 -134q0 -62 -10.5 -114t-31.5 -97.5t-51.5 -87t-70.5 -83.5l190 -209l-153 -121l-241 377q49 38 84.5 80t57.5 85t32.5 86t10.5 84q0 49 -18 100t-52 99.5t-83.5 91t-113 74.5t-140.5 50.5t-165 18.5q-144 0 -253 -30
t-181.5 -80t-109 -116t-36.5 -138q0 -48 7.5 -85.5t30.5 -66.5q7 45 32.5 82t61 62.5t78.5 39.5t87 14q48 0 94 -15.5t96 -65.5q40 47 89.5 64t96.5 17q53 0 101.5 -17t85 -47.5t58.5 -74t22 -97.5v-430zM737 -368q0 24 9 44.5t24.5 36t36 24.5t44.5 9t44.5 -9t36.5 -24.5
t25 -36t9 -44.5t-9 -44.5t-25 -36.5t-36.5 -25t-44.5 -9t-44.5 9t-36 25t-24.5 36.5t-9 44.5z" />
    <glyph glyph-name="ori_lla.nukta" horiz-adv-x="1597" 
d="M264 633q0 -48 6 -85t29 -80q7 45 32.5 82t61 62.5t78.5 39.5t87 14q48 0 94 -15.5t96 -65.5q40 47 89.5 64t96.5 17q53 0 101.5 -17t85 -47.5t58.5 -74t22 -97.5v-430h-208v401q0 46 -17.5 79t-52.5 33q-26 0 -48 -28t-22 -90v-395h-208v418q0 46 -17.5 70.5t-53.5 24.5
q-32 0 -51 -26t-19 -69v-418h-208v234q-54 31 -93.5 75.5t-65.5 97t-38.5 110t-12.5 116.5q0 103 49.5 194.5t140.5 160.5t220.5 109.5t290.5 40.5q165 0 296 -39t222 -106t139.5 -157t48.5 -193q0 -72 -34 -154.5t-96 -168.5l-119 120q35 39 55 90t20 112q0 70 -37 132.5
t-105 109t-166 73.5t-219 27q-119 0 -216.5 -28.5t-166.5 -76.5t-107 -112t-38 -134zM743 -368q0 24 9 44.5t24.5 36t36 24.5t44.5 9t44.5 -9t36.5 -24.5t25 -36t9 -44.5t-9 -44.5t-25 -36.5t-36.5 -25t-44.5 -9t-44.5 9t-36 25t-24.5 36.5t-9 44.5z" />
    <glyph glyph-name="ori_va.nukta" horiz-adv-x="1484" 
d="M1066 414v-414h-208v159q-29 -19 -70.5 -33t-86.5 -14q-55 0 -106 14.5t-94 40t-76 61t-52 78.5q-59 25 -112 60.5t-92.5 82t-62.5 103.5t-23 124q0 105 50 190.5t137 146t205.5 93t255.5 32.5t255.5 -39t206 -106t137.5 -157t50 -193q0 -72 -34 -154.5t-96 -168.5
l-120 120q35 39 55 90t20 112q0 70 -35 132.5t-98 109t-150 73.5t-191 27q-92 0 -176 -21t-148.5 -61t-102.5 -97t-38 -129q0 -65 26 -113.5t68 -78.5q14 50 46 92.5t77 73.5t101 48.5t117 17.5q72 0 138 -23.5t116.5 -64.5t80.5 -96t30 -118zM514 414q0 -31 14.5 -58
t40 -47.5t60 -32t73.5 -11.5t73 11.5t59.5 32t40.5 47.5t15 58t-15 58t-40.5 47t-59.5 32t-73 12t-73.5 -12t-60 -32t-40 -47t-14.5 -58zM633 413q0 24 20 41.5t49 17.5t49.5 -17.5t20.5 -41.5t-20.5 -41.5t-49.5 -17.5t-49 17.5t-20 41.5zM608 -368q0 24 9 44.5t24.5 36
t36 24.5t44.5 9t44.5 -9t36.5 -24.5t25 -36t9 -44.5t-9 -44.5t-25 -36.5t-36.5 -25t-44.5 -9t-44.5 9t-36 25t-24.5 36.5t-9 44.5z" />
    <glyph glyph-name="ori_sha.nukta" horiz-adv-x="1476" 
d="M1164 1117h208v-1117h-208v700q-30 67 -79 120t-109.5 89.5t-129 55.5t-137.5 19q-35 0 -66 -6t-54.5 -18.5t-37 -32.5t-13.5 -48v-12q41 -4 78 -12.5t73 -24t72.5 -38t75.5 -53.5l-119 -106q-10 10 -30 28t-50.5 35t-72.5 29.5t-97 12.5q-44 0 -81 -12.5t-64 -35.5
t-42 -55t-15 -71q0 -46 19 -78t48 -54q45 68 122 109.5t173 41.5q71 0 133 -23.5t108.5 -64.5t73 -96t26.5 -118t-26.5 -118t-73 -96t-108.5 -64.5t-133 -23.5q-69 0 -130 22.5t-106.5 61.5t-73 92t-30.5 114q-44 20 -81 49t-65 66t-43.5 81.5t-15.5 95.5q0 57 21.5 106.5
t59.5 88t89.5 65.5t112.5 39q-11 27 -11 57q0 43 18 83t58.5 71t105.5 49t158 18q66 0 130 -13.5t124 -37.5t114 -58t101 -75v163zM472 281q0 -31 12.5 -58t33.5 -47t49.5 -31.5t60.5 -11.5q33 0 61.5 11.5t50 31.5t33.5 47t12 58t-12 58t-33.5 47t-50 32t-61.5 12
q-32 0 -60.5 -12t-49.5 -32t-33.5 -47t-12.5 -58zM914 -368q0 24 9 44.5t24.5 36t36 24.5t44.5 9t44.5 -9t36.5 -24.5t25 -36t9 -44.5t-9 -44.5t-25 -36.5t-36.5 -25t-44.5 -9t-44.5 9t-36 25t-24.5 36.5t-9 44.5z" />
    <glyph glyph-name="ori_ssa.nukta" horiz-adv-x="1268" 
d="M262 281q0 57 19.5 104t54.5 87q-54 18 -100 48t-80 69.5t-53.5 88.5t-19.5 106q0 84 31 150t89.5 111t142.5 69t189 24q65 0 125.5 -15t114 -38t99.5 -50t82 -51v133h208v-1117h-208v133q-33 -33 -71 -61t-81 -48.5t-89.5 -32.5t-95.5 -12q-76 0 -141 20t-113 58
t-75.5 94.5t-27.5 129.5zM445 288q0 -47 18 -77t44.5 -47.5t57.5 -24t57 -6.5q49 0 94 15.5t84.5 39.5t72 53.5t55.5 58.5l-192 230q-51 -15 -103 -34t-94 -47.5t-68 -67.5t-26 -93zM956 809q-104 80 -210 127.5t-209 47.5h-8l427 -511v336zM274 757q0 -38 13 -69.5
t34.5 -56.5t49 -44.5t56.5 -32.5q47 34 98.5 60.5t101.5 47.5l-236 286q-51 -27 -84 -74t-33 -117zM706 -368q0 24 9 44.5t24.5 36t36 24.5t44.5 9t44.5 -9t36.5 -24.5t25 -36t9 -44.5t-9 -44.5t-25 -36.5t-36.5 -25t-44.5 -9t-44.5 9t-36 25t-24.5 36.5t-9 44.5z" />
    <glyph glyph-name="ori_sa.nukta" horiz-adv-x="1268" 
d="M956 0l-868 210l291 243q-62 19 -116 49.5t-94 71.5t-63 91.5t-23 109.5q0 89 35 157t97.5 113.5t147.5 69t184 23.5q64 0 122.5 -15t110 -38t96 -50t80.5 -51v133h208v-1117h-208zM675 701l87 -120l-344 -285l538 -138v651q-52 40 -100.5 72t-97.5 55t-100.5 35.5
t-110.5 12.5q-44 0 -92.5 -13t-89 -40.5t-67 -70.5t-26.5 -104q0 -36 15 -69.5t42.5 -62t66 -50.5t84.5 -36zM706 -368q0 24 9 44.5t24.5 36t36 24.5t44.5 9t44.5 -9t36.5 -24.5t25 -36t9 -44.5t-9 -44.5t-25 -36.5t-36.5 -25t-44.5 -9t-44.5 9t-36 25t-24.5 36.5t-9 44.5z
" />
    <glyph glyph-name="ori_ha.nukta" horiz-adv-x="1442" 
d="M1089 440q35 39 55 96t20 118q0 70 -32 130.5t-90 105t-139.5 69.5t-180.5 25q-92 0 -174.5 -25t-145 -69t-99.5 -104t-37 -131q0 -61 23.5 -105t69.5 -66q40 60 113 105.5t169 77.5l49 -153q-40 -9 -74 -23t-59 -33.5t-39 -44.5t-14 -56q0 -38 15 -63.5t37 -40.5
t47 -21.5t46 -6.5q36 0 69 17t57.5 46t39.5 68.5t15 84.5l184 95v-536h-184v152q-10 -8 -21.5 -15.5t-25.5 -15.5l-260 -197l483 -151l-112 -79l-622 198l265 204q-42 13 -79 35.5t-65 52t-46.5 65.5t-24.5 77q-56 21 -100.5 56t-75.5 79t-47 96.5t-16 108.5q0 98 49 184
t134.5 150t202.5 101t253 37q133 0 246 -37t195.5 -101.5t128.5 -153t46 -191.5q0 -72 -34 -160.5t-96 -174.5zM476 -368q0 24 9 44.5t24.5 36t36 24.5t44.5 9t44.5 -9t36.5 -24.5t25 -36t9 -44.5t-9 -44.5t-25 -36.5t-36.5 -25t-44.5 -9t-44.5 9t-36 25t-24.5 36.5t-9 44.5
z" />
    <glyph glyph-name="ori_ka.ra" horiz-adv-x="1597" 
d="M1244 440q35 39 55 90t20 112q0 70 -39 132.5t-108.5 109t-166.5 73.5t-213 27q-114 0 -210.5 -24.5t-166 -68t-109 -104t-39.5 -131.5q0 -49 9.5 -85t39.5 -60q32 68 95.5 111.5t148.5 43.5q47 0 94 -21.5t84 -71.5q18 22 41.5 39.5t49.5 29.5t53 18t51 6q54 0 104 -20
t87.5 -55t60 -81.5t22.5 -100.5v-409h-208v407q0 52 -21.5 79t-52.5 27q-14 0 -27.5 -5t-24.5 -17.5t-18 -33.5t-7 -52v-405h-196v172q-9 -9 -23 -16t-29 -12.5t-29.5 -8t-25.5 -2.5q-52 0 -94 17t-72.5 46t-50.5 66.5t-29 78.5q-46 22 -85.5 56t-68.5 75t-45.5 88.5
t-16.5 97.5q0 103 49.5 190.5t141.5 152t222 101t291 36.5q165 0 295.5 -39t222 -106t140 -157t48.5 -193q0 -72 -34 -154.5t-96 -168.5zM476 384q0 -58 26 -93.5t62 -35.5q38 0 63 35t25 94v4q0 24 -6.5 47t-18.5 40t-28 27.5t-35 10.5q-38 0 -63 -33t-25 -96zM175 -178
h824v178h208v-334h-1032v156z" />
    <glyph glyph-name="ori_kha.ra" horiz-adv-x="1479" 
d="M288 281q-46 33 -84 74t-65 87.5t-41.5 98.5t-14.5 109q0 100 36 189t110.5 155.5t189 105t272.5 38.5q21 0 50.5 -2t61 -6t62 -9.5t53.5 -12.5q-23 -31 -43 -70t-20 -93q0 -70 35.5 -107.5t89.5 -37.5q52 0 85.5 27t53.5 71t30.5 101.5t17.5 117.5h208v-1117h-208v728
q-24 -27 -53 -43t-58.5 -25t-55.5 -12t-44 -3q-56 0 -105.5 18t-87 48t-59 70t-21.5 84q0 23 5 55t22 63q-117 -4 -200.5 -30.5t-137.5 -73t-79 -111t-25 -142.5q0 -51 14.5 -99.5t52.5 -91.5q45 67 121.5 107.5t171.5 40.5q71 0 133 -23.5t108.5 -64.5t73 -96t26.5 -118
t-26.5 -118t-73 -96t-108.5 -64.5t-133 -23.5t-132.5 23.5t-108 64.5t-73 96t-26.5 118zM472 281q0 -31 12.5 -58t33.5 -47t49.5 -31.5t60.5 -11.5q33 0 61.5 11.5t50 31.5t33.5 47t12 58t-12 58t-33.5 47t-50 32t-61.5 12q-32 0 -60.5 -12t-49.5 -32t-33.5 -47t-12.5 -58z
M343 -178h824v178h208v-334h-1032v156z" />
    <glyph glyph-name="ori_ga.ra" horiz-adv-x="1479" 
d="M288 281v4q-100 67 -152.5 162t-52.5 210q0 103 46 191t130 152.5t201.5 101t260.5 36.5q131 0 245 -38t201 -105v122h208v-1117h-208v728q-20 55 -61 102t-98.5 81.5t-129.5 53.5t-153 19q-99 0 -183 -23t-145 -67t-95.5 -107.5t-34.5 -143.5q0 -63 19 -112.5t55 -87.5
q45 63 121 101.5t166 38.5q71 0 133 -23.5t108.5 -64.5t73 -96t26.5 -118t-26.5 -118t-73 -96t-108.5 -64.5t-133 -23.5t-132.5 23.5t-108 64.5t-73 96t-26.5 118zM472 281q0 -31 12.5 -58t33.5 -47t49.5 -31.5t60.5 -11.5q33 0 61.5 11.5t50 31.5t33.5 47t12 58t-12 58
t-33.5 47t-50 32t-61.5 12q-32 0 -60.5 -12t-49.5 -32t-33.5 -47t-12.5 -58zM343 -178h824v178h208v-334h-1032v156z" />
    <glyph glyph-name="ori_gha.ra" horiz-adv-x="1500" 
d="M1188 1117h208v-1117h-208v85q-49 -49 -107.5 -77.5t-115.5 -28.5q-69 0 -123.5 26.5t-90.5 65.5q-22 -19 -48 -35.5t-54.5 -29t-59 -20t-60.5 -7.5q-58 0 -104.5 22.5t-79.5 59t-50.5 82t-17.5 91.5q0 21 3 44q-98 60 -147.5 154t-49.5 202q0 103 45.5 194.5t129 160.5
t200 109t258.5 40q141 0 261 -39.5t211 -108.5v127zM911 332q-17 -26 -27.5 -51t-10.5 -55q0 -24 9 -41.5t22.5 -29t30 -17t31.5 -5.5q45 0 82.5 27t66 68t47 88.5t26.5 89.5v317q-21 56 -65.5 104t-106 83t-137.5 54.5t-159 19.5q-96 0 -179 -27.5t-144 -76.5t-96 -116.5
t-35 -148.5q0 -48 17 -96t59 -93q36 53 84 95t96 75l85 -101q-74 -66 -110.5 -123t-36.5 -123q0 -58 27.5 -87t60.5 -29q42 0 75 27.5t59 71.5t47.5 99t39.5 110zM364 -178h824v178h208v-334h-1032v156z" />
    <glyph glyph-name="ori_nga.ra" horiz-adv-x="1686" 
d="M824 318l-141 95l262 367l135 -100l-113 -158q39 -17 69 -42t50.5 -55t31.5 -64t11 -68q0 -70 -29 -128t-81 -99t-124 -64t-159 -23q-81 0 -151.5 21t-125 58.5t-91 89.5t-48.5 114q-54 29 -98 70t-74.5 89t-47.5 100t-17 104q0 111 46.5 205t134.5 162.5t216 107
t291 38.5q106 0 195 -19t162.5 -54t132.5 -85t106 -112q45 0 84 -14t68 -38t46 -57.5t17 -73.5t-17 -74t-46.5 -58.5t-69.5 -38t-85 -13.5t-84.5 13.5t-68.5 38t-46 58.5t-17 74q0 38 15.5 70.5t41.5 56.5q-81 83 -192.5 127.5t-239.5 44.5q-58 0 -118 -10.5t-116.5 -31.5
t-105.5 -51.5t-86 -70.5t-58.5 -89t-21.5 -106q0 -51 18.5 -93t54.5 -79q33 81 107 141t192 80l37 -142q-91 -28 -134 -84.5t-43 -125.5q0 -39 15 -73.5t44 -60t73 -40.5t103 -15q53 0 92.5 16t66 40t39.5 52t13 52q0 37 -18 65.5t-42 46.5zM1310 685q0 -38 17 -60t37 -22
q19 0 37 22t18 60t-16 59.5t-39 21.5t-38.5 -21.5t-15.5 -59.5zM103 -178h824v178h208v-334h-1032v156z" />
    <glyph glyph-name="ori_ca.ra" horiz-adv-x="1526" 
d="M1172 440q35 39 55 89.5t20 101.5q0 75 -41.5 139.5t-110.5 112t-158 74.5t-185 27q-100 0 -188.5 -25.5t-154.5 -72t-104.5 -111.5t-38.5 -145q0 -72 36 -126.5t102 -92.5q21 38 52 70t71 54.5t86.5 35t97.5 12.5q71 0 133.5 -23.5t108.5 -64.5t72.5 -96t26.5 -118
t-26.5 -118t-72.5 -96t-108.5 -64.5t-133.5 -23.5q-66 0 -124 20.5t-103.5 56.5t-74.5 84.5t-36 104.5q-147 62 -218.5 159t-71.5 237q0 100 46.5 190t133 158.5t210.5 108.5t279 40q166 0 291.5 -43t209.5 -113.5t126.5 -161t42.5 -186.5q0 -86 -35 -165t-95 -149zM555 281
q0 -31 12.5 -58t33.5 -47t49.5 -31.5t60.5 -11.5q33 0 61.5 11.5t49.5 31.5t33.5 47t12.5 58t-12.5 58t-33.5 47t-49.5 32t-61.5 12q-32 0 -60.5 -12t-49.5 -32t-33.5 -47t-12.5 -58zM219 -178h624v178h208v-334h-832v156z" />
    <glyph glyph-name="ori_cha.ra" horiz-adv-x="1440" 
d="M992 -24q-51 0 -91 11.5t-73 31t-60.5 44t-51.5 51.5q-25 -27 -52.5 -51.5t-60.5 -44t-73 -31t-91 -11.5q-53 0 -94 16t-69.5 45.5t-43.5 70t-15 89.5q0 45 19 86t56 72q-11 7 -22.5 13t-33 11.5t-57.5 10t-96 9.5l35 105q99 -8 183.5 -27.5t155.5 -45.5q-1 6 -2 11.5
t-1 11.5q-119 47 -172 120.5t-53 176.5q0 81 38.5 152t110.5 123t174 82t230 30q123 0 224.5 -30t175 -82t114 -123t40.5 -152q0 -72 -31.5 -135t-88.5 -129l-124 111q32 38 46 73.5t14 73.5q0 49 -29 92.5t-79 76t-117.5 51.5t-144.5 19q-81 0 -149 -18t-117 -49.5t-76 -74
t-27 -92.5q0 -55 24.5 -92.5t59.5 -59.5q35 51 92 83t129 32q57 0 105 -21t83.5 -56t55.5 -80t20 -92q0 -28 -6 -52q56 -1 100 -19t75 -48t47 -68.5t16 -79.5q0 -49 -15 -89.5t-43.5 -70t-69.5 -45.5t-94 -16zM618 436q0 -29 6 -55t18.5 -45.5t31.5 -31.5t44 -12
q24 0 42.5 13t31 34t19.5 47t7 52q0 28 -7.5 54.5t-21 46.5t-32 32t-39.5 12t-39.5 -10.5t-32 -30t-21 -46.5t-7.5 -60zM548 268q-23 11 -48.5 17.5t-56.5 6.5q-16 0 -33 -4.5t-30.5 -14t-22 -25.5t-8.5 -38q0 -15 4.5 -29t15.5 -24.5t29.5 -17t46.5 -6.5q48 0 94.5 20.5
t91.5 52.5l-28 26q-15 7 -28.5 16t-26.5 20zM822 227q-7 -5 -12.5 -10.5l-10.5 -10.5q46 -32 92.5 -52.5t94.5 -20.5q28 0 46.5 6.5t29.5 17t15.5 24.5t4.5 29q0 22 -8.5 38t-22 25.5t-30.5 14t-33 4.5q-54 0 -97 -20q-16 -14 -32.5 -25.5t-36.5 -19.5zM265 -178h624v178
h208v-334h-832v156z" />
    <glyph glyph-name="ori_ja.ra" horiz-adv-x="1660" 
d="M1235 0h-208v499l-164 -73q36 -32 52 -80t16 -98q0 -43 -19.5 -90.5t-61 -87t-105.5 -65.5t-154 -26t-155 30.5t-106 77.5t-60.5 105t-19.5 113q-75 51 -121 133t-46 194q0 110 56 203t154.5 160.5t233 105t291.5 37.5q105 0 200.5 -17.5t177.5 -50t148.5 -77.5
t113.5 -100t72.5 -118t25.5 -132q0 -72 -34.5 -154.5t-95.5 -168.5l-120 120q35 39 55 90t20 112q0 47 -21.5 90.5t-60 81.5t-91 69.5t-114.5 53.5t-130.5 34.5t-139.5 12.5q-119 0 -221 -29t-177 -78t-117.5 -113.5t-42.5 -134.5q0 -41 8 -72t32 -66q42 60 110 103.5
t153 72.5l49 -148q-40 -14 -73.5 -33.5t-58 -45.5t-38.5 -58.5t-14 -72.5q0 -37 11 -69t31.5 -56t50 -37.5t66.5 -13.5q31 0 59 11t49 30.5t33.5 46t12.5 56.5q0 57 -29 99t-78 63l595 282v-721zM203 -178h824v178h208v-334h-1032v156z" />
    <glyph glyph-name="ori_jha.ra" horiz-adv-x="1418" 
d="M1244 7l-90 -158l-266 179q-41 -23 -88 -36t-99 -13q-66 0 -123.5 20.5t-102.5 55.5t-74.5 83t-37.5 104q-70 33 -122.5 78t-87.5 99t-52.5 114.5t-17.5 123.5q0 100 41 181t113.5 138t172 88t216.5 31q37 0 80 -5t86 -15t85 -24t78 -32q-18 -16 -35.5 -43.5t-17.5 -67.5
q0 -23 7 -44t21.5 -37t37 -26t53.5 -10q24 0 44.5 8t36 22t24.5 34t9 43q0 43 -20.5 65.5t-57.5 43.5l93 133q83 -58 123.5 -120t40.5 -140q0 -33 -14.5 -75.5t-48 -80t-88.5 -63.5t-137 -26q-57 0 -109 13.5t-92 39.5t-64 63.5t-24 84.5q0 25 7 50.5t18 41.5q-7 3 -26 5.5
t-40.5 4.5t-41 3t-28.5 1q-70 0 -135 -18.5t-115 -54.5t-80 -89t-30 -123q0 -77 31 -137t96 -109q21 38 52.5 70t71 54.5t86.5 35t98 12.5q70 0 132.5 -23.5t108.5 -64.5t73 -96t27 -118q0 -42 -12.5 -81t-35.5 -73zM545 281q0 -31 12 -58t33 -47t49.5 -31.5t61.5 -11.5
q32 0 60.5 11.5t50 31.5t34 47t12.5 58t-12.5 58t-34 47t-50 32t-60.5 12q-33 0 -61.5 -12t-49.5 -32t-33 -47t-12 -58zM204 -178h624v178h208v-334h-832v156z" />
    <glyph glyph-name="ori_nya.ra" horiz-adv-x="1435" 
d="M262 905q0 -68 34 -119.5t94 -86.5t142.5 -53t179.5 -18q87 0 166 11.5t139 38.5t95.5 71t35.5 108q0 22 -8.5 44.5t-24.5 41t-39.5 30t-53.5 11.5q-17 0 -34.5 -5.5t-32.5 -16.5t-24.5 -28.5t-9.5 -41.5v-126h-184v141q0 34 -23.5 55.5t-56.5 21.5q-16 0 -30.5 -6.5
t-25.5 -17t-17.5 -24.5t-6.5 -29q0 -20 5.5 -35.5t13 -27.5t16 -20.5t14.5 -15.5l-117 -92q-20 15 -40.5 35t-37 46t-27 57t-10.5 67q0 45 19.5 85t55 69t84.5 46t109 17q53 0 101 -19.5t77 -52.5q20 17 40.5 30.5t43.5 22.5t50.5 14t62.5 5q75 0 130.5 -24t91.5 -63
t54 -87.5t18 -97.5q0 -83 -36.5 -147.5t-100.5 -113.5q69 -38 103 -102t34 -132q0 -97 -50.5 -170.5t-135.5 -122.5t-197 -74t-235 -25q-131 0 -245.5 26.5t-200 80t-135 134.5t-49.5 190q0 135 96 243q-46 50 -71 112t-25 140q0 152 125 273l123 -112q-8 -8 -19.5 -22
t-22.5 -34t-19 -46.5t-8 -58.5zM262 410q0 -68 34 -119.5t94 -86.5t142.5 -53t179.5 -18q87 0 166 11.5t139 38.5t95.5 71t35.5 108q0 22 -8.5 44.5t-24.5 41t-39.5 30t-53.5 11.5q-17 0 -34.5 -5.5t-32.5 -16.5t-24.5 -28.5t-9.5 -41.5v-126h-184v141q0 25 -14 41t-37 21
l-48 2q-26 -5 -43.5 -21.5t-17.5 -42.5q0 -20 5.5 -35.5t13 -27.5t16 -20.5t14.5 -15.5l-117 -93q-20 15 -40.5 35.5t-37 46.5t-27 57t-10.5 67q0 52 23 88q-27 8 -53 18.5t-49 21.5q-17 -21 -35 -57t-18 -87zM183 -178h824v178h208v-334h-1032v156z" />
    <glyph glyph-name="ori_tta.ra" horiz-adv-x="1502" 
d="M1190 1117h208v-487h-208v93q-20 56 -61.5 104t-101 83t-133.5 54.5t-158 19.5q-97 0 -182.5 -25.5t-149 -72t-100 -111.5t-36.5 -143t29.5 -132t77.5 -84q21 37 52.5 68t71 53t85.5 34t96 12q71 0 133 -23.5t108.5 -64.5t73 -96t26.5 -118t-26.5 -118t-73 -96
t-108.5 -64.5t-133 -23.5q-66 0 -123.5 20t-102.5 55.5t-74 83t-37 103.5q-65 28 -113.5 71t-81 95.5t-49 112.5t-16.5 123q0 107 49 197.5t135.5 156.5t205 103.5t258.5 37.5q137 0 254 -38.5t205 -106.5v124zM524 281q0 -31 12.5 -58t33.5 -47t49.5 -31.5t60.5 -11.5
q33 0 61.5 11.5t50 31.5t33.5 47t12 58t-12 58t-33.5 47t-50 32t-61.5 12q-32 0 -60.5 -12t-49.5 -32t-33.5 -47t-12.5 -58zM185 -178h624v178h208v-334h-832v156z" />
    <glyph glyph-name="ori_ttha.ra" horiz-adv-x="1408" 
d="M83 558q0 120 49 225.5t132.5 184.5t194.5 124.5t235 45.5t234.5 -46t194 -125.5t132.5 -185t49 -225.5q0 -80 -22.5 -153.5t-62.5 -137.5t-96 -117t-124 -90.5t-145.5 -58t-159.5 -20.5q-124 0 -235 45.5t-194.5 124.5t-132.5 184t-49 225zM267 558q0 -88 33.5 -165.5
t91.5 -135t136 -91t166 -33.5t166 33.5t136 91t91.5 135t33.5 165.5t-33.5 166t-91.5 135.5t-136 91t-166 33.5t-166 -33.5t-136 -91t-91.5 -135.5t-33.5 -166zM182 -178h824v178h208v-334h-1032v156z" />
    <glyph glyph-name="ori_dda.ra" horiz-adv-x="1566" 
d="M842 318l-140 95l262 367l134 -100l-112 -158q39 -17 69 -42t50.5 -55t31.5 -64t11 -68q0 -70 -29 -128t-81 -99t-124 -64t-159 -23q-79 0 -148.5 20t-123.5 56t-91 86.5t-51 111.5q-65 36 -113.5 81t-80.5 95t-48 104.5t-16 109.5q0 103 47.5 193t137 157t217 106
t287.5 39q159 0 286.5 -39t217.5 -106t138 -157t48 -193q0 -72 -34 -154.5t-96 -168.5l-119 120q35 39 55 90t20 112q0 70 -40.5 132.5t-110 109t-162.5 73.5t-198 27q-108 0 -201.5 -27t-162 -73.5t-107.5 -109t-39 -132.5q0 -65 22 -113.5t66 -86.5q15 42 41.5 79.5
t64 68.5t86.5 52.5t110 31.5l38 -142q-91 -28 -134 -84.5t-43 -125.5q0 -39 15 -73.5t44 -60t73 -40.5t103 -15q53 0 92.5 16t66 40t39.5 52t13 52q0 37 -18 65.5t-42 46.5zM321 -178h624v178h208v-334h-832v156z" />
    </font>
</defs>
</svg>
