<?xml version="1.0" encoding="UTF-8"?>
<svg width="41px" height="24px" viewBox="0 0 41 24" version="1.1" xmlns="http://www.w3.org/2000/svg" xmlns:xlink="http://www.w3.org/1999/xlink">
    <!-- Generator: Sketch 63.1 (92452) - https://sketch.com -->
    <title>Shape</title>
    <desc>Created with Sketch.</desc>
    <g id="ui-concept" stroke="none" stroke-width="1" fill="none" fill-rule="evenodd">
        <g id="iPhone-8-Copy-8" transform="translate(-14.000000, -15.000000)" fill="#000000" fill-rule="nonzero">
            <path d="M37.4329984,21.5133506 C37.1175699,21.9341299 36.4087906,22.6397922 35.2047387,22.6397922 C33.6749725,22.6397922 32.5211023,21.4438442 32.5211023,19.8582857 C32.5211023,18.2985974 33.6690504,17.0770909 35.1342971,17.0770909 C35.8436997,17.0770909 36.5219335,17.3735065 37.0440114,17.9124156 L37.1350244,18.0059221 L38.3303491,16.7015065 L38.2415179,16.6126753 C37.4354919,15.8072727 36.3361673,15.3637403 35.1461413,15.3637403 C32.6027647,15.3637403 30.6846348,17.2962078 30.6846348,19.8582857 C30.6846348,22.4203636 32.6127387,24.3528312 35.1698296,24.3528312 C36.6185569,24.3528312 37.9139335,23.7425455 38.7230764,22.6784416 L38.7956997,22.5833766 L37.5149725,21.4039481 L37.4329984,21.5133506 L37.4329984,21.5133506 Z M39.3966348,18.0922597 L41.1745049,18.0922597 L41.1745049,24.2315844 L39.3969465,24.2315844 L39.3969465,18.0919481 L39.3966348,18.0922597 Z M40.2855699,17.270961 C40.9158036,17.270961 41.4095179,16.7722597 41.4095179,16.1351688 C41.4095179,15.4987013 40.9158036,15 40.2852582,15 C39.6547127,15 39.1613101,15.4987013 39.1613101,16.1351688 C39.1613101,16.7722597 39.6550244,17.270961 40.2852582,17.270961 L40.2855699,17.270961 Z M43.4077517,21.6165195 C43.4077517,22.4755325 43.5417777,23.0247273 43.8559595,23.4523636 C44.2839075,24.0414545 45.0011023,24.3528312 45.9302452,24.3528312 C46.2381932,24.3528312 46.705414,24.3035844 46.9235958,24.2241039 L47.0242712,24.1876364 L46.7468686,22.6136104 L46.6200114,22.6429091 C46.517466,22.665974 46.2347647,22.7002597 46.0243751,22.7002597 C45.7095699,22.7002597 45.480479,22.6173506 45.3439595,22.454961 C45.2329984,22.3193766 45.1856218,22.1233247 45.1856218,21.7985455 L45.1856218,19.6840519 L47.0657257,19.6840519 L47.0657257,18.0922597 L45.1856218,18.0922597 L45.1856218,16.4552727 L43.4077517,16.4552727 L43.4077517,18.0919481 L41.8212582,18.0919481 L41.8212582,19.6837403 L43.4077517,19.6837403 L43.4077517,21.6162078 L43.4077517,21.6165195 Z M48.4994919,27.1421299 L50.3736738,27.1421299 L54.4140893,18.0919481 L52.5280634,18.0919481 L51.0646867,21.4457143 L49.4785049,18.0919481 L47.5179855,18.0919481 L50.1314919,23.510026 L48.4994919,27.1418182 L48.4994919,27.1421299 Z M20.2178296,33.3456623 L16.354453,33.3456623 L16.354453,30.1324675 L14.5179855,30.1324675 L14.5179855,38.8784416 L16.354453,38.8784416 L16.354453,35.059013 L20.2178296,35.059013 L20.2178296,38.8784416 L22.0542971,38.8784416 L22.0542971,30.1321558 L20.2178296,30.1321558 L20.2178296,33.3456623 Z M27.2847387,36.6427013 C27.1338816,36.830961 26.7037517,37.286961 26.0816218,37.286961 C25.9017777,37.286961 25.5629725,37.2448831 25.3176738,36.9665455 C25.187388,36.8144416 25.0667647,36.5971948 25.0667647,36.0455065 L25.0667647,32.7394286 L23.2888945,32.7394286 L23.2888945,35.9847273 C23.2888945,36.8312727 23.4865049,37.4923636 23.8926348,38.0063377 C24.3844453,38.6306231 25.1341635,38.9964737 25.9288945,39 C26.453466,39 26.9372062,38.8435325 27.3436478,38.5449351 L27.3436478,38.8784416 L29.0626088,38.8784416 L29.0626088,32.7397403 L27.2847387,32.7397403 L27.2847387,36.643013 L27.2847387,36.6427013 Z M32.1333621,34.9736104 C32.4459855,34.564987 32.9119595,34.3315325 33.418453,34.3315325 C34.2914919,34.3315325 34.762453,35.0957922 34.762453,35.8151688 C34.762453,36.6679481 34.1827127,37.2869711 33.3832322,37.2869711 C32.8875414,37.2887593 32.4217057,37.0502653 32.1333621,36.6470649 L32.1333621,34.9736104 Z M33.6185569,32.6181818 C33.0575179,32.6181818 32.5588166,32.7606234 32.1333621,33.0423896 L32.1333621,30.0109091 L30.3554919,30.0109091 L30.3554919,38.8784416 L32.0747647,38.8784416 L32.0747647,38.5387013 C32.5017777,38.8450909 32.9923751,39 33.5362712,39 C34.3996478,39 35.2393361,38.6113247 35.7816738,37.9608312 C36.2710244,37.3761039 36.5406348,36.614026 36.5406348,35.8151688 C36.5406348,34.0223377 35.2567906,32.6181818 33.6185569,32.6181818 L33.6185569,32.6181818 Z M53.2892062,29.2101818 C52.8029725,29.2101818 52.40744,29.6184935 52.40744,30.12 L52.40744,34.9337143 L41.7501932,34.9337143 C41.2639595,34.9337143 40.8687387,35.3417143 40.8687387,35.8432208 C40.8687387,36.345039 41.2642712,36.7527273 41.7501932,36.7527273 L54.1706608,36.7527273 L54.1706608,30.12 C54.1706608,29.6181818 53.7751283,29.2101818 53.2892062,29.2101818 L53.2892062,29.2101818 Z M15.4271803,26.3769351 C15.913414,26.3769351 16.3086348,25.9692468 16.3086348,25.4674286 L16.3086348,20.654026 L26.9658816,20.654026 C27.4521153,20.654026 27.8473361,20.246026 27.8473361,19.7445195 C27.8473361,19.2427013 27.4521153,18.835013 26.9658816,18.835013 L14.545414,18.835013 L14.545414,25.4677403 C14.545414,25.9695584 14.9412582,26.3775584 15.4271803,26.3775584 L15.4271803,26.3769351 Z" id="Shape"></path>
        </g>
    </g>
</svg>